<svg width="32" height="36" viewBox="0 0 32 36" fill="none" xmlns="http://www.w3.org/2000/svg">
<path fill-rule="evenodd" clip-rule="evenodd" d="M20.4655 0.0158593C20.4661 0.0258332 20.4335 0.1322 20.3932 0.252212C20.2836 0.578191 20.2238 0.964802 20.2006 1.49661C20.1802 1.96285 20.1785 3.15525 20.197 3.98886C20.2073 4.45198 20.2061 5.21911 20.1948 5.3967C20.1908 5.45971 20.1869 5.6397 20.1861 5.79668C20.1854 5.95367 20.1772 6.0911 20.1679 6.1021C20.1586 6.11309 20.1542 6.2075 20.1581 6.31191C20.1619 6.41632 20.1534 6.66506 20.1392 6.86466C20.1249 7.06426 20.1135 7.25325 20.1137 7.28462C20.114 7.316 20.1064 7.35923 20.0968 7.3807C20.0873 7.40216 20.0807 7.48777 20.082 7.5709C20.0842 7.70321 20.0767 7.79864 20.0371 8.14503C20.0322 8.18716 20.0256 8.27976 20.0222 8.35083C20.0189 8.4219 20.0072 8.55954 19.9963 8.65668C19.9854 8.75382 19.9737 8.87628 19.9703 8.92879C19.9413 9.37105 19.9022 9.73164 19.8832 9.73272C19.8706 9.73344 19.8696 9.75175 19.8811 9.77347C19.8926 9.79515 19.8893 9.93661 19.8738 10.0878C19.8292 10.522 19.7239 11.7333 19.7253 11.7962C19.7266 11.8606 19.673 12.5105 19.6306 12.943C19.6152 13.1008 19.6019 13.2557 19.6012 13.2871C19.6001 13.3357 19.5755 13.6102 19.5669 13.6695C19.5654 13.6801 19.5589 13.766 19.5526 13.8606C19.5277 14.2285 19.3873 15.7083 19.2949 16.5765C19.2736 16.7765 19.2445 17.0521 19.2303 17.189C19.2161 17.3258 19.1943 17.4982 19.1819 17.5722C19.1694 17.6461 19.1567 17.758 19.1537 17.8208C19.1506 17.8836 19.1352 18.0214 19.1194 18.1271C19.0794 18.3951 19.0435 18.6833 19.0348 18.8076C19.0307 18.8653 19.0154 18.9133 19.0008 18.9141C18.9862 18.9149 18.983 18.9321 18.9936 18.9523C19.0043 18.9724 18.9989 19.0797 18.9816 19.1907C18.9644 19.3018 18.9356 19.4961 18.9177 19.6227C18.8997 19.7493 18.868 19.948 18.8471 20.0643C18.7891 20.3876 18.6934 21.0847 18.5998 21.8665C18.3866 23.6461 18.3336 24.0718 18.2869 24.3797C18.2706 24.4871 18.2592 24.6076 18.2615 24.6475C18.2639 24.6874 18.2469 24.8495 18.2237 25.0077C18.2007 25.166 18.1673 25.399 18.1496 25.5256C18.1022 25.864 17.9809 26.2391 17.9176 26.2427C17.8849 26.2445 17.8987 26.1621 17.9548 26.021C18.0669 25.739 18.1394 25.0305 18.2278 23.3525C18.255 22.8376 18.3126 21.361 18.332 20.6833C18.3338 20.6204 18.3285 20.4238 18.3202 20.2464C18.3067 19.9557 18.3095 19.3913 18.3256 19.1428C18.329 19.0903 18.3321 18.9103 18.3325 18.7429C18.3328 18.5755 18.3412 18.2497 18.351 18.019C18.3609 17.7882 18.3743 17.4675 18.3809 17.3061C18.3875 17.1448 18.3954 16.9817 18.3985 16.9437C18.4016 16.9057 18.4087 16.686 18.4144 16.4554C18.4201 16.2249 18.4356 15.9384 18.449 15.8186C18.4623 15.6989 18.4675 15.5941 18.4606 15.5858C18.4502 15.5734 18.4596 15.2878 18.4823 14.9297C18.4849 14.8877 18.49 14.759 18.4934 14.6437C18.4999 14.4292 18.5197 14.0135 18.5315 13.8426C18.5352 13.7901 18.5442 13.5927 18.5516 13.4039C18.5689 12.9614 18.5704 12.9335 18.5861 12.7742C18.5934 12.7005 18.5961 12.6062 18.5921 12.5646C18.5856 12.4969 18.6001 12.2382 18.6253 11.973C18.6303 11.9204 18.6358 11.7888 18.6377 11.6806C18.6396 11.5724 18.6524 11.3491 18.6663 11.1844C18.6801 11.0196 18.6907 10.8593 18.6898 10.8279C18.688 10.7624 18.709 10.3889 18.7211 10.2731C18.7255 10.2303 18.7326 10.0972 18.7368 9.97737C18.7411 9.85755 18.7526 9.75904 18.7624 9.75848C18.7722 9.75792 18.7778 9.69342 18.7747 9.6151C18.7717 9.53682 18.7754 9.42959 18.7828 9.37685C18.7903 9.32411 18.7977 9.18672 18.7992 9.07154C18.8008 8.95637 18.8081 8.82754 18.8155 8.78527C18.8323 8.68984 18.8366 8.63824 18.8454 8.42213C18.8514 8.27325 18.8775 7.95328 18.8983 7.77232C18.9019 7.74073 18.9077 7.66335 18.9112 7.60038C18.9146 7.53741 18.9235 7.43418 18.931 7.37098C18.9385 7.30777 18.9455 7.24745 18.9467 7.23692C18.9479 7.22639 18.9545 7.1404 18.9614 7.04584C18.9684 6.95129 18.9959 6.70146 19.0227 6.49068C19.0494 6.27991 19.0736 6.08164 19.0764 6.05009C19.0898 5.90007 19.1501 5.49064 19.164 5.45573C19.1725 5.43413 19.1809 5.3907 19.1826 5.35921C19.1897 5.2237 19.3122 4.54947 19.4165 4.07134C19.4489 3.92301 19.5034 3.6599 19.5377 3.48666C19.572 3.31339 19.61 3.14001 19.6223 3.10138C19.6435 3.03481 19.6656 2.92535 19.835 2.05007C19.9585 1.41208 20.0676 0.915975 20.0932 0.877006C20.1068 0.856257 20.1168 0.818634 20.1153 0.793339C20.1123 0.739601 20.3019 0.20171 20.3509 0.125188C20.3692 0.0964836 20.3833 0.0571381 20.3822 0.0377971C20.3811 0.0184181 20.3992 0.00148748 20.4223 0.000168538C20.4455 -0.00115041 20.4649 0.00592329 20.4655 0.0158593ZM4.76286 2.0382C4.84266 2.09883 4.9149 2.15871 4.92337 2.17132C4.93184 2.18393 5.00533 2.25009 5.0867 2.31832C5.25886 2.46276 5.2957 2.49912 5.62715 2.85167C5.8587 3.09796 6.22071 3.56408 6.39922 3.84574C6.44179 3.9129 6.54222 4.06755 6.6224 4.18938C6.81344 4.47968 6.79657 4.45351 6.9476 4.69396C7.02001 4.80923 7.08029 4.92135 7.08153 4.94312C7.08277 4.96488 7.09437 4.98207 7.10734 4.98133C7.12029 4.98059 7.1887 5.08372 7.25937 5.21047C7.33003 5.33725 7.48713 5.6065 7.60845 5.80885C7.72979 6.0112 7.8385 6.2019 7.85005 6.23263C7.86161 6.26336 7.88853 6.31319 7.90991 6.34336C7.9313 6.37353 7.95432 6.42214 7.96109 6.45143C7.96785 6.48068 7.99666 6.5339 8.02513 6.56968C8.06676 6.6221 8.24196 6.9523 8.49296 7.45156C8.79193 8.04622 8.90132 8.28219 8.89065 8.30951C8.88352 8.3278 8.88972 8.34209 8.90443 8.34126C8.92774 8.33993 9.81188 10.3424 9.81541 10.4045C9.81615 10.4174 9.86241 10.5392 9.91818 10.675C9.97398 10.8109 10.0464 10.989 10.0792 11.0708C10.1119 11.1526 10.1919 11.3503 10.2568 11.5102C10.3218 11.67 10.3686 11.8171 10.3607 11.8372C10.3529 11.8572 10.3568 11.873 10.3694 11.8723C10.382 11.8716 10.4126 11.9254 10.4374 11.9921C10.4623 12.0587 10.5117 12.1842 10.5472 12.2711C10.5827 12.3579 10.6162 12.4502 10.6215 12.4761C10.6268 12.502 10.6824 12.6487 10.7451 12.8021C10.8078 12.9554 10.9161 13.2403 10.9857 13.4351C11.0553 13.63 11.1252 13.8181 11.1411 13.8532C11.1999 13.9831 11.7404 15.5263 11.9614 16.195C12.087 16.575 12.2159 16.9615 12.2479 17.0538C12.2799 17.1461 12.397 17.5247 12.508 17.895C12.619 18.2654 12.7227 18.6019 12.7384 18.6429C12.754 18.6838 12.7748 18.7597 12.7845 18.8114C12.7942 18.8632 12.8266 18.9702 12.8566 19.0492C12.8865 19.1283 12.9046 19.2027 12.8968 19.2147C12.889 19.2266 12.8979 19.2585 12.9167 19.2855C12.9355 19.3125 12.9415 19.3352 12.93 19.3358C12.9185 19.3365 12.9231 19.3576 12.9404 19.3828C12.9576 19.408 13.0463 19.6982 13.1375 20.0279C13.2286 20.3575 13.3502 20.7884 13.4076 20.9856C13.465 21.1827 13.5183 21.3851 13.5261 21.4354C13.5338 21.4856 13.5582 21.5769 13.5803 21.6381C13.6024 21.6993 13.6434 21.851 13.6716 21.9753C13.6997 22.0996 13.7466 22.2897 13.7758 22.398C13.8049 22.5062 13.8232 22.595 13.8163 22.5954C13.8095 22.5958 13.8201 22.6311 13.84 22.6739C13.8862 22.7737 14.2021 24.0663 14.1862 24.0906C14.1796 24.1007 14.1866 24.1269 14.2017 24.1489C14.2283 24.1876 14.278 24.4105 14.2945 24.5656C14.299 24.6072 14.3112 24.6493 14.3216 24.6592C14.3444 24.6806 14.3944 24.9308 14.4093 25.0976C14.4151 25.1633 14.4273 25.2101 14.4363 25.2017C14.4454 25.1932 14.4649 25.2665 14.4798 25.3645C14.4948 25.4625 14.5146 25.5765 14.524 25.6179C14.5869 25.8961 14.6154 26.0386 14.6181 26.0881C14.6197 26.1194 14.6306 26.1872 14.6421 26.2389C14.6859 26.4352 14.7447 26.7538 14.7706 26.9354C14.7854 27.0392 14.8056 27.1665 14.8156 27.2182C14.8426 27.3591 14.9155 27.8477 14.9478 28.1048C14.9634 28.2295 14.9969 28.4758 15.0221 28.6522C15.0473 28.8287 15.0737 29.0669 15.0808 29.1816C15.0878 29.2962 15.1048 29.475 15.1184 29.5789C15.162 29.9096 15.3123 31.6796 15.2996 31.7121C15.2929 31.7292 15.2956 31.9214 15.3056 32.139C15.327 32.6071 15.3202 33.1168 15.2875 33.4881C15.2745 33.6353 15.2526 33.9361 15.2389 34.1566C15.1517 35.5575 15.1015 35.8445 14.9535 35.7907C14.8841 35.7656 14.6883 35.5267 14.6608 35.4337C14.6214 35.3007 14.6712 35.32 14.802 35.4883C14.8744 35.5815 14.9471 35.6571 14.9636 35.6561C15.0581 35.6508 15.0355 34.9508 14.9135 34.1025C14.8585 33.7205 14.8073 33.3959 14.7996 33.3814C14.7919 33.3669 14.7628 33.192 14.7349 32.9928C14.7069 32.7936 14.6762 32.5921 14.6666 32.5449C14.6569 32.4977 14.6271 32.3063 14.6003 32.1195C14.55 31.7696 14.492 31.3903 14.3296 30.3467C14.2779 30.0148 14.1727 29.3873 14.0958 28.9523C14.0189 28.5172 13.9473 28.1104 13.9367 28.0482C13.9262 27.986 13.8654 27.6899 13.8017 27.3901C13.738 27.0903 13.6842 26.8194 13.6821 26.7882C13.6783 26.7313 13.6464 26.5809 13.6383 26.5814C13.6327 26.5817 13.6274 26.5595 13.4942 25.9808C13.3339 25.2839 13.0851 24.3022 12.9785 23.9457C12.9584 23.8785 12.9361 23.7856 12.9289 23.7392C12.9217 23.6928 12.8976 23.6046 12.8755 23.5431C12.8533 23.4815 12.8175 23.3552 12.796 23.2622C12.7745 23.1693 12.7462 23.0682 12.7331 23.0375C12.7201 23.0069 12.6652 22.8131 12.6112 22.6069C12.5571 22.4008 12.4925 22.1733 12.4674 22.1015C12.4424 22.0297 12.3562 21.7435 12.2759 21.4656C12.0734 20.7646 11.8996 20.1829 11.8036 19.8848C11.7589 19.7459 11.7227 19.6281 11.7232 19.623C11.7238 19.6179 11.7079 19.5664 11.688 19.5087C11.6682 19.4509 11.6507 19.3834 11.6492 19.3587C11.6477 19.334 11.6276 19.272 11.6045 19.221C11.5814 19.17 11.5257 19.002 11.4808 18.8476C11.4358 18.6932 11.3715 18.4959 11.3377 18.4091C11.304 18.3223 11.2754 18.2347 11.2743 18.2143C11.2731 18.1939 11.2515 18.1222 11.2262 18.0549C11.2009 17.9876 11.1492 17.8402 11.1112 17.7273C11.0733 17.6143 10.9879 17.3664 10.9214 17.1763C10.855 16.9862 10.7948 16.8013 10.7878 16.7654C10.7808 16.7295 10.7514 16.6415 10.7224 16.5699C10.6934 16.4984 10.5923 16.2216 10.4977 15.955C10.2272 15.1932 9.71296 13.8305 9.48146 13.2625C9.42074 13.1134 9.37053 12.9827 9.36991 12.9719C9.36828 12.9432 9.2641 12.6801 8.96613 11.9522C8.88661 11.7579 8.73576 11.3727 8.6309 11.0962C8.52605 10.8196 8.42173 10.5517 8.3991 10.5006C8.37648 10.4496 8.29458 10.2403 8.21713 10.0354C8.13968 9.83056 8.04836 9.59196 8.01421 9.50521C7.98005 9.41843 7.95122 9.33215 7.95015 9.31345C7.94909 9.29476 7.92656 9.23166 7.90008 9.17321C7.87362 9.11479 7.85038 9.04052 7.84842 9.00821C7.8465 8.97587 7.83264 8.93386 7.81764 8.91485C7.80264 8.89581 7.74984 8.76272 7.7003 8.61906C7.65077 8.4754 7.58909 8.29914 7.56322 8.22738C7.46533 7.95589 7.1381 6.97462 7.12744 6.92056C7.1213 6.88952 7.09135 6.79926 7.06086 6.71996C7.03036 6.64066 7.00471 6.56313 7.00382 6.54762C7.00121 6.50174 6.73426 5.72229 6.65216 5.52087C6.61048 5.41861 6.56418 5.29284 6.54931 5.24138C6.52297 5.15046 6.36966 4.76206 6.22615 4.42275C6.18727 4.3308 6.08034 4.10785 5.98858 3.92729C5.89679 3.74673 5.82132 3.59249 5.82087 3.58452C5.81946 3.55968 5.59836 3.19325 5.46884 3.00107C5.31432 2.77177 4.95145 2.34489 4.77287 2.18232C4.64934 2.06985 4.5858 1.97668 4.60877 1.94166C4.61373 1.93415 4.68306 1.97761 4.76286 2.0382ZM31.7155 7.09391C31.7171 7.12202 31.6949 7.18671 31.6661 7.23769C31.6373 7.28868 31.59 7.39246 31.5609 7.46826C31.5319 7.54411 31.5017 7.61507 31.4937 7.62599C31.4858 7.6369 31.4404 7.73365 31.3929 7.84098C31.3454 7.94832 31.2969 8.04239 31.2851 8.05003C31.2733 8.0577 31.2648 8.08603 31.2664 8.11303C31.2679 8.14003 31.2516 8.18418 31.2302 8.21112C31.1969 8.25308 31.1262 8.42793 30.9184 8.98272C30.8327 9.2115 30.7634 9.40892 30.6908 9.63109C30.6489 9.75903 30.6033 9.89859 30.5894 9.94124C30.508 10.1902 30.234 11.2597 30.2372 11.3158C30.238 11.3294 30.2212 11.4079 30.1999 11.4901C30.1786 11.5724 30.1596 11.6573 30.1577 11.6788C30.1461 11.8103 30.0323 12.3551 30.0126 12.3736C29.9995 12.3859 29.9907 12.4286 29.9929 12.4687C29.9971 12.5423 29.9334 12.9489 29.8788 13.1966C29.8625 13.2708 29.8457 13.383 29.8414 13.4461C29.8372 13.5091 29.8214 13.6127 29.8062 13.6763C29.791 13.74 29.7777 13.8178 29.7766 13.8492C29.7743 13.9151 29.7168 14.271 29.5935 14.982C29.5458 15.2568 29.5049 15.4988 29.5025 15.5199C29.4932 15.6009 29.3647 16.2924 29.3452 16.3658C29.3339 16.4083 29.3027 16.5728 29.2758 16.7312C29.2489 16.8897 29.2129 17.063 29.1957 17.1162C29.1786 17.1695 29.1658 17.235 29.1672 17.2618C29.1686 17.2885 29.1526 17.375 29.1316 17.454C29.1106 17.533 29.0909 17.632 29.0878 17.6741C29.0847 17.7161 29.0674 17.8112 29.0494 17.8855C29.0315 17.9598 28.9905 18.1419 28.9585 18.2902C28.9265 18.4385 28.8886 18.6033 28.8742 18.6564C28.8599 18.7095 28.846 18.7781 28.8435 18.8087C28.8392 18.8607 28.806 19.0034 28.7297 19.2982C28.7124 19.3651 28.699 19.4332 28.6999 19.4495C28.7008 19.4659 28.6822 19.5499 28.6586 19.6364C28.635 19.7228 28.5668 20.0103 28.5071 20.2753C28.4474 20.5402 28.3917 20.766 28.3833 20.7769C28.3749 20.7879 28.3656 20.8226 28.3627 20.8542C28.3554 20.9315 28.2482 21.3935 28.2151 21.4904C28.2005 21.533 28.1876 21.5766 28.1864 21.5871C28.1696 21.733 28.1474 21.8176 28.1257 21.8188C28.111 21.8197 28.1072 21.8359 28.1173 21.8549C28.1273 21.8739 28.1148 21.9645 28.0895 22.0562C28.0642 22.1479 28.0184 22.3357 27.9878 22.4735C27.9352 22.7099 27.8142 23.2103 27.7687 23.38C27.7573 23.4225 27.6956 23.6829 27.6317 23.9585C27.5677 24.2342 27.5047 24.4767 27.4917 24.4973C27.4787 24.5179 27.4694 24.5594 27.4711 24.5894C27.4728 24.6196 27.4395 24.7849 27.3971 24.957C27.325 25.2498 27.2464 25.5876 27.1 26.2336C26.9657 26.8265 26.7666 27.8193 26.6138 28.6582C26.5251 29.1445 26.4347 29.6376 26.4126 29.7539C26.3906 29.8703 26.3479 30.1163 26.3177 30.3005C26.2875 30.4848 26.2513 30.6462 26.2374 30.6592C26.2234 30.6723 26.2144 30.7243 26.2173 30.7747C26.2225 30.8672 26.1303 31.4021 26.0858 31.5369C26.0727 31.5769 26.0596 31.6461 26.0569 31.6908C26.0507 31.7947 25.9914 32.1194 25.9489 32.2832C25.9308 32.3529 25.9175 32.4367 25.9193 32.4694C25.9212 32.502 25.9079 32.5835 25.89 32.6505C25.872 32.7174 25.8281 32.9365 25.7924 33.1373C25.6841 33.7477 25.6069 34.1174 25.5847 34.1321C25.5731 34.1398 25.5701 34.1584 25.578 34.1733C25.5956 34.2066 25.5246 34.6326 25.4763 34.7842C25.4244 34.9466 25.3708 34.998 25.2456 35.0051C25.051 35.0162 24.9322 34.8174 24.8326 34.3141C24.7489 33.8908 24.7455 33.4777 24.8188 32.6221C24.8591 32.1519 24.8717 32.0293 24.8797 32.0289C24.8819 32.0288 24.8861 31.9687 24.8889 31.8954C24.8981 31.6543 25.0325 30.6508 25.0575 30.6363C25.071 30.6285 25.0744 30.6078 25.0651 30.5903C25.0511 30.5638 25.0703 30.3878 25.1402 29.9025C25.1448 29.8708 25.1575 29.7674 25.1686 29.6726C25.1796 29.5778 25.2016 29.4224 25.2175 29.3274C25.2334 29.2323 25.2711 28.9819 25.3013 28.7709C25.3314 28.56 25.3626 28.3699 25.3706 28.3485C25.3786 28.3271 25.3864 28.2838 25.3881 28.2524C25.3919 28.1802 25.4464 27.8375 25.4979 27.5613C25.5196 27.4449 25.5422 27.3057 25.548 27.2518C25.5539 27.198 25.5763 27.0854 25.5978 27.0017C25.6193 26.918 25.6383 26.8237 25.6401 26.7922C25.642 26.7608 25.654 26.683 25.6668 26.6195C25.6797 26.556 25.7256 26.3223 25.7689 26.1001C25.8122 25.8779 25.8678 25.6008 25.8925 25.4843C25.9172 25.3678 25.9502 25.2118 25.9658 25.1377C26.019 24.8857 26.0954 24.541 26.1238 24.4249C26.1393 24.3612 26.1845 24.1617 26.2241 23.9816C26.2637 23.8015 26.3067 23.6372 26.3196 23.6166C26.3324 23.596 26.3415 23.554 26.3398 23.5233C26.3358 23.454 26.4459 22.9738 26.4775 22.9228C26.4903 22.9022 26.4993 22.8615 26.4977 22.8323C26.496 22.8031 26.5087 22.7245 26.5258 22.6576C26.5429 22.5907 26.5782 22.4405 26.6043 22.324C26.6303 22.2074 26.6638 22.06 26.6787 21.9963C26.6936 21.9327 26.7229 21.8026 26.7438 21.7073C26.7647 21.6119 26.9111 20.9701 27.0691 20.281C27.2271 19.592 27.3815 18.9155 27.4122 18.7777C27.443 18.6399 27.4775 18.4924 27.489 18.4499C27.5005 18.4074 27.5569 18.174 27.6143 17.9312C27.8024 17.1363 28.1553 15.7898 28.1821 15.7647C28.1965 15.7512 28.2116 15.7018 28.2155 15.655C28.2195 15.6081 28.2558 15.4716 28.2962 15.3516C28.3366 15.2315 28.3685 15.1128 28.3671 15.0878C28.3656 15.0628 28.3808 15.0218 28.4007 14.9967C28.4207 14.9716 28.4414 14.9019 28.4469 14.8418C28.4523 14.7817 28.4748 14.705 28.4969 14.6713C28.519 14.6376 28.5361 14.5875 28.5348 14.5599C28.5336 14.5323 28.5549 14.4657 28.5821 14.4118C28.6094 14.358 28.6305 14.2874 28.629 14.2551C28.6274 14.2227 28.6365 14.1794 28.649 14.1588C28.6615 14.1382 28.722 13.9644 28.7835 13.7726C28.9535 13.2421 29.0707 12.9086 29.1065 12.8541C29.1242 12.8271 29.1378 12.7897 29.1367 12.7709C29.1357 12.7522 29.1897 12.5883 29.2569 12.4067C29.324 12.2251 29.3786 12.071 29.3783 12.0643C29.3761 12.0272 29.7619 10.9897 29.9201 10.6071C30.022 10.3607 30.1444 10.0621 30.1923 9.94357C30.3266 9.61066 30.8912 8.46474 31.0442 8.21459C31.0668 8.17769 31.0966 8.12433 31.1105 8.09596C31.1243 8.06762 31.2224 7.88573 31.3285 7.69174C31.4345 7.49779 31.5532 7.27307 31.5922 7.19236C31.6654 7.04091 31.7104 7.00494 31.7155 7.09391ZM0.249641 10.1458C0.251398 10.1767 0.238835 10.2672 0.221717 10.3471C0.169141 10.5926 0.154996 11.1335 0.192892 11.4508C0.304324 12.3837 0.538377 13.7227 0.804022 14.9469C0.895951 15.3705 0.969057 15.7341 0.984646 15.8451C0.993747 15.9099 1.01326 16.0136 1.028 16.0756C1.04274 16.1375 1.05877 16.2436 1.06365 16.3113C1.06852 16.3791 1.08221 16.4339 1.09403 16.4332C1.10585 16.4326 1.11748 16.479 1.11985 16.5364C1.1241 16.6398 1.13756 16.7239 1.18473 16.9417C1.21329 17.0737 1.2786 17.4717 1.31152 17.7144C1.3242 17.8079 1.35539 18.0201 1.38084 18.1861C1.40629 18.352 1.44212 18.6154 1.46052 18.7713C1.50204 19.1234 1.51417 19.2093 1.54581 19.3751C1.55966 19.4476 1.58702 19.66 1.60667 19.8473C1.62631 20.0345 1.65044 20.2386 1.66029 20.3008C1.67012 20.363 1.71284 20.6858 1.75523 21.0182C1.7976 21.3506 1.84221 21.6905 1.85441 21.7735C1.9087 22.1432 1.97633 22.6691 2.00982 22.9822C2.02986 23.1694 2.05399 23.3734 2.06345 23.4357C2.07293 23.4979 2.09425 23.6759 2.11087 23.8313C2.12749 23.9866 2.15267 24.1992 2.16679 24.3037C2.32508 25.4738 2.51827 28.0324 2.44862 28.0364C2.43289 28.0373 2.42925 28.0555 2.44049 28.0767C2.45173 28.098 2.45741 28.2904 2.45306 28.504C2.44875 28.7178 2.44873 29.1921 2.45308 29.558C2.45741 29.924 2.45415 30.335 2.44586 30.4715C2.43758 30.608 2.42805 30.7753 2.42471 30.8432C2.42127 30.9126 2.39588 30.9852 2.36683 31.0089C2.29765 31.0651 2.08658 31.0306 2.0827 30.9625C2.08041 30.9223 2.10698 30.9143 2.19633 30.9283C2.28116 30.9416 2.31886 30.9318 2.33473 30.8923C2.34669 30.8625 2.34686 30.6655 2.3351 30.4545C2.31389 30.0744 2.14786 29.1099 2.02128 28.6314C1.86267 28.0319 1.65069 27.0588 1.67172 27.0268C1.68053 27.0134 1.67561 26.9844 1.66081 26.9624C1.64597 26.9404 1.62212 26.8415 1.60773 26.7427C1.59337 26.6439 1.57448 26.5495 1.56576 26.533C1.55704 26.5165 1.53039 26.377 1.50652 26.2229C1.48265 26.0689 1.40647 25.634 1.33722 25.2564C1.26797 24.8788 1.21275 24.5567 1.21454 24.5405C1.21632 24.5243 1.20521 24.4519 1.18982 24.3795C1.17446 24.3071 1.15713 24.2225 1.15134 24.1915C1.14554 24.1604 1.12954 24.0843 1.11581 24.0223C1.10206 23.9603 1.07911 23.8161 1.0648 23.7018C1.05049 23.5875 1.02918 23.4518 1.01745 23.4001C0.965155 23.1699 0.91156 22.8278 0.924678 22.8078C0.932585 22.7957 0.926569 22.7588 0.91128 22.7258C0.896017 22.6928 0.871834 22.5807 0.857576 22.4768C0.843287 22.3728 0.82355 22.2626 0.813691 22.232C0.803803 22.2013 0.783371 22.0656 0.768239 21.9305C0.753107 21.7953 0.722402 21.595 0.700045 21.4854C0.677658 21.3757 0.645052 21.1721 0.627579 21.0329C0.610103 20.8937 0.58837 20.7204 0.579272 20.6477C0.570173 20.5749 0.552158 20.4732 0.53922 20.4217C0.526254 20.3701 0.497359 20.2005 0.474974 20.0448C0.452588 19.8892 0.420016 19.6685 0.402561 19.5544C0.385134 19.4403 0.364413 19.2574 0.356551 19.148C0.348688 19.0386 0.332494 18.9496 0.32053 18.9503C0.308565 18.951 0.295633 18.8875 0.29174 18.8093C0.285156 18.6763 0.274593 18.5882 0.21022 18.1291C0.196381 18.0305 0.170004 17.7815 0.151561 17.5758C0.133143 17.37 0.110754 17.193 0.101833 17.1823C0.0764899 17.1518 -0.00691415 15.5828 0.0167189 15.5813C0.0282827 15.5805 0.0300154 15.4134 0.0205239 15.2101C0.0110584 15.0067 0.00534058 14.6262 0.00785342 14.3645C0.0103382 14.1028 0.00815464 13.8204 0.00301186 13.737C-0.002159 13.6536 -0.000524004 13.4566 0.00663403 13.2992C0.0137921 13.1419 0.0153347 12.8251 0.0100523 12.5952C-0.0117934 11.6428 0.034064 10.8265 0.135519 10.3623C0.151723 10.2882 0.170271 10.1972 0.176759 10.1602C0.191065 10.0784 0.245196 10.0677 0.249641 10.1458Z" fill="#597230"/>
</svg>
