<svg width="48" height="35" viewBox="0 0 48 35" fill="none" xmlns="http://www.w3.org/2000/svg">
<path fill-rule="evenodd" clip-rule="evenodd" d="M14.1141 9.92513C13.6836 9.7711 12.9512 9.55977 12.6828 9.51213C12.6132 9.49975 12.4385 9.4632 12.2947 9.43086C11.9132 9.34511 10.8297 9.18585 10.6873 9.19457C10.62 9.19873 10.5256 9.18956 10.4773 9.17417C10.4291 9.15883 10.3725 9.15085 10.3515 9.15639C10.3306 9.162 10.2108 9.1519 10.0852 9.13393C9.95974 9.11599 9.77514 9.10395 9.67508 9.10721C9.57496 9.11044 9.45387 9.11437 9.23228 9.10932C9.01073 9.10434 8.68186 9.10971 8.67525 9.12783C8.66862 9.14598 8.63312 9.14644 8.5963 9.12886C8.51257 9.08887 6.93782 9.26845 6.91895 9.32017C6.91132 9.34106 6.84601 9.35368 6.77381 9.34825C6.7016 9.34282 6.63692 9.35372 6.63009 9.37245C6.62325 9.39117 6.54532 9.41769 6.45687 9.43127C6.14343 9.47959 5.41567 9.72044 5.40675 9.7789C5.40376 9.79816 5.37393 9.81245 5.34039 9.81065C5.08925 9.79732 3.47645 10.6527 3.52696 10.7725C3.53797 10.7984 3.52414 10.8088 3.49623 10.7955C3.40882 10.7538 2.53997 11.5654 2.38788 11.831C2.3617 11.8767 2.2518 12.024 2.14365 12.1584C1.862 12.5086 1.43093 13.3754 1.12398 14.209C0.863486 14.9166 0.558918 15.9559 0.554209 16.1534C0.552873 16.2088 0.521104 16.3744 0.483624 16.5215C0.412392 16.8007 0.37578 17.0067 0.354898 17.2463C0.348087 17.3245 0.33385 17.4128 0.323235 17.4426C0.306391 17.4901 0.250145 17.8238 0.184644 18.2646C0.173354 18.3406 0.166513 18.4515 0.169402 18.5111C0.172347 18.5706 0.161794 18.6373 0.14597 18.6592C0.130159 18.6811 0.112419 18.8058 0.106567 18.9364C0.100672 19.067 0.0871224 19.2362 0.0763489 19.3125C0.0408637 19.5651 -0.00851149 20.5595 0.00720131 20.7059C0.0156992 20.785 0.0158154 20.8992 0.00747242 20.9598C-0.00475203 21.0483 -0.00185445 21.4531 0.0149869 22.0322C0.0274782 22.4607 0.0462344 22.6682 0.0773856 22.7215C0.0979713 22.7567 0.0990926 22.7874 0.0798255 22.7898C0.0605584 22.7921 0.0515535 22.8527 0.0597855 22.9244C0.0680175 22.996 0.0952892 23.2643 0.1204 23.5205C0.145453 23.7767 0.17949 24.0499 0.195993 24.1276C0.212496 24.2053 0.239584 24.38 0.256104 24.5158C0.333751 25.1536 0.595021 26.2006 0.799274 26.6925C1.01278 27.2068 1.92981 28.7832 2.04846 28.8399C2.05892 28.8448 2.15691 28.9678 2.26623 29.113C2.37555 29.2583 2.48686 29.3876 2.51356 29.4003C2.54033 29.4131 2.62663 29.4947 2.70547 29.5817C2.82247 29.7109 2.93031 29.7786 3.29392 29.9511C3.74831 30.1666 4.18859 30.2909 4.21748 30.2117C4.22585 30.1888 4.19496 30.1618 4.14879 30.1517C3.96886 30.1126 3.38841 29.8687 3.20802 29.7565C2.84646 29.5316 2.42858 28.8101 2.26855 28.1343C2.19661 27.8306 2.17523 27.1147 2.22491 26.672C2.23421 26.5892 2.22016 26.5111 2.19374 26.4985C2.16726 26.4859 2.16923 26.4585 2.19801 26.4377C2.22681 26.4168 2.239 26.3322 2.22513 26.2497C2.21128 26.1672 2.20569 26.0454 2.21268 25.9789C2.21967 25.9125 2.22888 25.5648 2.23308 25.2062C2.24334 24.3289 2.27994 23.3363 2.31661 22.9412C2.33309 22.7629 2.34826 22.5228 2.35023 22.4074C2.35221 22.292 2.37212 22.1039 2.39447 21.9892C2.41684 21.8746 2.427 21.7617 2.41718 21.7383C2.40734 21.715 2.41087 21.6194 2.42498 21.5258C2.4676 21.2441 2.54853 20.5639 2.55263 20.4529C2.55479 20.3957 2.59173 20.2046 2.63471 20.0281C2.67768 19.8515 2.70719 19.6936 2.7002 19.6771C2.68714 19.6462 2.70876 19.5305 2.88138 18.7067C2.88138 18.7067 1.45736 18.6093 1.73228 16.1093C2.0072 13.6093 2.29173 13.1584 4.79173 12.1584C10.0072 11.255 10.295 11.4503 10.295 11.4503L10.295 11.4348C10.8795 11.4303 11.0582 11.4456 11.9627 11.5775C12.3325 11.6315 12.6603 11.6676 12.6912 11.6578C12.722 11.648 12.7434 11.6516 12.7388 11.6658C12.7342 11.68 12.8494 11.7189 12.995 11.7521C14.1984 12.0273 14.9076 12.3805 15.7643 13.1313C16.1758 13.492 16.7329 14.1214 16.9668 14.4898C17.2339 14.9108 17.5564 15.5532 17.7911 16.1324C17.9167 16.4421 18.0369 16.7102 18.0582 16.7281C18.0794 16.7461 18.0923 16.7734 18.0866 16.7889C18.081 16.8043 18.1971 17.2246 18.3447 17.7227C18.4923 18.2209 18.625 18.7056 18.6396 18.7997C18.6542 18.894 18.6883 18.9816 18.7154 18.9946C18.7425 19.0075 18.7464 19.0252 18.7241 19.034C18.7018 19.0427 18.7079 19.1361 18.7378 19.2414C18.7929 19.4356 18.949 20.3392 18.9344 20.3792C18.9301 20.3912 18.94 20.461 18.9565 20.5343C18.973 20.6077 18.9868 20.6774 18.9872 20.6892C18.9876 20.701 18.99 20.8163 18.9925 20.9455C18.9949 21.0746 19.01 21.2055 19.0259 21.2363C19.0418 21.2672 19.0467 21.3665 19.0368 21.457C19.0269 21.5475 19.0268 21.7188 19.0366 21.8375C19.0561 22.0745 19.0557 22.4062 19.0358 22.5944C19.0287 22.6608 19.0147 22.9015 19.0046 23.1293C18.9802 23.6792 18.942 24.1931 18.9077 24.4364C18.8778 24.6475 18.8958 24.9711 18.9523 25.2402C18.9713 25.3306 18.985 25.4959 18.9828 25.6074C18.9796 25.7736 19.1457 26.2681 19.1765 26.1838C19.1814 26.1702 19.2414 26.2347 19.3097 26.327C19.4311 26.4912 19.4469 26.5005 20.0168 26.7456C20.4453 26.9298 20.6235 26.9899 20.6892 26.9723C20.7383 26.9591 20.8827 26.9307 21.0099 26.9093C21.297 26.8607 21.6247 26.6827 21.6736 26.5488C21.7033 26.4672 21.8326 26.4393 22.3496 26.4024C22.7012 26.3774 23.2424 26.3709 23.5521 26.3879C24.2634 26.4273 26.0683 26.6841 26.4195 26.796C26.4596 26.8088 26.6256 26.8531 26.7882 26.8945C27.3289 27.032 27.8225 27.2309 28.0032 27.384C28.1824 27.5359 28.3329 27.706 28.3198 27.7419C28.3151 27.7548 28.3723 27.8895 28.4471 28.0412C28.5218 28.193 28.5711 28.3115 28.5567 28.3046C28.5423 28.2977 28.5472 28.3652 28.5676 28.4544C28.6149 28.6615 28.6127 29.3578 28.564 29.5558C28.5436 29.639 28.3695 30.1839 28.1771 30.7666C27.9848 31.3494 27.8223 31.8808 27.8161 31.9476C27.7349 32.822 27.3162 33.9493 26.9817 34.1941C26.8767 34.2709 26.7841 34.3521 26.7759 34.3744C26.7642 34.4064 26.5287 34.5587 26.2635 34.7058C26.2466 34.7152 26.2631 34.7373 26.3001 34.755C26.3693 34.7881 26.633 34.7486 26.654 34.7021C26.6605 34.6878 26.785 34.6403 26.9308 34.5966C27.0766 34.5529 27.2025 34.4988 27.2107 34.4765C27.2189 34.4541 27.2466 34.4458 27.2724 34.4581C27.2981 34.4704 27.3822 34.4487 27.4592 34.4099C27.5362 34.371 27.6699 34.3112 27.7563 34.2769C27.8427 34.2425 27.9759 34.1885 28.0524 34.1568C28.1289 34.125 28.4032 34.0134 28.662 33.9086C28.9207 33.8039 29.1275 33.7084 29.1215 33.6965C29.1154 33.6846 29.1387 33.6767 29.1734 33.679C29.3645 33.6917 30.3399 33.1992 30.3019 33.1092C30.291 33.0831 30.3042 33.0725 30.3314 33.0854C30.3959 33.1162 30.645 32.9129 30.8801 32.6375C31.1328 32.3414 31.6351 30.9568 31.6542 30.5037C31.6614 30.3322 31.6756 30.1293 31.6857 30.0528C31.7275 29.7367 31.612 28.9897 31.4529 28.5459C31.2906 28.0933 31.0877 27.6954 31.0163 27.6897C30.98 27.6868 30.9725 27.6758 30.9998 27.6651C31.0698 27.6376 30.4894 26.8459 30.3937 26.8384C30.349 26.8348 30.338 26.8241 30.3675 26.8125C30.4201 26.7919 29.7869 26.1854 29.6391 26.1148C29.5933 26.093 29.4782 26.0047 29.3834 25.9187C29.245 25.7932 29.0687 25.6949 28.4922 25.4216C27.7597 25.0744 27.4562 24.9696 26.4854 24.7293C25.7071 24.5366 25.5241 24.499 25.5129 24.5298C25.5065 24.5473 25.4584 24.5411 25.406 24.5161C25.1623 24.3996 22.8081 24.1743 22.2721 24.2161C22.1861 24.2227 22.1159 24.2202 22.1159 24.2103C22.1161 24.1599 22.1383 23.5834 22.1469 23.4036C22.1523 23.2899 22.1471 22.9734 22.1353 22.7002C22.1235 22.4271 22.1146 22.1564 22.1155 22.0987C22.1184 21.9212 22.0853 21.6848 22.0484 21.6186C22.0291 21.584 22.029 21.5538 22.0482 21.5515C22.1002 21.5451 21.8095 19.779 21.7033 19.4563C21.6881 19.41 21.6258 19.158 21.5649 18.8964C21.5041 18.6347 21.4279 18.378 21.3957 18.3258C21.3635 18.2737 21.3462 18.2062 21.3573 18.1757C21.3684 18.1453 21.3363 18.0463 21.2859 17.9557C21.2354 17.8651 21.2047 17.7955 21.2174 17.8009C21.267 17.8225 21.2144 17.6082 21.1641 17.5841C21.1346 17.5701 21.1194 17.5341 21.1303 17.5043C21.1647 17.4099 20.5292 15.7975 20.4254 15.7159C20.4003 15.6961 20.3861 15.6625 20.3939 15.6412C20.4092 15.5993 20.0367 14.8758 19.8242 14.5346C19.3612 13.7913 18.8617 13.177 18.163 12.4918C17.0051 11.356 15.5692 10.4458 14.1141 9.92513ZM46.7596 0.109319C46.7486 0.16933 46.7289 0.49193 46.7158 0.826298C46.6747 1.87847 46.5219 3.48752 46.375 4.41584C46.2972 4.90776 45.9992 6.53666 45.7128 8.03559C45.4264 9.53452 45.1766 10.898 45.1578 11.0656C45.1389 11.2331 45.0664 11.7232 44.9966 12.1547C44.9268 12.5862 44.8358 13.233 44.7942 13.5921C44.6903 14.4903 44.6745 14.6076 44.4761 15.9437C44.38 16.5907 44.2861 17.2376 44.2672 17.3813C44.1569 18.2235 43.224 23.2657 42.1125 29.0263C41.8671 30.2979 41.6741 31.387 41.6836 31.4463C41.6931 31.5057 41.7335 31.5532 41.7733 31.552C41.883 31.5488 42.1397 31.2774 42.1677 31.135C42.188 31.0316 42.1611 31.0373 42.0167 31.1667C41.92 31.2533 41.834 31.3053 41.8254 31.2823C41.8032 31.2225 42.2003 29.8904 42.3609 29.486C42.5883 28.9134 42.7608 28.4498 42.7976 28.3119C42.8169 28.2398 42.8659 28.1017 42.9066 28.005C42.9474 27.9084 43.1401 27.4538 43.335 26.9947C43.8136 25.8675 44.1829 24.8923 44.1681 24.7949C44.1614 24.7509 44.1817 24.7141 44.2131 24.7131C44.2446 24.7122 44.2692 24.6541 44.2679 24.5842C44.2665 24.5142 44.2865 24.4374 44.3123 24.4134C44.338 24.3895 44.4326 24.1414 44.5223 23.8622C44.6121 23.5829 44.7566 23.1377 44.8434 22.8727C44.9302 22.6077 45.0601 22.1549 45.1321 21.8665C45.204 21.5781 45.2953 21.2436 45.3348 21.1231C45.3742 21.0027 45.4822 20.557 45.5747 20.1328C45.6671 19.7085 45.7601 19.3382 45.7813 19.3097C45.8389 19.2326 46.541 15.6221 46.4982 15.6234C46.478 15.624 46.5405 15.222 46.637 14.7301C46.8775 13.505 47.0167 12.4594 47.1558 10.8327C47.2175 10.1119 47.2624 8.33132 47.228 7.97746C47.2159 7.85325 47.2178 7.69079 47.2323 7.61637C47.2468 7.54203 47.2458 7.44447 47.2302 7.39956C47.2146 7.35474 47.1922 6.89642 47.1805 6.38122C47.1688 5.86594 47.1401 5.39323 47.1169 5.33077C47.0937 5.26822 47.088 5.19934 47.1042 5.17751C47.1204 5.15578 47.1186 4.9367 47.1001 4.69063C47.0817 4.44464 47.0743 4.20387 47.0838 4.15561C47.0933 4.10736 47.0776 4.06861 47.0491 4.06946C47.0206 4.07031 47.0165 4.03512 47.0401 3.99122C47.0637 3.94732 47.0663 3.64466 47.0458 3.31875C47.0253 2.99275 47.0109 2.68695 47.0139 2.63915C47.0169 2.59135 46.9911 2.12368 46.9567 1.59987C46.9222 1.07607 46.8848 0.501864 46.8735 0.32376C46.853 0.00288029 46.7982 -0.100456 46.7596 0.109319Z" fill="#597230"/>
</svg>
