<svg width="31" height="52" viewBox="0 0 31 52" fill="none" xmlns="http://www.w3.org/2000/svg">
<path fill-rule="evenodd" clip-rule="evenodd" d="M30.0784 4.84367C30.0162 4.88394 29.8112 4.98939 29.623 5.07798C29.4347 5.16656 29.0813 5.33643 28.8377 5.45546C28.5942 5.5745 28.3313 5.70215 28.2536 5.73914C27.7635 5.97245 27.3488 6.20529 27.3661 6.23746C27.3771 6.25813 27.3676 6.2574 27.345 6.23586C27.3215 6.21353 27.058 6.35049 26.7318 6.55469C26.4172 6.7516 26.1197 6.93424 26.0707 6.96051C25.6741 7.17338 24.1381 8.27522 24.1685 8.32506C24.179 8.34233 24.1666 8.35086 24.1409 8.34398C24.1001 8.33304 23.8188 8.54241 23.2485 9.00826C23.1591 9.08127 23.0794 9.16405 23.0714 9.19218C23.0634 9.22035 23.0394 9.23868 23.018 9.23297C22.9739 9.22114 22.6994 9.46062 22.6993 9.51112C22.6991 9.52929 22.6816 9.53944 22.6603 9.53373C22.6389 9.528 22.5674 9.57327 22.5014 9.63438C22.4354 9.69548 22.2403 9.87274 22.0679 10.0282C21.8955 10.1838 21.7515 10.3221 21.7479 10.3357C21.7443 10.3492 21.7069 10.3823 21.6649 10.4093C21.6228 10.4363 21.5176 10.5287 21.431 10.6146C21.3445 10.7004 21.1017 10.9375 20.8915 11.1414C20.6812 11.3452 20.498 11.5341 20.4843 11.5611C20.4706 11.5881 20.4427 11.6165 20.4223 11.6241C20.3775 11.641 19.6471 12.4039 19.0471 13.0606C18.8069 13.3235 18.4238 13.7429 18.1957 13.9926C17.9677 14.2424 17.7887 14.4702 17.7979 14.4988C17.808 14.5298 17.7978 14.5336 17.7729 14.5082C17.7499 14.4847 17.725 14.4878 17.7177 14.515C17.7104 14.5423 17.5744 14.7046 17.4156 14.8758C17.2567 15.047 17.112 15.2186 17.094 15.257C17.076 15.2955 17.0454 15.333 17.0259 15.3404C16.9482 15.37 16.5772 15.8478 16.592 15.8994C16.6006 15.9297 16.5952 15.936 16.5799 15.9134C16.5492 15.868 16.0303 16.4833 16.0494 16.5424C16.056 16.5628 16.0431 16.5745 16.0208 16.5685C15.9984 16.5625 15.9614 16.5873 15.9386 16.6236C15.9157 16.6598 15.7534 16.8687 15.5778 17.0876C15.4023 17.3065 15.2528 17.5078 15.2455 17.5349C15.2383 17.5619 15.1911 17.6291 15.1408 17.6842C14.9302 17.9147 14.8268 18.0646 14.842 18.1176C14.8509 18.1486 14.8457 18.1555 14.8305 18.1331C14.8153 18.1106 14.757 18.1545 14.701 18.2306C14.4147 18.6196 13.179 20.4324 13.1434 20.5157C13.1207 20.5687 13.0855 20.6274 13.0651 20.6461C13.0326 20.676 12.5516 21.4673 12.3393 21.8398C12.2974 21.9135 12.2065 22.0676 12.1372 22.1823C12.0164 22.3827 11.8495 22.6817 11.4418 23.4282C11.3379 23.6185 11.2027 23.8599 11.1415 23.9647C9.90193 26.087 8.90047 29.0539 8.88293 30.6561C8.87849 31.0597 9.07118 31.6397 9.1884 31.5756C9.22071 31.558 9.2015 31.4724 9.1366 31.3444C9.06861 31.2104 9.02854 31.0224 9.01891 30.7922C9.00369 30.428 9.12021 29.5499 9.24947 29.0545C9.45437 28.2695 10.039 26.9276 10.5819 25.9962C10.6736 25.839 10.8086 25.6074 10.8821 25.4817C11.1794 24.9729 11.9107 23.9105 12.3292 23.3796C12.5737 23.0694 12.8346 22.7377 12.909 22.6425C12.9834 22.5473 13.0301 22.4653 13.0127 22.4603C12.9954 22.4553 13.0051 22.443 13.0343 22.433C13.0634 22.423 13.1854 22.2924 13.3054 22.1428C13.4254 21.9931 13.7141 21.6342 13.9471 21.3452C14.1801 21.0562 14.4211 20.7539 14.4827 20.6734C14.5443 20.593 14.6506 20.4628 14.7189 20.3842C14.7872 20.3055 15.124 19.8941 15.4673 19.47C15.8106 19.0458 16.1931 18.5844 16.3172 18.4445C16.4414 18.3047 16.5372 18.1727 16.5303 18.1511C16.5233 18.1295 16.5357 18.1167 16.558 18.1226C16.5802 18.1286 16.6397 18.0801 16.6902 18.0148C16.7407 17.9496 16.8655 17.8019 16.9675 17.6867C17.0695 17.5715 17.1474 17.4602 17.1407 17.4394C17.134 17.4186 17.1456 17.3996 17.1666 17.3971C17.2391 17.3884 17.8818 16.6627 17.866 16.6074C17.8572 16.5769 17.8617 16.5689 17.8759 16.5898C17.9 16.625 18.3916 16.1294 18.4156 16.0458C18.4215 16.0251 18.4655 15.9841 18.5135 15.9547C18.5613 15.9253 18.6111 15.8776 18.624 15.8487C18.6369 15.8197 18.6643 15.7807 18.6849 15.762C18.7634 15.6907 19.0496 15.397 19.5021 14.9233C19.9916 14.4108 20.2723 14.1209 20.7046 13.681C21.3896 12.9842 21.809 12.5412 22.5847 11.6949C23.4766 10.7218 24.6184 9.44981 24.6262 9.42049C24.6397 9.3702 25.4746 8.49092 25.9878 7.98656C26.1204 7.85633 26.2304 7.74361 26.2324 7.73613C26.2345 7.72861 26.373 7.59933 26.5404 7.44878C26.7078 7.29822 26.8492 7.15818 26.8548 7.13762C26.8603 7.11702 26.8915 7.0977 26.924 7.09466C26.9566 7.09162 27.1158 6.97851 27.2779 6.84324C27.5751 6.59529 28.3407 6.02896 28.4098 6.00605C28.4302 5.99924 28.5276 5.9368 28.6262 5.86727C28.8466 5.71173 29.6092 5.24791 29.9934 5.03559C30.1499 4.94908 30.2831 4.85943 30.2893 4.83633C30.3088 4.76359 30.196 4.76752 30.0784 4.84367ZM0.000454246 0.0292183C-0.00512049 0.0500235 0.0479656 0.267539 0.118411 0.512533C0.312382 1.18698 0.369542 1.39766 0.477086 1.83504C0.531306 2.05559 0.594 2.29053 0.616435 2.35713C0.63887 2.42374 0.654753 2.5034 0.651822 2.53417C0.64889 2.56493 0.668122 2.64941 0.694528 2.72189C0.720978 2.79437 0.742354 2.86351 0.74204 2.87555C0.739905 2.96162 0.837546 3.37924 0.87789 3.45642C0.905227 3.5087 0.919493 3.55769 0.909599 3.56531C0.899705 3.57293 0.917753 3.70953 0.949703 3.8689C1.06899 4.46397 1.22884 5.46143 1.32401 6.20446C1.35459 6.44291 1.39297 6.711 1.40939 6.80023C1.42577 6.88945 1.43074 6.97725 1.42041 6.99529C1.41007 7.01336 1.41684 7.11433 1.4355 7.21967C1.45415 7.32506 1.4867 7.64393 1.50783 7.92833C1.52895 8.21273 1.55663 8.5077 1.56931 8.58381C1.58199 8.65992 1.59254 8.80571 1.59282 8.90776C1.59306 9.0098 1.60913 9.10947 1.62854 9.12926C1.64796 9.14901 1.65391 9.20234 1.64175 9.24769C1.62233 9.32018 1.64283 9.53967 1.70453 9.92008C1.71481 9.98343 1.72165 10.0608 1.71974 10.0921C1.7115 10.2275 1.78944 10.8476 1.81735 10.8684C1.83424 10.881 1.84009 10.9211 1.83033 10.9575C1.81233 11.0247 1.87772 11.6115 1.99595 12.444C2.03173 12.696 2.07241 12.9944 2.08635 13.1072C2.18288 13.8886 2.45556 15.7477 2.47961 15.7884C2.49575 15.8158 2.50192 15.867 2.49335 15.9023C2.48478 15.9376 2.49536 16.0505 2.51694 16.1532C2.53852 16.2559 2.55259 16.3559 2.54827 16.3753C2.54394 16.3947 2.551 16.4759 2.56397 16.5558C2.60874 16.8311 2.6564 17.1618 2.73656 17.7545C2.78084 18.0814 2.83099 18.432 2.84809 18.5335C2.86514 18.635 2.9134 18.9653 2.95525 19.2673C2.99714 19.5694 3.03972 19.8287 3.04988 19.8435C3.06008 19.8584 3.06698 19.8999 3.06518 19.9358C3.06079 20.0237 3.13291 20.571 3.16453 20.6895C3.17845 20.7417 3.18812 20.7939 3.18604 20.8055C3.17073 20.89 3.2425 21.4816 3.26896 21.4887C3.28728 21.4936 3.29105 21.5396 3.27732 21.5908C3.2636 21.642 3.27269 21.7634 3.2975 21.8606C3.32233 21.9578 3.33264 22.0346 3.32045 22.0314C3.30821 22.0281 3.31059 22.1031 3.32576 22.198C3.34092 22.293 3.34963 22.4193 3.34517 22.4787C3.34067 22.5381 3.34324 22.7073 3.35084 22.8548C3.36338 23.0987 3.37166 23.4487 3.37925 24.0522C3.38188 24.2628 3.37415 24.5832 3.36071 24.8185C3.35733 24.8782 3.34767 25.1037 3.3393 25.3195C3.32182 25.7708 3.27296 26.4109 3.23715 26.6583C3.18596 27.0121 3.15373 27.6215 3.16355 28.0488C3.17489 28.5413 3.13236 29.2893 3.06744 29.7383C3.02407 30.0386 3.04632 30.1007 3.18065 30.0545C3.2381 30.0347 3.24505 30.0195 3.20869 29.9929C3.14377 29.9454 3.23428 29.6204 3.41008 29.2698C3.48729 29.1158 3.58298 28.9192 3.62273 28.8329C3.66244 28.7466 3.78493 28.5351 3.89489 28.363C4.00486 28.1908 4.09141 28.0219 4.08724 27.9877C4.08311 27.9534 4.0984 27.9242 4.12129 27.9227C4.14415 27.9212 4.26734 27.6604 4.39502 27.3432C4.66075 26.683 4.93498 25.5675 4.99474 24.9038C5.0022 24.8209 5.02888 24.6488 5.05403 24.5211C5.07921 24.3935 5.10108 24.2011 5.10261 24.0935C5.10414 23.9859 5.11663 23.8215 5.13035 23.7282C5.14403 23.6349 5.15829 23.4305 5.16204 23.274C5.16578 23.1174 5.1731 22.812 5.17833 22.5953C5.19313 21.9828 5.09318 20.2598 5.02776 19.9989C5.01471 19.947 5.00722 19.8691 5.01108 19.8258C5.0149 19.7826 5.00564 19.7008 4.99049 19.6441C4.97531 19.5873 4.96594 19.5064 4.96968 19.4644C4.97342 19.4223 4.96293 19.3104 4.9464 19.2158C4.92987 19.1211 4.91783 19.0151 4.91969 18.9803C4.92155 18.9454 4.91255 18.8438 4.89978 18.7546C4.87508 18.5823 4.86391 18.4923 4.77796 17.7726C4.74804 17.5222 4.71036 17.3072 4.69425 17.2947C4.6781 17.2822 4.67859 17.2598 4.69529 17.2447C4.72198 17.2206 4.70421 17.0441 4.63585 16.6548C4.6247 16.5913 4.61743 16.5108 4.61972 16.4761C4.62201 16.4413 4.61239 16.3396 4.59833 16.25C4.58428 16.1604 4.53025 15.7286 4.4782 15.2905C4.34503 14.169 4.07222 12.1317 4.01374 11.8217C3.98671 11.6784 3.9658 11.5358 3.96726 11.5046C3.96873 11.4735 3.95125 11.3951 3.92841 11.3305C3.90554 11.2659 3.89189 11.1942 3.89804 11.1712C3.91239 11.1177 3.58597 9.60474 3.47868 9.22763C3.43392 9.07021 3.36358 8.80704 3.32239 8.64287C3.28116 8.47864 3.22357 8.30169 3.19432 8.24965C3.16507 8.19762 3.15247 8.14885 3.16627 8.14131C3.18011 8.13378 3.16807 8.09627 3.13962 8.05797C3.11117 8.01968 3.09303 7.96912 3.09935 7.94556C3.10991 7.90612 2.31591 5.69727 1.98169 4.83629C1.78063 4.31828 1.49924 3.59995 1.38447 3.31175C1.33133 3.17822 1.24526 2.95632 1.19325 2.81855C1.14123 2.68082 1.03125 2.41236 0.948891 2.22199C0.866523 2.03167 0.801706 1.86618 0.804901 1.85426C0.808096 1.84234 0.797095 1.80497 0.780403 1.77124C0.763711 1.7375 0.712213 1.6204 0.665895 1.51104C0.619577 1.40168 0.571873 1.28974 0.559885 1.26225C0.547885 1.23479 0.4845 1.06908 0.419066 0.893998C0.142493 0.154051 0.0828874 0.0107191 0.0477172 0.00129524C0.0272874 -0.0041789 0.00604 0.00837203 0.000454246 0.0292183ZM27.371 26.2112C27.1626 26.2959 26.7381 26.4648 26.4277 26.5864C25.9048 26.7915 23.9134 27.7742 23.8944 27.8367C23.8897 27.8519 23.5681 28.0437 23.1796 28.2629C22.7912 28.482 22.4696 28.6753 22.4651 28.6922C22.4605 28.7092 22.3628 28.7775 22.2478 28.8441C21.8811 29.0565 21.1365 29.6174 20.4652 30.1868C19.7056 30.8312 19.6873 30.8472 19.582 30.9638C19.5378 31.0125 19.4731 31.0606 19.4382 31.0707C19.4032 31.0807 19.3703 31.1047 19.3651 31.124C19.36 31.1433 19.2322 31.2709 19.0813 31.4073C18.9304 31.5438 18.8026 31.6719 18.7972 31.6921C18.7918 31.7123 18.7382 31.7683 18.6781 31.8165C18.4863 31.9706 17.8385 32.656 17.8748 32.6664C17.894 32.6719 17.8835 32.6841 17.8514 32.6935C17.7748 32.7158 17.3398 33.1658 17.3187 33.2445C17.3097 33.2781 17.2863 33.3013 17.2666 33.296C17.2273 33.2855 16.9027 33.6414 16.9176 33.6787C16.9227 33.6915 16.9051 33.7082 16.8785 33.7159C16.8519 33.7236 16.6172 33.9703 16.3568 34.2641C16.0965 34.5579 15.855 34.8262 15.8204 34.8603C15.7857 34.8944 15.7651 34.9465 15.7747 34.9761C15.7853 35.0087 15.7756 35.013 15.7502 34.9871C15.7272 34.9637 15.7035 34.9624 15.6977 34.9842C15.6918 35.0061 15.5569 35.1744 15.3979 35.3582C15.2389 35.5421 15.0659 35.7504 15.0136 35.8212C14.9612 35.892 14.819 36.065 14.6975 36.2056C14.576 36.3463 14.4613 36.494 14.4425 36.5339C14.4237 36.5738 14.3941 36.6126 14.3767 36.6201C14.3456 36.6333 13.4104 37.8299 13.3677 37.911C13.3468 37.9506 13.299 38.0154 13.0808 38.3C12.7588 38.7198 12.6815 38.8272 12.6695 38.872C12.6622 38.8994 12.6129 38.969 12.5599 39.0265C12.507 39.0841 12.4473 39.1653 12.4273 39.2071C12.4073 39.2488 12.3449 39.3401 12.2887 39.4098C12.2325 39.4796 12.1039 39.6633 12.0029 39.818C11.9019 39.9727 11.7743 40.1575 11.7193 40.2286C11.6643 40.2997 11.6065 40.3834 11.5908 40.4145C11.5751 40.4457 11.5235 40.5202 11.4759 40.5802C11.4285 40.6402 11.3747 40.725 11.3564 40.7685C11.3381 40.8121 11.2768 40.9047 11.22 40.9744C11.0819 41.1439 10.8781 41.4503 10.8179 41.5789C10.791 41.6362 10.7407 41.7121 10.7061 41.7476C10.6715 41.783 10.5867 41.9058 10.5176 42.0204C10.4484 42.135 10.3127 42.3563 10.216 42.5122C9.96233 42.9207 9.40246 43.8916 9.22552 44.2299C8.8608 44.9271 8.61096 45.428 8.5179 45.6488C8.46279 45.7795 8.41276 45.895 8.40672 45.9055C8.31626 46.062 8.04296 46.7579 7.74891 47.5801C7.64215 47.8787 7.40357 48.5386 7.21877 49.0466C6.38186 51.3469 6.82039 50.3794 6.77732 50.9946C6.73147 51.6486 6.43638 50.4803 6.81853 50.5754C6.58034 50.4447 6.77732 50.9946 6.77732 50.9946C6.71749 50.8065 7.00072 49.8483 7.21877 49.0466C7.38159 48.4479 6.65289 51.3459 6.77732 51.0972C6.87123 50.9095 6.94128 50.7349 6.93295 50.7093C6.92468 50.6836 6.93844 50.6681 6.96352 50.6748C6.98861 50.6816 7.02263 50.6368 7.03909 50.5754C7.08472 50.4051 7.55523 49.4884 8.01911 48.6661C8.16756 48.4029 8.32093 48.1251 8.35993 48.0489C8.39893 47.9727 8.44848 47.8943 8.4701 47.8748C8.49172 47.8553 8.56408 47.7473 8.63094 47.6349C9.12505 46.8037 9.96949 45.4486 10.3225 44.9204C10.453 44.7251 10.5696 44.5379 10.5817 44.5043C10.5937 44.4708 10.6245 44.4245 10.65 44.4015C10.6756 44.3785 10.6851 44.3566 10.6712 44.3528C10.6574 44.3491 10.6949 44.2947 10.7545 44.2319C10.8141 44.1691 10.8929 44.0663 10.9297 44.0035C10.9665 43.9406 11.0992 43.7481 11.2247 43.5757C11.3502 43.4033 11.4571 43.2535 11.4623 43.2427C11.4675 43.232 11.5139 43.1706 11.5654 43.1063C11.6168 43.0419 11.6731 42.9579 11.6904 42.9195C11.7077 42.881 11.74 42.8335 11.7621 42.8137C11.8544 42.7312 12.2352 42.1761 12.2184 42.1484C12.2083 42.1319 12.2196 42.1236 12.2434 42.13C12.2673 42.1364 12.3327 42.0696 12.3888 41.9816C12.4449 41.8936 12.5325 41.7733 12.5835 41.7143C12.666 41.6186 13.4075 40.6696 13.7365 40.2384C14.006 39.8853 14.5362 39.2255 14.7502 38.977C14.8738 38.8334 14.9812 38.6927 14.9888 38.6641C14.9965 38.6356 15.024 38.5992 15.0501 38.5831C15.0762 38.5671 15.2004 38.4228 15.326 38.2626C15.4517 38.1024 15.5767 37.9558 15.6037 37.937C15.6308 37.918 15.6683 37.8684 15.687 37.8266C15.7056 37.7848 15.7666 37.714 15.8224 37.6693C15.8783 37.6245 15.9281 37.5724 15.9332 37.5534C15.9383 37.5344 16.0219 37.4274 16.1189 37.3155C16.6698 36.6809 16.946 36.3707 17.4701 35.7985C17.79 35.4492 18.0583 35.1393 18.0661 35.1099C18.074 35.0805 18.0978 35.0611 18.1189 35.0668C18.14 35.0724 18.2065 35.0159 18.2667 34.9411C18.3269 34.8664 18.4854 34.6956 18.6189 34.5617C18.7525 34.4279 18.9846 34.1926 19.1349 34.039C19.2851 33.8853 19.9073 33.2845 20.5175 32.7038C21.1276 32.1231 21.6328 31.626 21.64 31.5992C21.6472 31.5724 21.6861 31.5373 21.7265 31.5212C21.7669 31.5051 21.8844 31.4055 21.9875 31.2998C22.0907 31.1942 22.2455 31.0374 22.3317 30.9514C22.8042 30.4798 23.0497 30.2232 23.8418 29.3729C24.3207 28.8589 24.7348 28.4255 24.7622 28.4098C24.7896 28.3942 24.8209 28.348 24.8318 28.3073C24.8427 28.2666 24.8681 28.2377 24.8882 28.2431C24.9083 28.2485 24.9826 28.1845 25.0533 28.101C25.124 28.0175 25.2886 27.8584 25.4191 27.7473C25.5496 27.6364 25.6846 27.5204 25.7191 27.4898C26.1236 27.1303 26.797 26.6835 27.4847 26.3181C27.6657 26.2219 27.8177 26.1288 27.8224 26.1111C27.8414 26.0401 27.7327 26.0643 27.371 26.2112Z" fill="#597230"/>
</svg>
