<svg width="32" height="49" viewBox="0 0 32 49" fill="none" xmlns="http://www.w3.org/2000/svg">
<path fill-rule="evenodd" clip-rule="evenodd" d="M0.529166 45.2738C0.531311 45.2639 0.513644 45.1516 0.489914 45.0244C0.425456 44.6788 0.422641 44.2805 0.480834 43.7423C0.53182 43.2704 0.715247 42.0719 0.864143 41.2373C0.946897 40.7736 1.06477 40.0025 1.08048 39.8222C1.08604 39.7582 1.10993 39.5767 1.13352 39.4188C1.15711 39.261 1.16983 39.1215 1.16177 39.1089C1.15375 39.0964 1.16373 39.0008 1.18403 38.8965C1.2043 38.7922 1.23401 38.5409 1.25004 38.3379C1.26608 38.135 1.28341 37.9432 1.28853 37.9117C1.29365 37.8803 1.29238 37.8356 1.28573 37.8124C1.27907 37.7893 1.28535 37.7022 1.29971 37.6189C1.32255 37.4863 1.32952 37.3891 1.34164 37.0345C1.34309 36.9914 1.35047 36.8972 1.35797 36.8253C1.36551 36.7533 1.37463 36.6131 1.37827 36.5137C1.38195 36.4143 1.38863 36.2893 1.39318 36.236C1.43143 35.7868 1.4464 35.418 1.42659 35.4138C1.41346 35.411 1.4153 35.3924 1.43071 35.3725C1.44612 35.3526 1.46463 35.2099 1.47181 35.0555C1.49247 34.6118 1.56998 33.3772 1.58114 33.3142C1.59254 33.2497 1.63715 32.5879 1.65984 32.1463C1.66812 31.9852 1.67826 31.8274 1.68236 31.7957C1.68873 31.7467 1.70551 31.4668 1.70575 31.4058C1.7058 31.3949 1.71236 31.3075 1.72036 31.2114C1.75138 30.8376 1.83372 29.3276 1.87144 28.4399C1.88013 28.2354 1.89242 27.9537 1.89876 27.8138C1.90511 27.674 1.90897 27.4971 1.90738 27.4208C1.90577 27.3444 1.90983 27.2299 1.91635 27.1663C1.92287 27.1027 1.9281 26.9617 1.92793 26.8529C1.92752 26.577 1.93461 26.2815 1.9447 26.1552C1.9494 26.0965 1.9408 26.0458 1.92556 26.0425C1.91035 26.0393 1.90963 26.0215 1.92394 26.003C1.93825 25.9845 1.94925 25.8758 1.94839 25.7614C1.94753 25.647 1.94749 25.447 1.94832 25.3168C1.94912 25.1867 1.94664 24.9818 1.94276 24.8615C1.93202 24.527 1.93976 23.8108 1.96282 23.0098C2.01527 21.1865 2.02571 20.75 2.0245 20.4329C2.02404 20.3223 2.03076 20.1993 2.0394 20.1596C2.04804 20.1199 2.05535 19.9543 2.05566 19.7914C2.05599 19.6286 2.0571 19.3889 2.05816 19.2589C2.06099 18.911 1.99176 18.5142 1.92579 18.5001C1.89174 18.4929 1.89347 18.5781 1.93052 18.729C2.00448 19.0308 1.9706 19.7547 1.80285 21.4554C1.7514 21.9773 1.58259 23.4705 1.49771 24.1548C1.48984 24.2182 1.45376 24.4149 1.41755 24.5918C1.35822 24.8817 1.27344 25.4494 1.25174 25.7017C1.24716 25.7551 1.22248 25.9364 1.19689 26.1047C1.17126 26.273 1.12944 26.6018 1.10396 26.8352C1.07845 27.0687 1.04274 27.3933 1.02461 27.5565C1.00648 27.7197 0.989482 27.8849 0.986806 27.9236C0.984139 27.9623 0.957532 28.1842 0.927718 28.4168C0.897875 28.6494 0.869675 28.9399 0.865074 29.0624C0.860451 29.1849 0.849692 29.2911 0.841163 29.2983C0.82833 29.3091 0.79387 29.5976 0.762006 29.9611C0.758268 30.0038 0.743577 30.1339 0.729314 30.2503C0.702825 30.4669 0.659029 30.888 0.644939 31.0617C0.640597 31.115 0.619413 31.3149 0.597842 31.5058C0.547313 31.9533 0.544575 31.9815 0.536341 32.1443C0.532514 32.2195 0.52069 32.3147 0.510049 32.3558C0.492713 32.4228 0.467782 32.6851 0.453018 32.9558C0.450109 33.0095 0.435541 33.1426 0.420701 33.2516C0.405854 33.3607 0.384661 33.5872 0.373621 33.755C0.362574 33.9228 0.348789 34.0857 0.342995 34.1171C0.33092 34.1826 0.294986 34.5614 0.289653 34.6797C0.287662 34.7235 0.27448 34.8584 0.260307 34.9795C0.246163 35.1006 0.242936 35.2015 0.253145 35.2037C0.263355 35.2058 0.259188 35.2716 0.24385 35.3498C0.228491 35.4279 0.215694 35.5363 0.215359 35.5905C0.215024 35.6447 0.201422 35.784 0.18517 35.9C0.168888 36.016 0.156597 36.1467 0.157833 36.1904C0.160658 36.289 0.157075 36.3416 0.132755 36.5602C0.116001 36.7108 0.0936955 37.0366 0.0874746 37.2219C0.086361 37.2542 0.0804318 37.3329 0.0742554 37.3968C0.0681082 37.4606 0.0614402 37.5658 0.0594471 37.6305C0.0574832 37.6953 0.0555474 37.7571 0.0551762 37.7678C0.0547758 37.7786 0.0483844 37.8661 0.0409482 37.9623C0.0335411 38.0584 0.0236641 38.314 0.0190486 38.5302C0.0144038 38.7464 0.00904778 38.9496 0.00708583 38.9818C-0.00212911 39.1347 -0.00238804 39.5561 0.00673487 39.5934C0.0123583 39.6165 0.0144114 39.6616 0.0112793 39.6935C-0.00224357 39.8308 0.0217207 40.5285 0.0570289 41.0261C0.0679802 41.1805 0.0843986 41.4538 0.0935121 41.6335C0.102617 41.8133 0.115695 41.9938 0.122627 42.0346C0.134501 42.105 0.140759 42.2186 0.182744 43.126C0.21335 43.7874 0.251009 44.3039 0.271809 44.3473C0.282884 44.3703 0.287487 44.4098 0.282046 44.435C0.270486 44.4885 0.386144 45.0601 0.425711 45.1451C0.440521 45.177 0.449253 45.2188 0.445092 45.2381C0.440923 45.2574 0.45726 45.2773 0.481394 45.2825C0.505528 45.2876 0.527028 45.2837 0.529166 45.2738ZM16.632 35.5002C16.5383 35.4275 16.4542 35.3567 16.4451 35.3428C16.436 35.3288 16.3512 35.2515 16.2566 35.1709C16.0564 35.0004 16.0143 34.9584 15.6394 34.555C15.3775 34.2732 14.9796 33.751 14.7908 33.4413C14.7458 33.3674 14.639 33.197 14.5535 33.0626C14.3498 32.7423 14.3677 32.7712 14.2083 32.5069C14.1318 32.3803 14.0705 32.2586 14.072 32.2364C14.0735 32.2143 14.0611 32.1953 14.0443 32.1942C14.0276 32.1931 13.9545 32.0792 13.882 31.9412C13.8094 31.8032 13.6462 31.5091 13.5194 31.2876C13.3926 31.0661 13.2804 30.8582 13.2699 30.8255C13.2595 30.7929 13.232 30.7388 13.2089 30.7052C13.1858 30.6717 13.1632 30.6194 13.1586 30.5889C13.1541 30.5585 13.1248 30.5007 13.0934 30.4605C13.0474 30.4016 12.8697 30.0435 12.6189 29.5039C12.3201 28.8613 12.2134 28.6077 12.231 28.5817C12.2427 28.5643 12.2368 28.549 12.2178 28.5477C12.1877 28.5457 11.3388 26.3996 11.3431 26.3365C11.344 26.3233 11.302 26.194 11.2498 26.049C11.1976 25.904 11.13 25.714 11.0996 25.6268C11.0693 25.5396 10.9949 25.3288 10.9343 25.1583C10.8737 24.9879 10.8347 24.8328 10.8476 24.8137C10.8605 24.7947 10.8577 24.7782 10.8415 24.7771C10.8252 24.776 10.7936 24.7173 10.7713 24.6465C10.7488 24.5758 10.7034 24.4421 10.6702 24.3494C10.637 24.2568 10.6072 24.159 10.6041 24.1321C10.601 24.1052 10.5505 23.9493 10.4919 23.7857C10.4333 23.6221 10.335 23.3193 10.2735 23.1129C10.212 22.9064 10.149 22.7067 10.1337 22.669C10.0768 22.5296 9.60311 20.8962 9.41479 20.1903C9.30782 19.7892 9.19746 19.3811 9.16957 19.2834C9.14168 19.1857 9.04544 18.7873 8.95572 18.398C8.866 18.0087 8.78091 17.6546 8.76666 17.611C8.75241 17.5675 8.73659 17.488 8.73154 17.4345C8.72645 17.3809 8.70005 17.2684 8.67289 17.1844C8.6457 17.1004 8.63308 17.0228 8.64485 17.0119C8.65659 17.001 8.64962 16.9675 8.62938 16.9376C8.60911 16.9077 8.60468 16.884 8.61953 16.885C8.63439 16.886 8.63141 16.864 8.61289 16.8362C8.5944 16.8083 8.52197 16.5029 8.4519 16.1576C8.38187 15.8122 8.28724 15.3603 8.24167 15.1534C8.19614 14.9464 8.15658 14.7347 8.15377 14.6829C8.151 14.6311 8.13267 14.5357 8.11307 14.4708C8.09346 14.4059 8.06238 14.247 8.04395 14.1177C8.02557 13.9885 7.99249 13.79 7.97046 13.6767C7.94844 13.5635 7.93764 13.4713 7.94652 13.4719C7.95536 13.4725 7.94679 13.4354 7.92739 13.3893C7.88231 13.2821 7.66105 11.9338 7.68491 11.9116C7.69482 11.9024 7.68955 11.875 7.6733 11.8506C7.64465 11.8078 7.61265 11.5759 7.61352 11.4173C7.61373 11.3747 7.60407 11.3305 7.59208 11.319C7.56592 11.2941 7.53739 11.0348 7.54204 10.8645C7.54387 10.7976 7.53494 10.7486 7.52214 10.7558C7.50938 10.763 7.4947 10.6863 7.48952 10.5854C7.48431 10.4844 7.47508 10.3667 7.46898 10.3237C7.42787 10.0342 7.41158 9.88647 7.41518 9.83625C7.41749 9.80448 7.41326 9.73453 7.40582 9.6808C7.3775 9.47668 7.34746 9.14705 7.34009 8.9603C7.33589 8.85358 7.32804 8.72241 7.32266 8.66883C7.30802 8.523 7.28404 8.02009 7.27918 7.75634C7.27683 7.62846 7.26899 7.37538 7.26176 7.19394C7.25454 7.01251 7.25455 6.76868 7.2618 6.65209C7.26905 6.53551 7.27272 6.35288 7.26997 6.24626C7.26121 5.9067 7.32016 4.10143 7.34101 4.07057C7.35206 4.05426 7.37595 3.86028 7.39408 3.63951C7.43312 3.16484 7.51435 2.65216 7.60912 2.28288C7.64669 2.13643 7.71752 1.83645 7.76648 1.61627C8.07755 0.2175 8.18264 -0.0644185 8.36486 0.0112379C8.45018 0.0466592 8.66735 0.315858 8.68941 0.41354C8.72096 0.553204 8.65987 0.526551 8.51614 0.337987C8.43647 0.233516 8.35398 0.146855 8.33278 0.145411C8.21081 0.137101 8.14018 0.845672 8.17606 1.71806C8.19221 2.11104 8.2118 2.44547 8.21957 2.46125C8.22734 2.47699 8.23984 2.65742 8.2473 2.86217C8.25479 3.06692 8.26552 3.27448 8.27114 3.3234C8.2768 3.37236 8.28786 3.56958 8.2957 3.7617C8.31043 4.12153 8.33079 4.51215 8.39067 5.58724C8.40972 5.92913 8.45539 6.57666 8.49215 7.02619C8.52891 7.47572 8.56285 7.89604 8.56754 7.96022C8.57223 8.0244 8.60802 8.33163 8.64706 8.64295C8.6861 8.95427 8.71663 9.23502 8.71487 9.26683C8.71169 9.32463 8.73119 9.48082 8.74167 9.48153C8.74884 9.48202 8.75251 9.50522 8.84096 10.1076C8.9475 10.833 9.12687 11.8584 9.21281 12.2331C9.22901 12.3037 9.2444 12.4005 9.24708 12.4483C9.24972 12.4961 9.26803 12.5885 9.28773 12.6537C9.30742 12.7189 9.33527 12.8515 9.34968 12.9482C9.36406 13.045 9.38596 13.151 9.39833 13.1838C9.4107 13.2165 9.45353 13.4198 9.49349 13.6354C9.53345 13.8509 9.58403 14.0895 9.60594 14.1655C9.62781 14.2415 9.6976 14.5424 9.76102 14.8341C9.92103 15.5698 10.0611 16.1812 10.1418 16.4955C10.1794 16.6419 10.2091 16.7658 10.2077 16.7709C10.2063 16.776 10.2193 16.8302 10.2366 16.8912C10.2538 16.9523 10.2667 17.0229 10.2651 17.048C10.2635 17.0731 10.2805 17.1385 10.3028 17.1932C10.3251 17.2479 10.3726 17.4253 10.4083 17.5874C10.444 17.7495 10.4985 17.9577 10.5294 18.05C10.5603 18.1424 10.5845 18.2348 10.5831 18.2555C10.5816 18.2763 10.5992 18.3516 10.6221 18.4231C10.6449 18.4946 10.6903 18.6506 10.7229 18.7699C10.7554 18.8892 10.8297 19.1514 10.8879 19.3526C10.9461 19.5538 10.9969 19.7489 11.0008 19.7861C11.0047 19.8233 11.0299 19.9162 11.0568 19.9925C11.0838 20.0689 11.1741 20.3624 11.2576 20.6448C11.496 21.4517 11.9617 22.8993 12.1777 23.5053C12.2344 23.6643 12.2802 23.8034 12.2794 23.8143C12.2774 23.8435 12.3736 24.1237 12.6522 24.9005C12.7265 25.1078 12.8652 25.5178 12.9603 25.8116C13.0554 26.1055 13.1511 26.3907 13.1728 26.4454C13.1946 26.5001 13.2698 26.7229 13.34 26.9406C13.4102 27.1582 13.4933 27.4119 13.5248 27.5043C13.5563 27.5967 13.581 27.6878 13.5797 27.7068C13.5784 27.7258 13.5983 27.7926 13.6239 27.8554C13.6495 27.9181 13.6688 27.9963 13.6667 28.0291C13.6646 28.062 13.6764 28.1063 13.6929 28.1277C13.7094 28.149 13.7582 28.2908 13.8013 28.4427C13.8444 28.5947 13.8984 28.7812 13.9214 28.8573C14.0083 29.1451 14.2883 30.1813 14.2943 30.2373C14.2978 30.2695 14.3233 30.3648 14.3512 30.4491C14.379 30.5335 14.4008 30.6153 14.3998 30.6311C14.3966 30.6777 14.6281 31.5018 14.7047 31.7167C14.7436 31.8258 14.7851 31.9592 14.7968 32.0132C14.8177 32.1087 14.959 32.5223 15.0948 32.885C15.1316 32.9833 15.237 33.2235 15.3289 33.4188C15.421 33.614 15.4958 33.7804 15.4952 33.7885C15.4935 33.8137 15.7249 34.215 15.8637 34.4275C16.0292 34.681 16.4338 35.1638 16.6396 35.3536C16.782 35.4848 16.8503 35.5879 16.8158 35.6199C16.8084 35.6267 16.7257 35.5729 16.632 35.5002ZM23.436 48.1086C23.4355 48.0749 23.4605 47.9987 23.4917 47.9393C23.5228 47.8798 23.5748 47.7582 23.6072 47.6691C23.6395 47.58 23.6729 47.4967 23.6814 47.4841C23.6899 47.4715 23.7396 47.3582 23.7919 47.2324C23.8442 47.1065 23.8971 46.9966 23.9093 46.9881C23.9216 46.9796 23.9312 46.9461 23.9307 46.9138C23.9302 46.8814 23.9484 46.8295 23.9711 46.7984C24.0066 46.75 24.085 46.5447 24.317 45.8923C24.4128 45.6233 24.4906 45.3909 24.5729 45.1291C24.6202 44.9784 24.6718 44.8139 24.6876 44.7637C24.7797 44.4703 25.0987 43.2061 25.0977 43.1388C25.0974 43.1225 25.1175 43.0296 25.1422 42.9323C25.167 42.8351 25.1895 42.7347 25.1923 42.709C25.2091 42.5524 25.3455 41.907 25.3662 41.886C25.38 41.872 25.3906 41.8213 25.3898 41.7733C25.3884 41.685 25.4687 41.2023 25.5336 40.909C25.553 40.8212 25.5744 40.6879 25.5811 40.6128C25.5877 40.5377 25.6078 40.4146 25.6257 40.3393C25.6436 40.264 25.66 40.1717 25.6624 40.1342C25.6672 40.0555 25.7392 39.633 25.8917 38.7895C25.9506 38.4635 26.0015 38.1763 26.0047 38.1512C26.0172 38.0549 26.1742 37.2348 26.1968 37.1481C26.2098 37.0979 26.2478 36.9029 26.2812 36.7149C26.3146 36.5268 26.3578 36.3216 26.3772 36.2588C26.3967 36.196 26.4122 36.1184 26.4118 36.0863C26.4114 36.0543 26.431 35.9517 26.4553 35.8583C26.4796 35.765 26.5035 35.6476 26.5082 35.5975C26.513 35.5475 26.5341 35.4346 26.5552 35.3468C26.5763 35.2589 26.6248 35.0434 26.663 34.8678C26.7012 34.6921 26.746 34.4971 26.7626 34.4343C26.7792 34.3716 26.7959 34.2903 26.7996 34.2538C26.806 34.1919 26.8451 34.023 26.9339 33.6747C26.954 33.5956 26.9702 33.5148 26.9699 33.4953C26.9696 33.4757 26.9917 33.3762 27.019 33.2741C27.0463 33.172 27.1265 32.8318 27.1973 32.5182C27.268 32.2046 27.3332 31.9376 27.3421 31.925C27.351 31.9123 27.3618 31.8712 27.366 31.8337C27.3764 31.7416 27.5028 31.1949 27.5402 31.0808C27.5566 31.0306 27.5714 30.9792 27.573 30.9667C27.5957 30.7932 27.6214 30.6932 27.6434 30.6928C27.6584 30.6926 27.6628 30.6734 27.6534 30.6502C27.644 30.6269 27.6601 30.5193 27.6893 30.4109C27.7185 30.3026 27.7721 30.0805 27.8085 29.9174C27.871 29.6376 28.0129 29.0457 28.0656 28.8451C28.0788 28.7949 28.1514 28.4869 28.2268 28.1607C28.3023 27.8345 28.3755 27.5479 28.3895 27.524C28.4035 27.5 28.4146 27.4509 28.414 27.4148C28.4134 27.3787 28.4535 27.1828 28.5031 26.9793C28.5875 26.6331 28.6803 26.2334 28.8536 25.4687C29.0127 24.7668 29.2528 23.5904 29.4401 22.5955C29.5487 22.0187 29.6594 21.434 29.6863 21.296C29.7131 21.1581 29.7659 20.8663 29.8036 20.6476C29.8413 20.4289 29.8842 20.2378 29.8988 20.2229C29.9135 20.2081 29.9246 20.1464 29.9237 20.0859C29.9219 19.975 30.036 19.3404 30.0863 19.1816C30.1012 19.1345 30.1171 19.0524 30.1216 18.9992C30.1319 18.8752 30.2045 18.4901 30.2539 18.2966C30.275 18.2141 30.2917 18.1147 30.2911 18.0755C30.2905 18.0364 30.307 17.9397 30.3279 17.8606C30.3487 17.7814 30.4016 17.5218 30.4455 17.2836C30.5788 16.5596 30.6714 16.1216 30.6944 16.1052C30.7065 16.0966 30.7103 16.0746 30.7028 16.0563C30.6863 16.0156 30.7747 15.51 30.8296 15.3313C30.8884 15.1399 30.9447 15.0813 31.072 15.0794C31.2697 15.0764 31.3825 15.3202 31.4641 15.9273C31.5327 16.4377 31.5202 16.9318 31.4128 17.9509C31.3539 18.5109 31.3364 18.6568 31.3283 18.6569C31.326 18.6569 31.3195 18.7285 31.3138 18.816C31.2951 19.1038 31.1202 20.2965 31.0943 20.3124C31.0804 20.321 31.0761 20.3456 31.0848 20.3671C31.098 20.3995 31.0717 20.6089 30.9822 21.1855C30.9764 21.2231 30.9594 21.3461 30.9446 21.4588C30.9297 21.5716 30.9014 21.7561 30.8816 21.869C30.8619 21.9818 30.814 22.2792 30.7753 22.5298C30.7366 22.7805 30.6976 23.0061 30.6887 23.0312C30.6798 23.0564 30.6701 23.1077 30.6672 23.1452C30.6606 23.2313 30.5922 23.6381 30.5293 23.9657C30.5028 24.1036 30.4746 24.2689 30.4665 24.333C30.4585 24.3971 30.4314 24.5305 30.4065 24.6294C30.3814 24.7284 30.3585 24.8401 30.3554 24.8776C30.3523 24.9152 30.3372 25.0075 30.3217 25.0827C30.3062 25.158 30.2506 25.435 30.1982 25.6984C30.1457 25.9618 30.0786 26.2901 30.0491 26.4281C30.0196 26.5661 29.9801 26.7508 29.9614 26.8386C29.8978 27.1371 29.807 27.5452 29.7738 27.6826C29.7556 27.7579 29.7021 27.9939 29.655 28.2072C29.6079 28.4205 29.558 28.6146 29.5441 28.6385C29.5303 28.6625 29.5194 28.7122 29.52 28.749C29.5214 28.8321 29.3912 29.4004 29.3572 29.4597C29.3435 29.4837 29.3327 29.5319 29.3333 29.5669C29.3339 29.6018 29.318 29.6952 29.2981 29.7743C29.2781 29.8534 29.2365 30.031 29.2056 30.169C29.1747 30.307 29.135 30.4815 29.1175 30.5568C29.0999 30.6321 29.0652 30.7861 29.0404 30.899C29.0155 31.0119 28.8424 31.7715 28.6556 32.587C28.4688 33.4025 28.2862 34.2032 28.2497 34.3663C28.2132 34.5294 28.1725 34.7039 28.1592 34.7541C28.1459 34.8044 28.0797 35.0805 28.0121 35.3677C27.7908 36.3082 27.3811 37.8994 27.353 37.9281C27.3379 37.9434 27.3207 38.0017 27.3148 38.0574C27.309 38.1132 27.2669 38.2745 27.2213 38.4159C27.1757 38.5574 27.1389 38.6976 27.1393 38.7276C27.1398 38.7576 27.1229 38.8058 27.1017 38.8348C27.0805 38.8637 27.0567 38.946 27.0489 39.0175C27.0411 39.0891 27.0153 39.1796 26.9916 39.2187C26.9679 39.2578 26.9487 39.3168 26.9489 39.3499C26.949 39.3829 26.9249 39.4615 26.8952 39.5244C26.8655 39.5874 26.8414 39.6706 26.8417 39.7094C26.842 39.7481 26.8311 39.7995 26.8177 39.8234C26.8042 39.8474 26.7361 40.052 26.6664 40.2781C26.4736 40.9034 26.3418 41.2959 26.3035 41.3591C26.2845 41.3905 26.2692 41.4345 26.2696 41.457C26.27 41.4795 26.2088 41.6726 26.1338 41.8862C26.0587 42.0998 25.9974 42.2811 25.9975 42.2891C25.9982 42.3336 25.5671 43.5537 25.3919 44.0028C25.2791 44.2921 25.1434 44.6426 25.0904 44.7818C24.9413 45.1727 24.3247 46.513 24.1599 46.804C24.1356 46.847 24.1033 46.9092 24.0881 46.9424C24.073 46.9755 23.9665 47.1878 23.8515 47.4142C23.7365 47.6405 23.6075 47.9029 23.5649 47.9974C23.4848 48.1746 23.4377 48.2152 23.436 48.1086ZM22.8496 24.1143C22.8459 24.0831 22.8578 23.9899 22.8761 23.9072C22.9322 23.653 22.925 23.1019 22.8613 22.7827C22.6741 21.8441 22.3099 20.5036 21.9104 19.2825C21.7722 18.86 21.661 18.4969 21.6358 18.3854C21.621 18.3203 21.591 18.2166 21.5691 18.155C21.5472 18.0933 21.5216 17.9869 21.5122 17.9184C21.5027 17.85 21.4825 17.7954 21.4673 17.7972C21.4521 17.7989 21.435 17.7528 21.4292 17.6946C21.4189 17.5898 21.3976 17.5056 21.3267 17.2883C21.2837 17.1567 21.181 16.7578 21.1272 16.5139C21.1065 16.4201 21.0564 16.2071 21.0158 16.0406C20.9752 15.8741 20.9167 15.6096 20.8857 15.4528C20.8157 15.0984 20.7961 15.0121 20.7476 14.8464C20.7264 14.774 20.6811 14.5604 20.6471 14.3718C20.613 14.1832 20.5723 13.9779 20.5567 13.9155C20.5412 13.8531 20.471 13.5287 20.4008 13.1945C20.3307 12.8604 20.2573 12.5188 20.2377 12.4355C20.1504 12.0645 20.0387 11.5359 19.9808 11.2205C19.9463 11.032 19.9056 10.8267 19.8905 10.7642C19.8754 10.7018 19.8396 10.5227 19.8109 10.3662C19.7822 10.2098 19.7398 9.99591 19.7167 9.89096C19.458 8.71537 19.0891 6.13138 19.1785 6.1212C19.1987 6.11889 19.2026 6.1001 19.1871 6.07947C19.1717 6.0588 19.1553 5.86381 19.1509 5.64619C19.1464 5.42854 19.1241 4.94637 19.1013 4.57473C19.0785 4.20309 19.0634 3.78489 19.0677 3.6454C19.0719 3.50591 19.0763 3.33504 19.0774 3.26566C19.0786 3.19488 19.1079 3.11876 19.1441 3.09216C19.2305 3.02886 19.5038 3.04525 19.512 3.11422C19.5169 3.15489 19.483 3.16535 19.3674 3.159C19.2576 3.15296 19.2095 3.16624 19.1909 3.20778C19.1769 3.2392 19.186 3.4395 19.211 3.65295C19.2562 4.03743 19.5152 5.00331 19.7006 5.47851C19.9329 6.07397 20.2515 7.04446 20.226 7.07887C20.2152 7.09331 20.2229 7.12234 20.243 7.14342C20.2632 7.16449 20.2985 7.26288 20.3217 7.36203C20.3448 7.46123 20.3735 7.55547 20.3855 7.57148C20.3975 7.5875 20.4384 7.72698 20.4764 7.88149C20.5143 8.03596 20.6328 8.4714 20.7397 8.84913C20.8466 9.22682 20.9328 9.54944 20.9312 9.56606C20.9297 9.58264 20.9474 9.65532 20.9706 9.72752C20.9938 9.79973 21.0201 9.88422 21.029 9.91528C21.0379 9.94634 21.0621 10.0223 21.0827 10.0841C21.1033 10.1459 21.1396 10.2905 21.1634 10.4054C21.1872 10.5203 21.221 10.6565 21.2385 10.7079C21.3166 10.9373 21.4017 11.2804 21.3858 11.3019C21.3761 11.3149 21.3856 11.3518 21.4068 11.384C21.428 11.4162 21.4644 11.528 21.4877 11.6325C21.511 11.7369 21.5415 11.8472 21.5557 11.8775C21.5698 11.9078 21.6025 12.0439 21.6283 12.1799C21.6542 12.316 21.7031 12.5169 21.737 12.6264C21.771 12.7359 21.8225 12.94 21.8516 13.0799C21.8806 13.2199 21.9167 13.3942 21.9318 13.4673C21.947 13.5404 21.9749 13.6422 21.994 13.6935C22.0131 13.7448 22.0583 13.9146 22.0944 14.0709C22.1305 14.2272 22.1828 14.4487 22.2107 14.5631C22.2384 14.6776 22.2737 14.8616 22.289 14.9721C22.3042 15.0827 22.3293 15.1717 22.3446 15.1699C22.36 15.1682 22.3796 15.2316 22.3883 15.3108C22.403 15.4454 22.4208 15.534 22.5252 15.9951C22.5476 16.0941 22.5933 16.3449 22.6267 16.5524C22.6601 16.7599 22.6972 16.9379 22.7092 16.948C22.7433 16.9767 22.9243 18.5644 22.894 18.5681C22.8791 18.5699 22.8848 18.7398 22.9065 18.9457C22.9283 19.1517 22.9535 19.538 22.9626 19.8043C22.9717 20.0705 22.9878 20.3574 22.9983 20.4417C23.0089 20.5261 23.016 20.7265 23.0142 20.8871C23.0124 21.0477 23.0253 21.3699 23.0429 21.6031C23.1158 22.5694 23.0951 23.4032 22.9863 23.8841C22.969 23.9609 22.9494 24.055 22.9427 24.0932C22.9282 24.1776 22.859 24.1933 22.8496 24.1143Z" fill="#597230"/>
</svg>
