<svg width="42" height="25" viewBox="0 0 42 25" fill="none" xmlns="http://www.w3.org/2000/svg">
<path fill-rule="evenodd" clip-rule="evenodd" d="M26.2004 0.0459677C26.2196 0.0502633 26.3484 0.0461761 26.4868 0.0368688C27.443 -0.0274315 28.3923 -0.00721144 29.1808 0.0942946C29.963 0.194984 31.2638 0.495809 32.0273 0.752592C32.3327 0.855338 32.6663 0.981527 32.8164 1.05105C33.1412 1.2016 33.1621 1.21104 33.273 1.25839C33.5022 1.3561 34.0683 1.68772 34.0172 1.69428C33.9878 1.69807 34.0015 1.7047 34.0476 1.70903C34.1569 1.71928 34.5392 1.98066 34.4819 2.00591C34.4576 2.01656 34.4728 2.02102 34.5157 2.0158C34.6137 2.00387 35.6916 2.79345 36.1811 3.23571C36.2452 3.29366 36.3549 3.38791 36.4247 3.44516C36.9167 3.84822 37.5274 4.41071 37.495 4.43096C37.4735 4.44438 37.4867 4.4516 37.5242 4.44704C37.5617 4.44247 37.6066 4.46124 37.6239 4.4887C37.6509 4.53165 37.7457 4.62559 38.1231 4.98384C38.3641 5.21249 38.6981 5.58921 39.0703 6.05206C39.1425 6.1419 39.2422 6.26426 39.2918 6.32397C39.3928 6.44553 39.7727 7.02007 39.8552 7.17591C39.8846 7.23151 39.9636 7.37791 40.0309 7.50122C40.1744 7.76451 40.4151 8.28955 40.4652 8.44871C40.4845 8.51003 40.5113 8.58209 40.5248 8.60883C40.6171 8.79245 40.6647 8.91716 40.6495 8.93615C40.6397 8.94831 40.6646 9.01453 40.7047 9.08328C40.745 9.15201 40.784 9.26561 40.7915 9.33572C40.799 9.40582 40.8339 9.51069 40.8692 9.56876C40.9043 9.62686 40.9259 9.6834 40.9173 9.6944C40.9085 9.70544 40.9195 9.75528 40.9416 9.80519C40.9637 9.8551 40.993 9.95913 41.0064 10.0364C41.02 10.1136 41.0394 10.2027 41.0496 10.2344C41.1037 10.4022 41.1742 10.6544 41.2018 10.7777C41.2458 10.9752 41.2524 10.999 41.2919 11.1015C41.3239 11.1844 41.3572 11.4404 41.3735 11.7284C41.377 11.7889 41.3991 11.8471 41.4227 11.8576C41.5693 11.9234 41.3929 13.8793 41.2143 14.1679C41.154 14.2655 41.061 14.4651 41.0077 14.6115C40.8298 15.1002 40.4387 15.7859 40.1955 16.0356C39.9419 16.2959 39.5471 16.5073 39.1179 16.6125C38.8581 16.6762 38.6305 16.7046 38.6341 16.673C38.6357 16.6596 38.69 16.6423 38.7549 16.6344C39.1332 16.5883 39.6863 16.3184 39.8935 16.0788C40.1055 15.8337 40.177 15.3226 40.0547 14.9262C39.9948 14.7319 39.9317 14.5666 39.9145 14.559C39.8783 14.5427 39.7273 14.2879 39.6093 14.0438C39.4648 13.7451 39.2377 13.219 39.217 13.1352C39.206 13.0905 39.1545 12.9695 39.1027 12.8661C39.0509 12.7628 39.0278 12.6698 39.0514 12.6594C39.0749 12.649 39.0665 12.6321 39.0324 12.6219C38.9983 12.6117 38.9663 12.5608 38.9613 12.5088C38.9563 12.4568 38.9311 12.4061 38.9052 12.3961C38.8794 12.3861 38.8424 12.3261 38.8229 12.2627C38.8034 12.1993 38.7489 12.0735 38.7017 11.9831C38.6545 11.8927 38.6345 11.8071 38.6572 11.7929C38.68 11.7787 38.6667 11.7643 38.6279 11.7609C38.589 11.7575 38.5618 11.7305 38.5675 11.7008C38.5732 11.6712 38.5667 11.6322 38.5532 11.6141C38.4789 11.5149 38.3857 11.3271 38.4008 11.307C38.4105 11.2943 38.4001 11.2591 38.3779 11.229C38.3155 11.1441 38.2242 10.9433 38.0325 10.4701C37.9867 10.3573 37.9078 10.184 37.857 10.085C37.8061 9.98594 37.7265 9.82349 37.68 9.72395C37.6335 9.62441 37.5014 9.36304 37.3864 9.14315C37.2715 8.92323 37.1712 8.72027 37.1635 8.6921C37.1558 8.66392 37.1154 8.59816 37.0736 8.54598C37.0319 8.4938 37.016 8.43458 37.0383 8.41435C37.0607 8.39413 37.0523 8.37745 37.0197 8.37729C36.9871 8.37712 36.9462 8.33567 36.9289 8.28518C36.9114 8.2347 36.8545 8.14668 36.8023 8.08958C36.7501 8.03247 36.7132 7.97779 36.7203 7.96806C36.7273 7.95833 36.6963 7.90642 36.6514 7.85272C36.6064 7.79902 36.5342 7.70021 36.491 7.63314C36.3786 7.4588 36.1831 7.20197 36.0578 7.06422C35.9987 6.99909 35.9487 6.92178 35.9469 6.89242C35.945 6.86307 35.9191 6.84201 35.8893 6.84564C35.8595 6.84927 35.8367 6.83772 35.8387 6.81995C35.8444 6.77007 35.1856 6.07922 34.7537 5.68215C34.6785 5.61314 34.6149 5.53749 34.6123 5.51407C34.6097 5.49062 34.5818 5.47457 34.5505 5.47838C34.5192 5.48219 34.4949 5.47433 34.4964 5.46089C34.4979 5.44749 34.3945 5.34979 34.2665 5.2438C34.1386 5.13781 33.973 4.99936 33.8985 4.9361C33.824 4.87284 33.7082 4.78261 33.6412 4.73561C33.5742 4.68861 33.521 4.63499 33.5232 4.61649C33.5253 4.59796 33.5068 4.57836 33.4822 4.57289C33.3934 4.55318 33.1354 4.32718 33.1741 4.30299C33.1958 4.28939 33.1863 4.28158 33.1529 4.28565C33.0734 4.29532 32.9258 4.16886 32.9783 4.13602C33.0006 4.12209 32.9843 4.1149 32.9422 4.12002C32.9001 4.12514 32.8679 4.10969 32.8706 4.08569C32.8734 4.06169 32.8479 4.03519 32.8139 4.02685C32.78 4.01847 32.5399 3.84936 32.2805 3.65102C31.7697 3.26045 31.6674 3.1904 31.0803 2.82837C30.628 2.54944 30.3656 2.40848 29.9449 2.21827C29.7777 2.14265 29.6104 2.06567 29.5733 2.04721C29.4992 2.01026 28.6054 1.71826 28.439 1.67663C27.9112 1.54446 27.4588 1.44006 27.4295 1.44363C27.4099 1.44601 27.2977 1.43009 27.1802 1.40822C26.8409 1.34515 25.9793 1.30671 25.731 1.3436C25.4796 1.38096 25.0337 1.52639 24.4398 1.76471C23.9121 1.9765 23.9782 1.94715 23.5311 2.16795C22.4445 2.70444 21.2688 3.47742 20.2489 4.32585C20.036 4.50298 19.8446 4.65537 19.8238 4.66449C19.8029 4.6736 19.7741 4.69862 19.7599 4.72009C19.7456 4.74155 19.5687 4.9137 19.3667 5.10266C19.1647 5.29161 18.9643 5.48815 18.9212 5.53941C18.8782 5.59067 18.7984 5.67032 18.7439 5.71641C18.6893 5.7625 18.6057 5.84799 18.5582 5.90638C18.3876 6.1157 18.117 6.41162 18.0681 6.44219C18.0407 6.45932 18.011 6.49055 18.002 6.51158C17.9931 6.53263 17.9106 6.63431 17.8186 6.73756C17.7267 6.84079 17.4451 7.16018 17.1929 7.4473C16.9407 7.73442 16.711 7.98831 16.6824 8.01151C16.6191 8.06295 16.6242 8.05683 16.5402 8.18424C16.5024 8.24143 16.4453 8.30218 16.413 8.31925C16.3808 8.33632 16.3322 8.39066 16.3049 8.44C16.2776 8.48935 16.2111 8.56736 16.1572 8.61338C16.1032 8.6594 16.0477 8.71457 16.0338 8.736C16.008 8.77586 15.8668 8.93588 15.5846 9.24493C15.4969 9.34108 15.3926 9.45599 15.3529 9.50028C15.0465 9.8417 14.8202 10.0867 14.6937 10.2141C14.6119 10.2964 14.3189 10.601 14.0425 10.8911C13.7662 11.1811 13.5041 11.4497 13.46 11.4879C13.4159 11.5262 13.3687 11.575 13.3551 11.5963C13.2725 11.7265 12.3307 12.6034 12.0852 12.7787C12.0295 12.8185 11.8478 12.9645 11.6816 13.103C11.3364 13.3909 10.7517 13.8136 10.2905 14.1092C10.1891 14.1741 10.0696 14.2561 10.0249 14.2915C9.9295 14.367 9.40557 14.6896 9.33665 14.7154C9.3105 14.7251 9.24578 14.7653 9.19278 14.8046C9.13985 14.8439 8.95919 14.9574 8.79149 15.0567C8.62371 15.156 8.46159 15.2564 8.43124 15.2798C8.35988 15.3349 7.77039 15.7033 7.71853 15.7252C7.69664 15.7345 7.63206 15.7734 7.57496 15.8117C7.51786 15.8501 7.39998 15.929 7.31302 15.987C7.22607 16.0451 7.06788 16.1517 6.96149 16.2238C6.85509 16.2959 6.70424 16.3912 6.62634 16.4356C6.54844 16.48 6.48386 16.5233 6.48289 16.5318C6.48191 16.5404 6.35167 16.6264 6.19355 16.7229C6.03535 16.8195 6.0479 16.6048 5.85787 16.7233C9.07978 15.8936 6.02144 16.7047 6.02144 16.7047C6.00979 16.6812 6.12714 16.771 6.19355 16.7229C6.39409 16.5779 5.70481 16.8265 5.84701 16.6702C5.92101 16.5889 6.05295 16.4438 6.14012 16.3477C6.22736 16.2516 6.31858 16.1383 6.3429 16.0959C6.36715 16.0535 6.44313 15.9474 6.5116 15.8601C6.68191 15.6433 6.86223 15.3713 7.08922 14.9889C7.28485 14.6593 7.4258 14.4423 7.65422 14.1192C7.72537 14.0185 7.81784 13.8835 7.85957 13.8192C7.90138 13.755 7.97541 13.6665 8.02408 13.6226C8.07275 13.5787 8.13432 13.5013 8.16081 13.4506C8.20648 13.3632 8.32227 13.2202 8.42104 13.1293C8.44568 13.1065 8.47438 13.0708 8.4847 13.0498C8.51918 12.9797 8.78323 12.6967 9.64211 11.8091C10.9508 10.4567 11.0601 10.3408 12.2144 9.08125C12.3704 8.91105 12.724 8.51297 13.0001 8.19664C13.2762 7.88032 13.5313 7.59644 13.5668 7.56581C13.6023 7.53519 13.7142 7.4086 13.8155 7.2845C13.9168 7.16039 14.0511 7.00418 14.114 6.93735C14.1768 6.87053 14.4325 6.59196 14.6821 6.31831C15.251 5.6945 15.8441 5.09608 15.9336 5.05542C15.9712 5.03837 16.0042 5.0046 16.007 4.9804C16.0098 4.95623 16.0457 4.91366 16.0868 4.88582C16.1278 4.85799 16.2555 4.74847 16.3703 4.64244C17.0731 3.99381 18.7737 2.74851 19.2703 2.51884C19.3452 2.4842 19.4162 2.44393 19.428 2.42934C19.5055 2.33381 21.2818 1.40864 21.4306 1.38627C21.4615 1.38163 21.6281 1.31218 21.8008 1.23194C22.1222 1.08261 22.9815 0.750816 22.9785 0.777245C22.9775 0.785319 23.0479 0.762125 23.1348 0.725703C23.3718 0.626429 24.2839 0.377577 24.8062 0.269724C25.2949 0.1688 26.1421 0.0328403 26.2004 0.0459677ZM8.17447 0.0947855C8.01757 0.324783 7.81202 0.617339 7.71779 0.744815C7.62359 0.87232 7.57399 0.977258 7.60747 0.978104C7.64096 0.97895 7.63405 0.99091 7.5921 1.00468C7.51928 1.02862 8.27534 -0.524995 7.34102 0.711888C7.10749 1.02104 6.87455 1.31784 6.82332 1.3715C6.7721 1.42516 6.74215 1.48236 6.75674 1.49869C6.77129 1.515 6.75986 1.54118 6.73135 1.55675C6.62819 1.61321 6.45703 1.82311 5.8592 2.62645C5.52463 3.07609 5.22733 3.47063 5.19858 3.50322C5.0286 3.69597 4.14422 5.00323 3.76016 5.62955C3.42377 6.17819 2.64002 7.70493 2.69405 7.7063C2.7296 7.70716 2.72294 7.71964 2.67932 7.73396C2.6356 7.74829 2.52084 7.95204 2.42421 8.18672C2.32758 8.4214 2.19844 8.71343 2.1373 8.83566C2.0761 8.95793 1.97556 9.17635 1.9139 9.32105C1.85224 9.46576 1.74467 9.71759 1.67484 9.8807C1.12595 11.1632 0.897875 11.7649 0.662103 12.5531C0.585042 12.8106 0.511956 13.0387 0.499644 13.06C0.487333 13.0812 0.453152 13.1986 0.423656 13.3208C0.197636 14.2572 -0.0147737 15.5909 0.0504639 15.664C0.0708748 15.6869 0.0693033 15.7251 0.0470082 15.749C-0.110866 15.9181 0.156299 17.5345 0.438784 18.1194C0.480444 18.2056 1.43503 20.737 1.4966 20.9374C1.57523 21.1935 1.70676 21.4154 1.93963 21.6848C2.25727 22.0523 1.12858 24.1151 1.34043 24.0844C1.49382 24.0621 2.77868 21.9585 2.92837 21.8553C3.06748 21.7594 3.11894 21.706 3.07335 21.7049C3.03448 21.7039 2.95416 21.7468 2.89499 21.8003C2.83574 21.8537 2.79223 21.8773 2.79831 21.8526C2.80429 21.8279 2.76165 21.829 2.70347 21.855C2.64526 21.881 2.51501 21.8735 2.41399 21.8383C2.34221 22.7959 2.09249 21.7262 2.41399 21.8383C2.42453 21.6968 2.44171 17.1415 1.7107 17.1722C1.73342 16.8922 1.53436 15.8443 1.74327 15.2395C1.80277 15.0672 1.82672 14.9305 1.79657 14.9356C1.76635 14.9407 1.77023 14.9252 1.80522 14.9011C1.84014 14.8771 1.91122 14.7287 1.96314 14.5716C2.19649 13.8655 3.01326 11.7894 3.31104 11.1456C3.36305 11.0331 3.52166 10.6833 3.66354 10.3684C3.80542 10.0534 3.93135 9.77843 3.94347 9.7573C3.97143 9.70848 5.06851 7.45458 5.28462 7.00194C5.37392 6.81487 5.4782 6.60859 5.51637 6.54354C5.5545 6.47856 5.56167 6.42479 5.53229 6.42405C5.50284 6.42334 5.50667 6.40352 5.54063 6.38011C5.57466 6.35666 5.69475 6.1223 5.80752 5.85935C5.92035 5.59636 6.05304 5.29934 6.1024 5.19931C6.15182 5.09923 6.1787 5.00228 6.16224 4.98384C6.14576 4.96538 6.15663 4.93349 6.18639 4.91298C6.21615 4.89247 6.40239 4.4666 6.60032 3.96661C7.27915 2.25151 8.11455 0.555201 8.30054 0.224383C8.48649 -0.106375 13.0042 9.8592 13 9.84848C12.9787 9.7938 8.42836 -0.277362 8.17447 0.0947855Z" fill="#597230"/>
</svg>
