<svg width="49" height="21" viewBox="0 0 49 21" fill="none" xmlns="http://www.w3.org/2000/svg">
<path fill-rule="evenodd" clip-rule="evenodd" d="M10.621 0.158284C10.6067 0.167765 10.5073 0.197878 10.4002 0.225183C9.65979 0.41392 8.93259 0.687184 8.33636 1.00078C7.74485 1.31188 6.7736 1.96556 6.21095 2.43123C5.98587 2.61754 5.7413 2.83533 5.63244 2.94635C5.39686 3.18669 5.38174 3.20189 5.30088 3.27982C5.13394 3.44068 4.72975 3.93036 4.7696 3.92346C4.79253 3.91951 4.78266 3.92993 4.74761 3.94663C4.66461 3.9862 4.39515 4.35513 4.44156 4.36568C4.46118 4.37011 4.44988 4.37872 4.41645 4.3848C4.34007 4.39869 3.5852 5.49271 3.25015 6.07508C3.20626 6.15138 3.13074 6.27691 3.08239 6.35402C2.74181 6.89698 2.32474 7.63453 2.35151 7.64661C2.36921 7.65462 2.35978 7.6655 2.33058 7.67081C2.30132 7.67613 2.26861 7.70725 2.25784 7.73994C2.24104 7.79104 2.17696 7.91228 1.92016 8.37896C1.75624 8.67683 1.53449 9.15085 1.29147 9.72305C1.24429 9.83411 1.17903 9.98572 1.14647 10.06C1.08014 10.2111 0.841427 10.8996 0.79251 11.0808C0.775092 11.1455 0.727919 11.3162 0.687652 11.4601C0.601743 11.7675 0.465415 12.3683 0.441638 12.5443C0.432483 12.6121 0.418579 12.6929 0.410692 12.7239C0.35676 12.9361 0.331759 13.0763 0.34521 13.0917C0.353812 13.1015 0.340828 13.1758 0.31636 13.2568C0.291831 13.3377 0.272382 13.4642 0.273085 13.5379C0.273783 13.6116 0.256653 13.7281 0.234969 13.7968C0.213345 13.8656 0.201952 13.9291 0.209634 13.9381C0.217376 13.947 0.213548 14.0009 0.201184 14.0578C0.18882 14.1147 0.175974 14.2288 0.172761 14.3114C0.169491 14.394 0.162824 14.4902 0.1579 14.5253C0.131909 14.7113 0.101026 14.9879 0.0912685 15.1212C0.0757182 15.3348 0.0728474 15.361 0.0519863 15.4762C0.0351133 15.5695 0.0331789 15.84 0.0472605 16.1388C0.0501768 16.2016 0.0385902 16.2669 0.0214313 16.284C-0.0850907 16.3903 0.231212 18.3428 0.395078 18.5904C0.450471 18.674 0.540314 18.8533 0.594764 18.9888C0.776624 19.441 1.14039 20.038 1.35032 20.2285C1.56911 20.4272 1.89193 20.5382 2.23133 20.5315C2.43674 20.5275 2.61416 20.496 2.60845 20.4646C2.60604 20.4514 2.56271 20.4481 2.51209 20.4573C2.21733 20.5109 1.76755 20.3822 1.58622 20.1923C1.40074 19.9982 1.29859 19.4947 1.35584 19.0569C1.38392 18.8424 1.41711 18.6566 1.42958 18.6442C1.4559 18.6179 1.54833 18.3173 1.6164 18.0364C1.69975 17.6925 1.82554 17.0943 1.83366 17.0031C1.83798 16.9545 1.86631 16.817 1.89655 16.6976C1.92683 16.5782 1.93597 16.477 1.9169 16.4726C1.89782 16.4683 1.90278 16.4488 1.928 16.4293C1.95322 16.4097 1.97308 16.3492 1.97214 16.2947C1.9712 16.2402 1.98588 16.1817 2.00478 16.1646C2.02368 16.1475 2.0466 16.0762 2.05571 16.0063C2.06482 15.9363 2.09505 15.7931 2.12296 15.6882C2.15081 15.5832 2.15828 15.4904 2.1395 15.4819C2.12072 15.4735 2.12957 15.4552 2.15909 15.4414C2.18866 15.4275 2.20701 15.3927 2.19992 15.3639C2.19282 15.3351 2.19416 15.2935 2.20284 15.2714C2.25075 15.1503 2.30496 14.9334 2.29154 14.917C2.28294 14.9065 2.28762 14.8678 2.3019 14.8311C2.34198 14.7277 2.39358 14.4982 2.49706 13.9633C2.52175 13.8359 2.56637 13.6377 2.59623 13.5229C2.62614 13.4082 2.67228 13.2209 2.69881 13.1068C2.72529 12.9927 2.80262 12.6903 2.87055 12.4349C2.93848 12.1795 2.99676 11.9453 3.00006 11.9145C3.00336 11.8837 3.02831 11.8057 3.05561 11.7412C3.08285 11.6768 3.08959 11.612 3.07055 11.5973C3.05151 11.5825 3.05638 11.5633 3.08144 11.5544C3.10645 11.5456 3.13403 11.4923 3.14268 11.4361C3.15138 11.3798 3.18694 11.2747 3.22179 11.2024C3.25657 11.1302 3.27991 11.0644 3.27355 11.0564C3.26725 11.0483 3.28627 10.987 3.31581 10.9201C3.3454 10.8533 3.39168 10.7331 3.4187 10.653C3.48887 10.4449 3.61534 10.1303 3.6988 9.95612C3.73822 9.8738 3.76941 9.78147 3.76812 9.75097C3.76682 9.72047 3.78483 9.69203 3.80806 9.68781C3.83128 9.68359 3.84771 9.66572 3.8445 9.64809C3.83551 9.59862 4.27763 8.71706 4.57268 8.1962C4.624 8.10566 4.66585 8.01139 4.66574 7.98674C4.66556 7.96208 4.68546 7.93826 4.70987 7.93382C4.73427 7.92938 4.75224 7.91486 4.74982 7.90154C4.7474 7.88824 4.81782 7.76083 4.9063 7.61844C4.99472 7.47605 5.10916 7.29043 5.16054 7.20594C5.21191 7.12144 5.2925 6.9984 5.33962 6.93251C5.38675 6.86663 5.42259 6.79768 5.41926 6.77933C5.41592 6.76095 5.42828 6.736 5.44668 6.72386C5.51303 6.68009 5.6903 6.38039 5.65838 6.36595C5.64042 6.35783 5.64702 6.34732 5.67306 6.34258C5.73501 6.33132 5.83666 6.16275 5.79327 6.14317C5.77487 6.13486 5.78672 6.12316 5.81953 6.1172C5.85234 6.11123 5.87568 6.08687 5.87135 6.06306C5.86702 6.03925 5.88416 6.00538 5.9095 5.9878C5.93477 5.97021 6.10351 5.73345 6.2844 5.46166C6.64066 4.92643 6.71272 4.82762 7.13017 4.3013C7.45183 3.89576 7.64027 3.68185 7.94584 3.37545C8.06729 3.25364 8.1886 3.13044 8.21541 3.10169C8.26895 3.04418 8.92839 2.50784 9.05236 2.421C9.44558 2.14541 9.78333 1.91832 9.80616 1.91417C9.82143 1.91139 9.90615 1.86525 9.9944 1.81162C10.2492 1.65685 10.9074 1.38828 11.1015 1.35991C11.298 1.33122 11.654 1.36122 12.1321 1.44682C12.557 1.5229 12.5035 1.51049 12.8674 1.61722C13.7515 1.87653 14.726 2.35387 15.5878 2.94979C15.7677 3.07422 15.9288 3.17909 15.9456 3.18286C15.9625 3.18662 15.9869 3.20455 15.9999 3.22269C16.0128 3.24082 16.1646 3.36974 16.3372 3.50916C16.5098 3.64858 16.6819 3.79616 16.7197 3.83712C16.7575 3.87807 16.8262 3.93826 16.8723 3.97085C16.9185 4.00345 16.9906 4.0686 17.0325 4.11563C17.1829 4.28424 17.4181 4.51473 17.4584 4.53298C17.4811 4.5432 17.5068 4.56722 17.5156 4.58634C17.5244 4.60549 17.5972 4.68748 17.6774 4.76854C17.7575 4.84962 18.0033 5.10119 18.2236 5.3276C18.4439 5.55399 18.6438 5.75242 18.6678 5.76854C18.7212 5.80428 18.7168 5.79937 18.7931 5.90725C18.8273 5.95568 18.8769 6.00257 18.9032 6.01144C18.9295 6.02033 18.9719 6.06293 18.9974 6.10612C19.023 6.14929 19.0812 6.21137 19.1269 6.24405C19.1726 6.27674 19.2203 6.31837 19.233 6.33656C19.2565 6.37045 19.3798 6.49646 19.625 6.73732C19.7013 6.81226 19.7921 6.90197 19.8267 6.93667C20.0935 7.20419 20.29 7.39445 20.399 7.49098C20.4694 7.55332 20.7226 7.78678 20.9617 8.00976C21.2007 8.23274 21.4269 8.43758 21.4643 8.46494C21.5017 8.4923 21.5424 8.52961 21.5548 8.54785C21.6304 8.65893 22.4347 9.30475 22.6395 9.41864C22.686 9.4445 22.839 9.54537 22.9795 9.6428C23.2713 9.84514 23.7594 10.1218 24.141 10.3011C24.2249 10.3406 24.3242 10.3926 24.3618 10.4168C24.4421 10.4686 24.8743 10.6591 24.9297 10.6671C24.9506 10.6701 25.0041 10.6939 25.0484 10.72C25.0927 10.7461 25.2419 10.814 25.3799 10.8709C25.518 10.9278 25.6518 10.9873 25.6773 11.0032C25.7372 11.0405 26.224 11.2602 26.2658 11.2688C26.2835 11.2724 26.3367 11.295 26.3841 11.319C26.4315 11.343 26.5293 11.3923 26.6015 11.4285C26.6737 11.4648 26.805 11.5316 26.8934 11.577C26.9818 11.6225 27.1065 11.6798 27.1704 11.7044C27.2343 11.729 27.2879 11.7561 27.2895 11.7646C27.291 11.773 27.399 11.8263 27.5294 11.8829C27.6598 11.9396 27.6303 11.7234 27.7872 11.794C25.2359 11.8032 27.6599 11.8185 27.6599 11.8185C27.6666 11.7914 27.5848 11.9144 27.5294 11.8829C27.3619 11.788 27.9143 11.8587 27.7907 11.7369C27.7263 11.6734 27.6115 11.5601 27.5357 11.4851C27.4598 11.4101 27.3793 11.3185 27.3567 11.2816C27.3341 11.2447 27.266 11.1565 27.2053 11.0855C27.0545 10.9092 26.8908 10.6791 26.6811 10.3486C26.5004 10.0637 26.3721 9.87943 26.1667 9.60984C26.1028 9.52582 26.0193 9.41244 25.9813 9.35786C25.9432 9.30329 25.8782 9.23253 25.8368 9.20064C25.7953 9.16872 25.7409 9.10595 25.7158 9.06114C25.6727 8.98395 25.5705 8.86859 25.4863 8.80193C25.4652 8.78525 25.4399 8.75632 25.43 8.73762C25.3971 8.67517 25.1681 8.45607 24.4263 7.77729C23.2962 6.743 23.2015 6.65356 22.1985 5.67314C22.0629 5.54065 21.7545 5.22779 21.5132 4.97789C21.2719 4.72799 21.0498 4.50565 21.0196 4.4838C20.9895 4.46195 20.8919 4.36232 20.8026 4.26241C20.7133 4.16249 20.5957 4.03854 20.5412 3.98696C20.4868 3.93537 20.2647 3.71862 20.0476 3.50529C19.553 3.01898 19.0422 2.56505 18.9696 2.5473C18.9392 2.53986 18.9107 2.51414 18.9064 2.49014C18.902 2.46616 18.8705 2.43219 18.8363 2.41468C18.8022 2.39715 18.6941 2.31916 18.596 2.24133C17.9963 1.76526 16.575 0.944737 16.1724 0.842104C16.1117 0.826608 16.0534 0.804334 16.043 0.792562C15.9746 0.715535 14.5247 0.242432 14.4084 0.259163C14.3842 0.262639 14.2499 0.235965 14.1098 0.199898C13.8492 0.132757 13.1585 0.0222531 13.1632 0.0484663C13.1647 0.0564746 13.1085 0.0514842 13.0384 0.0373767C12.8472 -0.00105235 12.1237 -0.012738 11.7125 0.0160172C11.3278 0.0428749 10.6646 0.12934 10.621 0.158284ZM48.0103 6.93693C47.8234 7.03608 47.5821 7.16066 47.474 7.21374C47.366 7.26685 47.2942 7.31774 47.3144 7.32687C47.3346 7.336 47.3256 7.34147 47.2945 7.33904C47.2404 7.33483 46.803 7.53326 45.7425 8.04318C45.4774 8.17063 45.2176 8.29074 45.165 8.31011C45.1125 8.32948 45.0715 8.35647 45.074 8.37013C45.0765 8.38377 45.0592 8.39671 45.0356 8.39882C44.9501 8.40653 44.7624 8.48982 44.0791 8.82332C43.6967 9.01 43.3589 9.17284 43.3284 9.18521C43.1482 9.2584 42.0905 9.82385 41.608 10.105C41.1854 10.3512 40.1027 11.0757 40.1353 11.0904C40.1567 11.1001 40.1477 11.1059 40.1153 11.1034C40.0829 11.1008 39.9322 11.1949 39.7803 11.3124C39.6285 11.4299 39.4341 11.5738 39.3484 11.6322C39.2627 11.6906 39.1149 11.7972 39.02 11.8692C38.9251 11.9411 38.7598 12.0661 38.6527 12.1471C37.8102 12.7838 37.433 13.0902 36.9775 13.5076C36.8286 13.644 36.6938 13.7635 36.6779 13.7732C36.662 13.783 36.5947 13.8453 36.5284 13.9119C36.0203 14.4217 35.3638 15.176 35.3749 15.2371C35.3784 15.2563 35.3623 15.2791 35.3392 15.2878C35.1758 15.3498 34.7014 16.3989 34.6436 16.8263C34.635 16.8893 34.5942 17.0533 34.5528 17.1906C34.4999 17.3662 34.4928 17.5346 34.5291 17.7579C34.5786 18.0625 34.5868 18.0771 34.7287 18.1129C34.8314 18.1389 34.9351 18.1397 35.0675 18.1156C35.1905 18.0932 35.2431 18.0741 35.2157 18.0617C35.1922 18.0511 35.1261 18.0565 35.0688 18.0736C35.0114 18.0908 34.9754 18.0939 34.9889 18.0805C35.0023 18.0671 34.9757 18.0568 34.9298 18.0576C34.8839 18.0584 34.8071 18.0203 34.7591 17.973C34.6064 17.8223 34.7577 17.4216 35.1797 16.8592C35.242 16.7762 35.3496 16.6336 35.4187 16.5425C35.5432 16.3785 36.2126 15.7282 36.5794 15.4151C36.6838 15.3259 36.7524 15.2491 36.7319 15.2445C36.7114 15.2398 36.7199 15.2314 36.7509 15.2258C36.7817 15.2201 36.8838 15.1485 36.9776 15.0665C37.3993 14.6982 38.7191 13.6491 39.1556 13.3351C39.2319 13.2803 39.4671 13.1089 39.6783 12.9544C39.8895 12.7998 40.0752 12.6655 40.091 12.6558C40.1274 12.6333 41.689 11.5484 42.0001 11.3295C42.1286 11.239 42.2739 11.1407 42.323 11.111C42.372 11.0814 42.3976 11.0507 42.3799 11.0426C42.3621 11.0346 42.3723 11.0236 42.4023 11.0181C42.4324 11.0127 42.5985 10.9014 42.7713 10.7709C42.9443 10.6404 43.1428 10.4944 43.2125 10.4464C43.2823 10.3984 43.337 10.3465 43.3342 10.3311C43.3314 10.3157 43.3507 10.2991 43.377 10.2944C43.4033 10.2896 43.6855 10.0792 44.0041 9.8268C45.0969 8.96112 46.2781 8.14709 48.0364 7.04796C48.2809 6.89517 48.4879 6.76049 48.4964 6.74868C48.5399 6.68855 48.3127 6.77651 48.0103 6.93693Z" fill="#597230"/>
</svg>
