<svg width="50" height="40" viewBox="0 0 50 40" fill="none" xmlns="http://www.w3.org/2000/svg">
<path fill-rule="evenodd" clip-rule="evenodd" d="M10.1986 2.10034C9.74954 2.18807 9.00456 2.41174 8.7428 2.53738C8.67484 2.56997 8.50241 2.6436 8.35959 2.70092C7.98067 2.85312 6.93631 3.40889 6.81022 3.52538C6.75067 3.58048 6.6614 3.63585 6.61174 3.64844C6.56216 3.66108 6.50776 3.69058 6.49079 3.71399C6.47388 3.73746 6.36124 3.80992 6.24039 3.87503C6.1196 3.94015 5.94736 4.05697 5.85768 4.13463C5.76793 4.2123 5.52827 4.4019 5.32504 4.55591C5.12187 4.70999 4.95623 4.86178 4.95704 4.89315C4.95786 4.92459 4.92578 4.95114 4.88571 4.95218C4.79457 4.95454 3.43146 6.36491 3.43378 6.45449C3.43471 6.49066 3.38013 6.55675 3.31248 6.60138C3.24484 6.64602 3.19018 6.70911 3.19102 6.74154C3.19186 6.77398 3.13104 6.86962 3.05579 6.95397C2.7892 7.25312 2.21868 8.13635 2.23258 8.22856C2.23712 8.25897 2.2154 8.30166 2.18425 8.32344C1.95105 8.48685 0.807795 10.9158 0.898774 11.0545C0.918569 11.0846 0.909912 11.1099 0.879533 11.1107C0.784397 11.1132 0.300597 12.9361 0.262396 13.4362C0.255806 13.5222 0.21143 13.8183 0.163787 14.0942C0.0397381 14.8128 -0.0255828 16.3976 0.00939112 17.8434C0.0391371 19.0706 0.153686 20.8161 0.223767 21.1091C0.243412 21.1913 0.276902 21.4572 0.29821 21.7001C0.338627 22.1614 0.382913 22.4901 0.454149 22.8566C0.477389 22.9761 0.497721 23.1161 0.499305 23.1675C0.501864 23.2493 0.576413 23.7797 0.682845 24.4736C0.701209 24.5932 0.736756 24.7609 0.761795 24.846C0.786896 24.9312 0.802397 25.0366 0.796273 25.0803C0.790148 25.1239 0.820997 25.3197 0.864851 25.5154C0.908642 25.7111 0.96005 25.9691 0.978977 26.0888C1.04185 26.485 1.37138 27.9789 1.44075 28.182C1.47825 28.2918 1.52137 28.4592 1.53659 28.5541C1.55882 28.6928 1.71383 29.2841 1.94719 30.121C2.11986 30.7401 2.21502 31.0306 2.26337 31.086C2.29534 31.1227 2.30793 31.1669 2.29131 31.1844C2.27469 31.2019 2.28929 31.2972 2.32376 31.3963C2.35823 31.4954 2.484 31.8688 2.60329 32.2262C2.72252 32.5836 2.85629 32.9593 2.90053 33.0612C2.94476 33.163 3.03515 33.3994 3.1013 33.5865C3.41199 34.4651 4.0435 35.8097 4.41431 36.3822C4.80193 36.9807 6.22856 38.6239 6.3577 38.6205C6.36908 38.6202 6.50438 38.7291 6.6584 38.8624C6.81241 38.9957 6.96221 39.1042 6.99128 39.1034C7.02041 39.1027 7.12954 39.1595 7.23394 39.2296C7.38888 39.3338 7.51232 39.3545 7.90764 39.3425C8.40164 39.3275 8.84841 39.189 8.84486 39.0519C8.84383 39.0122 8.8056 38.9951 8.75987 39.014C8.58163 39.0876 7.96246 39.1529 7.75632 39.1198C7.34315 39.0534 6.69186 38.3 6.29202 37.4258C6.11233 37.033 5.82338 35.9989 5.70185 35.3137C5.67913 35.1856 5.63696 35.0813 5.60821 35.082C5.57939 35.0828 5.57087 35.0412 5.58918 34.9897C5.60748 34.9381 5.58672 34.8053 5.54306 34.6944C5.4994 34.5835 5.44845 34.4089 5.42978 34.3064C5.41111 34.2039 5.28858 33.6874 5.15741 33.1587C4.83639 31.8649 4.49599 30.3831 4.38051 29.777C4.32839 29.5037 4.25175 29.1405 4.21011 28.97C4.16847 28.7994 4.11573 28.509 4.09287 28.3246C4.07001 28.1402 4.03675 27.9673 4.01903 27.9403C4.00132 27.9132 3.96853 27.7705 3.94613 27.6231C3.87876 27.1789 3.6962 26.1227 3.65813 25.9569C3.63859 25.8716 3.60018 25.5644 3.57277 25.2743C3.54536 24.9842 3.51272 24.7312 3.50015 24.7121C3.47664 24.6763 3.45275 24.491 3.2994 23.1574C3.25021 22.7295 3.19401 22.2815 3.17446 22.1619C3.15497 22.0422 3.093 20.7237 3.03676 19.2317C2.93643 16.5703 2.93697 16.499 3.06458 15.4546C3.22512 14.1407 3.32382 13.6096 3.54255 12.8831C3.74487 12.2111 4.13089 11.259 4.4036 10.7592C4.51126 10.5618 4.599 10.3849 4.59852 10.3661C4.59763 10.3319 5.38896 9.13066 5.5607 8.90562C6.16468 8.11403 6.57925 7.68189 7.2972 7.09557C7.82655 6.66327 7.99464 6.55554 8.86615 6.09009C9.22245 5.89984 9.53388 5.71399 9.5582 5.67716C9.58252 5.64033 9.60333 5.62999 9.60452 5.65417C9.60565 5.67836 9.72498 5.65136 9.86973 5.59412C11.0667 5.12091 11.844 5.12217 12.905 5.59896C13.4147 5.828 14.1578 6.34492 14.509 6.71476C14.9102 7.13737 15.4451 7.84439 15.8764 8.52244C16.1071 8.88511 16.3173 9.19064 16.3433 9.20138C16.3694 9.21219 16.3913 9.2429 16.392 9.26972C16.3927 9.29654 16.6564 9.82807 16.9781 10.4509C17.2998 11.0738 17.6028 11.6877 17.6515 11.8151C17.7003 11.9426 17.7642 12.0463 17.7938 12.0455C17.8233 12.0447 17.8335 12.0679 17.8165 12.097C17.7995 12.1261 17.8402 12.2585 17.907 12.3911C18.0302 12.6358 18.5122 13.8468 18.514 13.916C18.5146 13.9367 18.5499 14.0319 18.5924 14.1274C18.6351 14.2229 18.6739 14.315 18.6787 14.3321C18.6835 14.3491 18.7291 14.5165 18.78 14.704C18.8308 14.8915 18.8938 15.0724 18.9198 15.1061C18.9459 15.1397 18.9878 15.2818 19.0129 15.4217C19.0379 15.5616 19.1023 15.8127 19.1559 15.9798C19.2628 16.3129 19.3873 16.7995 19.4401 17.09C19.4587 17.1925 19.5366 17.5557 19.6131 17.897C19.798 18.7209 19.9569 19.5022 20.0172 19.8839C20.0696 20.2152 20.2077 20.6764 20.3604 21.0298C20.4117 21.1486 20.4864 21.3809 20.5264 21.5459C20.586 21.7921 20.9231 22.3961 20.9193 22.25C20.9187 22.2264 20.9974 22.2773 21.0942 22.363C21.2664 22.5152 21.2842 22.5174 21.8943 22.4615C22.353 22.4194 22.5374 22.3777 22.5905 22.3041C22.6302 22.249 22.7507 22.1022 22.8582 21.9781C23.1007 21.6978 23.3315 21.1981 23.3254 20.9661C23.3218 20.8249 23.4287 20.6898 23.8846 20.2591C24.1946 19.9663 24.6838 19.5625 24.9716 19.362C25.6328 18.9014 27.3692 17.9633 27.7304 17.8716C27.7717 17.8611 27.9391 17.8052 28.1025 17.7473C28.6455 17.5552 29.1689 17.4872 29.3906 17.5801C29.6106 17.6722 29.8114 17.812 29.813 17.8742C29.8136 17.8965 29.9164 18.0522 30.0414 18.2203C30.1664 18.3884 30.2559 18.5262 30.2402 18.5266C30.2245 18.527 30.2543 18.6223 30.3065 18.7383C30.4274 19.0074 30.6875 20.0299 30.7178 20.3556C30.7306 20.4926 30.7776 21.4183 30.8222 22.4127C30.8669 23.4072 30.9193 24.3046 30.9389 24.4071C31.1943 25.7483 31.2383 27.706 31.0265 28.3086C30.96 28.4977 30.9064 28.6841 30.9074 28.7227C30.9088 28.7783 30.7522 29.1731 30.5667 29.582C30.5549 29.6081 30.5782 29.6285 30.6185 29.6275C30.6938 29.6255 30.9185 29.3756 30.9201 29.2921C30.9205 29.2664 31.0158 29.1061 31.1318 28.9358C31.2478 28.7655 31.3419 28.5945 31.3409 28.5558C31.3399 28.517 31.362 28.4846 31.39 28.4839C31.418 28.4832 31.4862 28.3902 31.5416 28.2771C31.597 28.1641 31.6959 27.979 31.7614 27.8657C31.827 27.7524 31.9277 27.5761 31.9853 27.4739C32.0429 27.3716 32.25 27.0081 32.4457 26.6661C32.6413 26.324 32.7932 26.0335 32.7833 26.0204C32.7732 26.0073 32.7915 25.9788 32.8238 25.957C33.0023 25.8364 33.7031 24.4038 33.6346 24.2994C33.6149 24.2692 33.6229 24.2439 33.6525 24.2432C33.7227 24.2413 33.8724 23.7617 33.9824 23.1868C34.1005 22.5685 34.0356 20.1727 33.8823 19.4944C33.8243 19.2378 33.7608 18.93 33.7412 18.8104C33.6601 18.3166 33.274 17.3054 32.9623 16.7707C32.6445 16.2254 32.3103 15.7897 32.2434 15.8334C32.2092 15.8557 32.1983 15.8449 32.219 15.8094C32.2723 15.718 31.447 14.9801 31.3571 15.0387C31.3151 15.0662 31.3012 15.0584 31.3236 15.0199C31.3636 14.9514 30.56 14.5235 30.3991 14.5276C30.3493 14.5289 30.2115 14.4833 30.093 14.4263C29.92 14.3432 29.7228 14.3274 29.0961 14.3467C28.2999 14.3712 27.9847 14.4387 27.0123 14.7935C26.2325 15.0779 26.0521 15.1562 26.0535 15.2095C26.0543 15.2397 26.0083 15.2656 25.9512 15.2671C25.686 15.274 23.4623 16.6585 22.991 17.1101C22.9154 17.1825 22.8506 17.2299 22.8469 17.2154C22.8281 17.1415 22.6312 16.2801 22.5714 16.0101C22.5335 15.8395 22.4096 15.3792 22.296 14.9874C22.1825 14.5955 22.0725 14.2051 22.0516 14.1198C21.9873 13.8576 21.8683 13.5351 21.8098 13.4649C21.7793 13.4282 21.7678 13.384 21.7843 13.3666C21.8292 13.3194 20.9002 10.9419 20.6822 10.5461C20.651 10.4893 20.4995 10.1652 20.3457 9.82589C20.1919 9.48657 20.026 9.16566 19.9771 9.11268C19.9283 9.05977 19.8871 8.97333 19.8857 8.92062C19.8844 8.86791 19.8179 8.74617 19.738 8.64999C19.6581 8.55388 19.6039 8.47426 19.6175 8.47303C19.6707 8.46841 19.5422 8.1926 19.4874 8.19402C19.4554 8.19485 19.428 8.15324 19.4267 8.10159C19.4224 7.93816 18.238 6.03704 18.1129 5.99297C18.0827 5.98227 18.0572 5.9433 18.0562 5.90637C18.0543 5.83382 17.4435 5.04451 17.1219 4.69899C16.4215 3.94645 15.7364 3.40974 14.8436 2.91398C13.3639 2.09232 11.7168 1.80382 10.1986 2.10034ZM49.0079 0.0796944C48.9925 0.128613 48.9576 0.408264 48.9303 0.70124C48.8444 1.62315 48.6043 2.99504 48.3945 3.76173C48.2834 4.16802 47.8667 5.49634 47.4684 6.71354C47.0702 7.93077 46.7209 9.04251 46.6923 9.18412C46.6638 9.32573 46.5591 9.73263 46.4598 10.0884C46.3605 10.4441 46.2281 10.9831 46.1655 11.2861C46.0089 12.0441 45.9856 12.142 45.6996 13.2511C45.5611 13.7881 45.4251 14.3259 45.3974 14.4462C45.2349 15.1515 43.9321 19.2588 42.3885 23.9322C42.0477 24.9638 41.7767 25.8545 41.7862 25.9115C41.7956 25.9685 41.8429 26.028 41.8912 26.0438C42.0242 26.0872 42.3443 25.9532 42.3831 25.8379C42.4113 25.7542 42.3786 25.7479 42.1992 25.8025C42.0791 25.839 41.9731 25.8491 41.9636 25.8249C41.9387 25.7622 42.4653 24.7406 42.6737 24.4474C42.9688 24.0322 43.1935 23.6912 43.2429 23.5836C43.2687 23.5274 43.3329 23.4248 43.3855 23.3557C43.4381 23.2866 43.6871 22.9621 43.939 22.6346C44.5573 21.8303 45.038 21.1157 45.0234 21.0224C45.0168 20.9803 45.0426 20.956 45.0807 20.9685C45.1188 20.9809 45.1506 20.9394 45.1514 20.8764C45.1522 20.8134 45.1791 20.7532 45.2111 20.7428C45.2431 20.7323 45.3661 20.5507 45.4844 20.3394C45.6027 20.1279 45.793 19.7914 45.9072 19.5915C46.0214 19.3916 46.1942 19.0422 46.2913 18.8151C46.3884 18.588 46.5103 18.3279 46.5623 18.2371C46.6143 18.1462 46.7603 17.794 46.8868 17.4543C47.0134 17.1145 47.1387 16.8232 47.1654 16.8068C47.2377 16.7622 48.2118 13.8355 48.1599 13.8185C48.1354 13.8106 48.2249 13.478 48.3586 13.0797C48.6919 12.0876 48.8963 11.213 49.1205 9.81947C49.2199 9.20204 49.3354 7.63155 49.3058 7.30113C49.2953 7.18512 49.3033 7.04094 49.3233 6.9806C49.3434 6.92034 49.3456 6.83285 49.3282 6.78618C49.3108 6.73956 49.2994 6.32099 49.3029 5.85613C49.3063 5.3912 49.2878 4.95714 49.2619 4.89158C49.2358 4.82594 49.2313 4.76203 49.2517 4.74941C49.2721 4.73685 49.2774 4.54052 49.2634 4.31305C49.2495 4.08566 49.2488 3.86763 49.262 3.82856C49.2751 3.78949 49.2575 3.7483 49.2229 3.73702C49.1883 3.72573 49.1846 3.6926 49.2147 3.66339C49.2448 3.63416 49.2583 3.36508 49.2446 3.06547C49.2309 2.7658 49.224 2.48676 49.2293 2.44536C49.2345 2.40394 49.2193 1.97558 49.1956 1.49346C49.1718 1.01132 49.146 0.482923 49.1385 0.319166C49.1247 0.0240859 49.0618 -0.0913091 49.0079 0.0796944Z" fill="#597230"/>
</svg>
