<svg width="43" height="27" viewBox="0 0 43 27" fill="none" xmlns="http://www.w3.org/2000/svg">
<path fill-rule="evenodd" clip-rule="evenodd" d="M9.7582 0.125381C9.74432 0.137162 9.64572 0.171305 9.53906 0.201228C8.80194 0.40806 8.08331 0.72849 7.49956 1.11071C6.92043 1.48987 5.97818 2.3031 5.43764 2.89029C5.22139 3.12522 4.98736 3.40096 4.88405 3.54249C4.66047 3.84889 4.64612 3.86824 4.5691 3.96732C4.4101 4.17182 4.03121 4.80068 4.07109 4.7939C4.09403 4.79003 4.08468 4.80333 4.05026 4.82349C3.96874 4.87124 3.71875 5.34717 3.76631 5.36406C3.78641 5.37117 3.77551 5.38197 3.74208 5.38805C3.6657 5.40194 2.96901 6.81592 2.66567 7.57268C2.62593 7.67183 2.5572 7.83474 2.51301 7.9347C2.20168 8.63853 1.82485 9.59737 1.85265 9.61511C1.87103 9.62688 1.86216 9.64083 1.83296 9.64614C1.8037 9.65146 1.77252 9.69099 1.76362 9.73395C1.74975 9.80112 1.69232 9.95901 1.46107 10.5661C1.31345 10.9537 1.11807 11.5727 0.90715 12.3215C0.8662 12.4668 0.809445 12.6652 0.781036 12.7623C0.723161 12.9599 0.523672 13.8641 0.485236 14.103C0.471557 14.1882 0.43424 14.4131 0.402282 14.6028C0.334113 15.0077 0.23281 15.8011 0.219475 16.0346C0.214343 16.1245 0.205198 16.2315 0.199104 16.2723C0.157484 16.5523 0.140728 16.7378 0.155262 16.7591C0.164557 16.7727 0.155948 16.8711 0.136133 16.9777C0.116255 17.0842 0.104284 17.2518 0.109476 17.3502C0.114661 17.4485 0.104426 17.603 0.0866809 17.6934C0.0689985 17.7838 0.061345 17.8679 0.0696549 17.8803C0.0780271 17.8927 0.0774331 17.9644 0.0683927 18.0396C0.0593524 18.1148 0.0533045 18.2663 0.0550763 18.3763C0.0567917 18.4863 0.0559026 18.6143 0.0530567 18.6608C0.0380853 18.9074 0.0236807 19.2746 0.0219257 19.452C0.019192 19.7361 0.0178787 19.7708 0.00379294 19.9232C-0.00759475 20.0467 0.00690113 20.4076 0.0393043 20.8071C0.0460713 20.8911 0.0383308 20.9776 0.0220209 20.9994C-0.0792182 21.1347 0.359309 23.7594 0.540041 24.0997C0.601134 24.2147 0.702872 24.4595 0.766163 24.6436C0.977532 25.2581 1.38162 26.0767 1.60545 26.3438C1.83875 26.6222 2.17189 26.7899 2.51463 26.8017C2.72207 26.8088 2.89953 26.7776 2.89185 26.7353C2.88862 26.7175 2.8446 26.7105 2.79398 26.7197C2.49922 26.7733 2.03664 26.5742 1.84176 26.3098C1.64243 26.0395 1.50853 25.3614 1.5398 24.7807C1.55513 24.4961 1.5774 24.2503 1.58925 24.2345C1.61427 24.201 1.68944 23.8054 1.74118 23.4347C1.80454 22.9809 1.89535 22.1903 1.89801 22.0691C1.89942 22.0045 1.91971 21.8228 1.94302 21.6653C1.96637 21.5078 1.96946 21.3732 1.94991 21.3663C1.93036 21.3593 1.93419 21.3336 1.9585 21.3091C1.98281 21.2846 1.99921 21.205 1.99495 21.1323C1.99068 21.0595 2.00197 20.9822 2.02004 20.9606C2.03811 20.9389 2.05694 20.8452 2.0619 20.7524C2.06686 20.6596 2.08872 20.4704 2.11055 20.332C2.13233 20.1937 2.13423 20.0703 2.11473 20.0578C2.09523 20.0454 2.10307 20.0216 2.13208 20.0049C2.16113 19.9882 2.17757 19.9429 2.16864 19.904C2.15972 19.8652 2.15854 19.8097 2.16598 19.7808C2.20704 19.622 2.24867 19.336 2.2341 19.3132C2.22477 19.2987 2.22715 19.2474 2.23935 19.1992C2.27359 19.0637 2.31181 18.7605 2.38391 18.0531C2.40112 17.8845 2.43419 17.6228 2.4574 17.4715C2.48066 17.3202 2.51592 17.0731 2.53581 16.9224C2.55564 16.7717 2.61544 16.373 2.6686 16.0363C2.72175 15.6996 2.76643 15.3907 2.76789 15.3497C2.76935 15.3087 2.78984 15.2062 2.81351 15.1218C2.83713 15.0375 2.84001 14.9515 2.81986 14.9307C2.79972 14.9099 2.80347 14.8844 2.82827 14.8741C2.85302 14.8639 2.87767 14.7945 2.88299 14.72C2.88837 14.6454 2.91793 14.5073 2.94877 14.413C2.97954 14.3187 2.99914 14.2324 2.99223 14.2213C2.98536 14.2101 3.00086 14.1294 3.02666 14.042C3.05252 13.9546 3.092 13.797 3.11445 13.6918C3.17274 13.4183 3.28147 13.0062 3.35527 12.7789C3.39012 12.6714 3.41604 12.5501 3.41288 12.5094C3.40972 12.4686 3.4262 12.4317 3.44942 12.4275C3.47264 12.4233 3.48817 12.4004 3.48386 12.3767C3.47175 12.3102 3.86516 11.1607 4.1318 10.4836C4.17818 10.3659 4.21476 10.2426 4.21315 10.2097C4.21147 10.1768 4.23014 10.1462 4.25455 10.1418C4.27895 10.1373 4.29624 10.1191 4.29298 10.1011C4.28973 10.0832 4.35318 9.9175 4.43397 9.73287C4.51471 9.54824 4.61914 9.3075 4.66594 9.19788C4.71274 9.08825 4.78674 8.92895 4.83038 8.8439C4.87402 8.75885 4.90607 8.66902 4.90158 8.64433C4.89709 8.61961 4.90806 8.58706 4.92593 8.57198C4.99035 8.51762 5.15136 8.12847 5.11821 8.10725C5.09956 8.09533 5.10559 8.0817 5.13163 8.07697C5.19358 8.0657 5.28611 7.84695 5.24104 7.81817C5.22194 7.80597 5.23321 7.79108 5.26602 7.78512C5.29882 7.77915 5.32094 7.74805 5.31512 7.71602C5.30929 7.68399 5.32456 7.63983 5.34911 7.61791C5.3736 7.59598 5.52981 7.2903 5.69617 6.93862C6.02382 6.24607 6.09067 6.11859 6.48073 5.44164C6.78129 4.92004 6.95881 4.64606 7.24911 4.25576C7.3645 4.1006 7.47967 3.94358 7.50502 3.90685C7.55566 3.83336 8.18978 3.15776 8.30984 3.04942C8.69065 2.70557 9.01832 2.42307 9.04115 2.41892C9.05642 2.41614 9.13927 2.35973 9.22524 2.29352C9.4734 2.10249 10.1226 1.78412 10.3171 1.75808C10.514 1.73173 10.8758 1.79342 11.3644 1.93672C11.7986 2.06408 11.7438 2.04427 12.1182 2.20881C13.0278 2.60859 14.0421 3.30483 14.9497 4.15244C15.1392 4.32942 15.3084 4.47916 15.3257 4.48521C15.343 4.49126 15.3687 4.51666 15.3829 4.54165C15.3971 4.56665 15.5584 4.74791 15.7414 4.94444C15.9244 5.14099 16.1074 5.34838 16.1481 5.40533C16.1888 5.46228 16.2618 5.54677 16.3105 5.59307C16.3592 5.63938 16.436 5.7307 16.4813 5.79601C16.6435 6.03015 16.8954 6.35202 16.9373 6.37883C16.9608 6.39384 16.9882 6.42746 16.9983 6.4535C17.0084 6.47959 17.087 6.59343 17.173 6.70648C17.2589 6.81955 17.5228 7.17019 17.7592 7.4857C17.9957 7.80121 18.2099 8.07815 18.2352 8.10112C18.2913 8.15206 18.2865 8.14524 18.3702 8.29384C18.4078 8.36054 18.4608 8.42613 18.4879 8.43957C18.5151 8.45302 18.5605 8.51245 18.5889 8.57163C18.6174 8.6308 18.68 8.71718 18.7283 8.76357C18.7765 8.80996 18.8272 8.86843 18.8411 8.89347C18.867 8.94012 18.9992 9.11576 19.2619 9.45208C19.3436 9.55673 19.4408 9.68196 19.4779 9.73036C19.7639 10.1036 19.9741 10.3694 20.0902 10.5048C20.1652 10.5923 20.4354 10.9192 20.6907 11.2313C20.9459 11.5434 21.187 11.8305 21.2265 11.8693C21.266 11.9081 21.3095 11.9603 21.3231 11.9854C21.4062 12.1383 22.2588 13.049 22.4727 13.2134C22.5213 13.2507 22.6821 13.3946 22.8301 13.5332C23.1374 13.8209 23.6478 14.2198 24.0445 14.4823C24.1317 14.54 24.2353 14.6155 24.2748 14.6501C24.3591 14.7241 24.8077 15.0045 24.8641 15.0186C24.8855 15.0239 24.941 15.0589 24.9874 15.0964C25.0338 15.1339 25.1888 15.2336 25.3317 15.3179C25.4748 15.4022 25.6137 15.4898 25.6404 15.5125C25.7032 15.566 26.2088 15.8887 26.2517 15.9028C26.2697 15.9087 26.3249 15.9421 26.3743 15.977C26.4237 16.0119 26.5256 16.0836 26.6007 16.1364C26.6759 16.1891 26.8128 16.2863 26.9049 16.3523C26.997 16.4182 27.1265 16.5023 27.1927 16.5391C27.2588 16.5758 27.3147 16.6152 27.3167 16.6266C27.3188 16.638 27.4312 16.7156 27.5665 16.7991C27.7018 16.8827 27.9458 17.036 28.1088 17.1398C28.323 17.2762 28.4077 17.3104 28.4145 17.2635C28.4197 17.2277 28.3765 17.1614 28.3185 17.116C28.1435 16.9792 27.9542 16.7903 27.8218 16.6201C27.7529 16.5315 27.6299 16.3734 27.5487 16.2686C27.4674 16.1639 27.3804 16.0368 27.3553 15.9862C27.3303 15.9356 27.256 15.8138 27.1904 15.7154C27.0271 15.4709 26.8477 15.1539 26.6155 14.7001C26.4155 14.3089 26.2746 14.0552 26.0506 13.683C25.9808 13.567 25.8895 13.4106 25.8477 13.3355C25.806 13.2604 25.7359 13.162 25.6921 13.1169C25.6482 13.0718 25.5894 12.9847 25.5613 12.9234C25.513 12.8178 25.4027 12.6576 25.3134 12.5635C25.2912 12.54 25.2638 12.4999 25.2527 12.4743C25.2155 12.389 24.9707 12.0827 24.1795 11.1318C22.974 9.68289 22.8728 9.55779 21.799 8.1885C21.6539 8.00346 21.3231 7.56723 21.0639 7.21908C20.8047 6.87094 20.5666 6.56074 20.5349 6.52975C20.5031 6.49876 20.3983 6.35987 20.302 6.22111C20.2056 6.08236 20.0791 5.90981 20.021 5.83765C19.9628 5.7655 19.725 5.46276 19.4926 5.1649C18.9629 4.48587 18.4188 3.84908 18.3444 3.82099C18.3132 3.80921 18.2829 3.77315 18.277 3.74086C18.2711 3.7086 18.2372 3.66135 18.2016 3.6359C18.1661 3.61045 18.0519 3.49979 17.9481 3.38998C17.3128 2.71823 15.8259 1.53688 15.4126 1.37544C15.3502 1.35108 15.29 1.31781 15.2787 1.30147C15.2049 1.19452 13.7103 0.475045 13.5937 0.490297C13.5694 0.493466 13.432 0.449702 13.2881 0.393055C13.0205 0.287613 12.3155 0.0981549 12.3219 0.133424C12.3239 0.144199 12.2668 0.134124 12.195 0.111035C11.9994 0.0481301 11.2671 -0.0114613 10.8531 0.00190697C10.4659 0.0143581 9.80051 0.0894072 9.7582 0.125381ZM42.0139 11.6586C41.831 11.7795 41.5945 11.9311 41.4885 11.9953C41.3825 12.0596 41.313 12.1232 41.3339 12.1366C41.3549 12.15 41.3462 12.1568 41.3145 12.1516C41.2596 12.1427 40.8295 12.3809 39.7882 12.9969C39.528 13.1508 39.2726 13.2953 39.2206 13.318C39.1686 13.3406 39.1289 13.3741 39.1323 13.3925C39.1356 13.4109 39.1189 13.4271 39.0951 13.4285C39.0092 13.4336 38.8245 13.5333 38.1539 13.9368C37.7786 14.1626 37.4469 14.3594 37.4169 14.374C37.2391 14.4607 36.2041 15.151 35.7334 15.4968C35.3211 15.7997 34.2705 16.7006 34.3043 16.7222C34.3265 16.7364 34.3178 16.7437 34.2849 16.7383C34.252 16.7329 34.1053 16.8493 33.9589 16.9968C33.8126 17.1444 33.6248 17.3246 33.5417 17.3973C33.4586 17.4701 33.3156 17.6034 33.2241 17.6936C33.1325 17.7838 32.973 17.9406 32.8696 18.0422C32.0565 18.8406 31.6938 19.2264 31.2586 19.7557C31.1164 19.9287 30.9874 20.08 30.9718 20.092C30.9563 20.104 30.8921 20.1832 30.8291 20.2679C30.3464 20.9174 29.7285 21.884 29.7434 21.9662C29.7481 21.992 29.7333 22.0214 29.7104 22.0317C29.549 22.1044 29.1331 23.4755 29.1007 24.0424C29.0959 24.1259 29.0645 24.3422 29.031 24.523C28.9882 24.754 28.9913 24.9784 29.0416 25.2786C29.1102 25.688 29.1193 25.708 29.265 25.7644C29.3704 25.8053 29.4752 25.8127 29.6077 25.7886C29.7307 25.7663 29.7827 25.7439 29.7542 25.7256C29.7299 25.7101 29.6633 25.7133 29.6064 25.7327C29.5494 25.7521 29.5133 25.7541 29.5261 25.737C29.5388 25.7199 29.5113 25.7046 29.4649 25.7029C29.4186 25.7011 29.3386 25.6456 29.2872 25.5795C29.1237 25.3692 29.2523 24.8437 29.6447 24.1189C29.7026 24.0118 29.8028 23.8282 29.8671 23.7108C29.983 23.4995 30.6203 22.6724 30.972 22.2769C31.0722 22.1642 31.1369 22.066 31.1159 22.0585C31.0949 22.051 31.103 22.0403 31.1339 22.0347C31.1648 22.0291 31.2637 21.9396 31.3535 21.836C31.7575 21.3702 33.028 20.0504 33.4503 19.658C33.5241 19.5895 33.7515 19.3752 33.9556 19.1818C34.1598 18.9884 34.3394 18.8203 34.3547 18.8083C34.3901 18.7806 35.9031 17.4279 36.2042 17.1546C36.3287 17.0416 36.4696 16.9193 36.5174 16.8827C36.5652 16.8462 36.5892 16.8067 36.5708 16.795C36.5524 16.7832 36.562 16.7691 36.592 16.7636C36.6221 16.7582 36.7833 16.6198 36.9501 16.4562C37.117 16.2925 37.3088 16.1098 37.3764 16.05C37.444 15.9902 37.4962 15.9243 37.4924 15.9035C37.4887 15.8827 37.5071 15.8618 37.5334 15.8571C37.5598 15.8523 37.8323 15.5887 38.139 15.2713C39.1913 14.1825 40.3361 13.1681 42.047 11.8083C42.2849 11.6193 42.486 11.4522 42.4938 11.4369C42.5342 11.3593 42.3099 11.4629 42.0139 11.6586Z" fill="#597230"/>
</svg>
