<svg width="33" height="28" viewBox="0 0 33 28" fill="none" xmlns="http://www.w3.org/2000/svg">
<path fill-rule="evenodd" clip-rule="evenodd" d="M25.5139 2.08194C25.8626 2.18439 26.435 2.40802 26.6326 2.51892C26.6839 2.54769 26.8147 2.61447 26.9234 2.66727C27.2116 2.80742 27.9957 3.28734 28.0866 3.37922C28.1295 3.42267 28.1959 3.46909 28.2342 3.4824C28.2725 3.49575 28.3133 3.52112 28.325 3.5388C28.3365 3.55652 28.4202 3.61688 28.5108 3.67296C28.6014 3.72904 28.7288 3.82548 28.7939 3.88726C28.859 3.94905 29.0341 4.10182 29.1832 4.22673C29.3322 4.35167 29.4517 4.47151 29.4487 4.49299C29.4456 4.51451 29.469 4.53577 29.5006 4.54024C29.5726 4.55042 30.5436 5.64745 30.5349 5.70878C30.5314 5.73354 30.5696 5.78407 30.6197 5.82109C30.6698 5.85811 30.7083 5.90659 30.7051 5.9288C30.702 5.95101 30.7428 6.02243 30.7959 6.08745C30.9841 6.31802 31.3681 6.97844 31.3501 7.04049C31.3441 7.06095 31.3581 7.09233 31.3811 7.11022C31.5531 7.24439 32.2724 9.02058 32.1898 9.10738C32.1718 9.12619 32.1768 9.14439 32.2007 9.14779C32.2758 9.15842 32.5195 10.4563 32.5115 10.8035C32.5102 10.8632 32.5227 11.0708 32.5393 11.2649C32.5826 11.7703 32.5133 12.8652 32.3752 13.8553C32.2579 14.6957 32.034 15.8843 31.9561 16.079C31.9343 16.1336 31.8875 16.3132 31.8521 16.4781C31.7849 16.7912 31.7247 17.0129 31.6403 17.258C31.6128 17.338 31.5861 17.4322 31.5809 17.4674C31.5726 17.5234 31.4731 17.8808 31.3359 18.3475C31.3122 18.428 31.2713 18.5399 31.2449 18.596C31.2186 18.6522 31.1983 18.7232 31.1998 18.7537C31.2013 18.7843 31.1619 18.9159 31.1123 19.0463C31.0627 19.1766 31.0023 19.3491 30.9782 19.4295C30.8981 19.6959 30.5233 20.6913 30.4529 20.8244C30.4148 20.8963 30.3679 21.0072 30.3486 21.071C30.3204 21.1642 30.1526 21.5559 29.904 22.109C29.7201 22.5182 29.6226 22.7089 29.5801 22.7424C29.552 22.7646 29.5386 22.7938 29.5505 22.8074C29.5623 22.8209 29.5434 22.885 29.5086 22.9499C29.4737 23.0147 29.3457 23.2595 29.224 23.4939C29.1023 23.7282 28.9678 23.9738 28.925 24.0396C28.8822 24.1055 28.7926 24.2594 28.726 24.3817C28.413 24.9562 27.8106 25.8208 27.4734 26.1793C27.1209 26.5541 25.8664 27.5491 25.7645 27.5347C25.7555 27.5334 25.6401 27.5955 25.508 27.6726C25.376 27.7498 25.2491 27.8103 25.2262 27.807C25.2032 27.8038 25.1125 27.8325 25.0245 27.8709C24.8939 27.928 24.7947 27.9306 24.4827 27.8852C24.0929 27.8286 23.7499 27.6914 23.7632 27.5975C23.7671 27.5703 23.7986 27.5622 23.8334 27.5795C23.9688 27.6468 24.4538 27.7498 24.6195 27.7464C24.9515 27.7396 25.5245 27.2831 25.9077 26.72C26.0799 26.467 26.3875 25.7836 26.536 25.3242C26.5638 25.2383 26.6051 25.1707 26.6278 25.1739C26.6506 25.1771 26.6605 25.1493 26.65 25.1122C26.6394 25.0751 26.666 24.9857 26.709 24.9137C26.752 24.8416 26.8057 24.7264 26.8283 24.6577C26.8509 24.589 26.9873 24.2457 27.1315 23.8947C27.4843 23.0359 27.8669 22.0498 28.0046 21.6442C28.0667 21.4613 28.1551 21.219 28.2011 21.1057C28.247 20.9924 28.311 20.7978 28.3431 20.6733C28.3753 20.5488 28.4148 20.4331 28.4309 20.4161C28.447 20.3993 28.4838 20.3042 28.5128 20.2051C28.6001 19.9062 28.8252 19.1976 28.868 19.0873C28.89 19.0306 28.9438 18.8231 28.9877 18.6264C29.0315 18.4296 29.0767 18.2588 29.0881 18.2469C29.1094 18.2245 29.1425 18.0994 29.3657 17.1975C29.4373 16.9082 29.516 16.6057 29.5406 16.5253C29.5652 16.4449 29.7149 15.5448 29.8733 14.525C30.156 12.7058 30.161 12.6568 30.1398 11.9272C30.1131 11.0094 30.0755 10.6352 29.9579 10.1155C29.8491 9.63479 29.6163 8.94438 29.4387 8.57537C29.3686 8.42962 29.3126 8.29986 29.3144 8.28701C29.3178 8.26356 28.7833 7.36392 28.6645 7.19317C28.247 6.59258 27.9519 6.25674 27.4285 5.78648C27.0426 5.43975 26.9178 5.34995 26.2637 4.94831C25.9962 4.78414 25.7639 4.62721 25.7475 4.59962C25.7311 4.57203 25.7154 4.56297 25.7126 4.57947C25.7099 4.59599 25.6175 4.56623 25.5073 4.51331C24.5962 4.07578 23.9809 4.00366 23.1049 4.23162C22.684 4.34113 22.0564 4.62652 21.7503 4.84765C21.4005 5.10034 20.9232 5.53589 20.5301 5.96126C20.3198 6.18878 20.1302 6.37897 20.1087 6.38391C20.0873 6.38889 20.0676 6.40792 20.065 6.42629C20.0624 6.44465 19.8131 6.78509 19.511 7.18283C19.2088 7.58057 18.9221 7.97391 18.8738 8.0569C18.8255 8.13993 18.767 8.20513 18.7437 8.20184C18.7204 8.19854 18.7105 8.21348 18.7217 8.23507C18.7329 8.25665 18.6906 8.34379 18.6276 8.42866C18.5115 8.58521 18.0375 9.37199 18.0308 9.41935C18.0288 9.43357 17.9936 9.49562 17.9526 9.55726C17.9116 9.61888 17.8738 9.67854 17.8687 9.68979C17.8636 9.70105 17.8148 9.81176 17.7602 9.9358C17.7056 10.0599 17.642 10.1783 17.6188 10.1989C17.5956 10.2196 17.5516 10.3133 17.521 10.4071C17.4906 10.5008 17.4204 10.6673 17.3652 10.7771C17.2552 10.9959 17.1195 11.3186 17.0555 11.5132C17.033 11.5819 16.9436 11.8241 16.8569 12.0514C16.6477 12.6002 16.4624 13.122 16.3854 13.3786C16.3187 13.6013 16.1741 13.9052 16.0264 14.1337C15.9767 14.2105 15.8998 14.3631 15.8556 14.4728C15.7896 14.6363 15.4767 15.0196 15.4908 14.9196C15.4931 14.9035 15.4269 14.931 15.3438 14.9808C15.1959 15.0693 15.1816 15.0691 14.7031 14.9734C14.3433 14.9014 14.2005 14.8554 14.1641 14.7998C14.1369 14.7583 14.0528 14.6461 13.9772 14.5507C13.8066 14.3354 13.6622 13.9704 13.6847 13.8115C13.6984 13.7149 13.6241 13.612 13.2962 13.2733C13.0732 13.043 12.7169 12.7196 12.5045 12.5548C12.0164 12.1763 10.7138 11.3687 10.435 11.2717C10.4031 11.2607 10.2749 11.2065 10.15 11.1514C9.73493 10.9684 9.32597 10.8726 9.14337 10.9156C8.96224 10.9582 8.79266 11.0354 8.78664 11.078C8.78448 11.0932 8.69126 11.1906 8.5795 11.2943C8.46772 11.3981 8.3864 11.4844 8.39879 11.4861C8.41117 11.4879 8.38027 11.5506 8.33012 11.6254C8.21386 11.7989 7.92996 12.477 7.88108 12.6979C7.86048 12.7909 7.75264 13.4225 7.6414 14.1015C7.5301 14.7806 7.42003 15.3923 7.39673 15.4609C7.09216 16.3584 6.90784 17.6994 7.02945 18.1332C7.0676 18.2694 7.09577 18.4026 7.09203 18.429C7.0867 18.467 7.18046 18.753 7.29608 19.0513C7.30346 19.0704 7.28346 19.0822 7.25163 19.0777C7.19217 19.0693 7.03342 18.8765 7.03855 18.819C7.04014 18.8013 6.97697 18.6822 6.89817 18.5543C6.81938 18.4264 6.75799 18.3001 6.76175 18.2736C6.76551 18.247 6.75048 18.2227 6.72837 18.2196C6.70626 18.2164 6.65939 18.1461 6.62421 18.0633C6.58902 17.9804 6.52488 17.8439 6.48166 17.7599C6.43843 17.6759 6.37219 17.5454 6.33443 17.4697C6.29666 17.3941 6.1605 17.1248 6.03177 16.8715C5.90304 16.6181 5.80502 16.4042 5.8139 16.3962C5.82284 16.3881 5.81057 16.3668 5.78665 16.3487C5.65463 16.2491 5.20945 15.199 5.27158 15.1338C5.28951 15.1149 5.28509 15.0967 5.26175 15.0934C5.20633 15.0856 5.12444 14.742 5.08134 14.3366C5.03506 13.9007 5.26941 12.2607 5.44254 11.8091C5.50804 11.6382 5.58181 11.4327 5.60647 11.3524C5.70831 11.0207 6.09112 10.3622 6.3786 10.0241C6.6718 9.67929 6.96954 9.41131 7.01917 9.4476C7.04448 9.46613 7.05394 9.45971 7.04025 9.43338C7.00504 9.36562 7.71459 8.93611 7.78118 8.98482C7.81233 9.00761 7.824 9.00356 7.80921 8.97507C7.78273 8.92423 8.45136 8.70564 8.57837 8.72361C8.6177 8.72918 8.73024 8.71078 8.82842 8.68277C8.97166 8.64188 9.12892 8.64958 9.6234 8.72164C10.2516 8.81324 10.4959 8.88924 11.2384 9.22432C11.8338 9.49296 11.9705 9.56363 11.9654 9.60014C11.9624 9.62081 11.9969 9.64298 12.0419 9.64935C12.2513 9.67899 13.9054 10.839 14.2439 11.1936C14.2982 11.2504 14.3458 11.2891 14.3498 11.2795C14.3703 11.2304 14.592 10.6571 14.6599 10.4772C14.703 10.3635 14.8362 10.0589 14.9559 9.80035C15.0757 9.54177 15.1926 9.28388 15.2157 9.22724C15.2865 9.05309 15.4053 8.84269 15.457 8.79999C15.484 8.77762 15.4964 8.74833 15.4847 8.73482C15.4528 8.6982 16.3695 7.15186 16.5723 6.90041C16.6013 6.86431 16.7459 6.65586 16.8936 6.43717C17.0412 6.21847 17.197 6.01356 17.2398 5.98176C17.2825 5.94999 17.3216 5.89446 17.3267 5.85837C17.3318 5.82228 17.3937 5.74488 17.4643 5.6863C17.5349 5.62777 17.5839 5.57815 17.5732 5.57603C17.5314 5.56786 17.6542 5.39043 17.6974 5.39654C17.7228 5.40012 17.7476 5.3741 17.7526 5.33874C17.7684 5.22685 18.851 4.03186 18.9533 4.01332C18.978 4.00881 19.0012 3.98443 19.0048 3.95915C19.0118 3.90948 19.5555 3.42451 19.8364 3.21731C20.4482 2.76604 21.0313 2.4616 21.7757 2.20481C23.0095 1.77921 24.3351 1.73566 25.5139 2.08194ZM4.20426 0.0566705C4.19931 0.0859407 4.13263 0.238205 4.05603 0.395075C3.81499 0.888713 3.53755 1.65516 3.43712 2.10492C3.38386 2.34325 3.24835 3.13758 3.13604 3.87012C3.02367 4.60264 2.91059 5.26759 2.88469 5.34778C2.8588 5.42797 2.80069 5.66479 2.75548 5.87402C2.71032 6.08325 2.62883 6.39517 2.57445 6.56716C2.43846 6.99743 2.42304 7.05388 2.26518 7.69955C2.18873 8.01218 2.11019 8.32451 2.0907 8.39363C1.97625 8.79871 1.56755 11.2589 1.14678 14.0755C1.05391 14.6973 0.956997 15.2275 0.93138 15.2538C0.905807 15.2802 0.852068 15.2971 0.812 15.2914C0.701618 15.2758 0.514267 15.1168 0.52413 15.0471C0.531291 14.9965 0.557021 15.0026 0.668756 15.0812C0.743503 15.1339 0.816777 15.1691 0.831621 15.1595C0.870275 15.1346 0.825516 14.4653 0.771292 14.2569C0.694508 13.9619 0.644199 13.7246 0.643909 13.6558C0.643714 13.6199 0.631072 13.5495 0.615761 13.4994C0.600451 13.4493 0.527127 13.2135 0.452811 12.9754C0.270353 12.3907 0.157856 11.8906 0.199066 11.8473C0.217692 11.8277 0.207026 11.808 0.175397 11.8035C0.143767 11.7991 0.134412 11.7689 0.154537 11.7366C0.17471 11.7043 0.175072 11.6661 0.155369 11.6517C0.135666 11.6373 0.106476 11.51 0.090461 11.3688C0.0744522 11.2277 0.0475807 11.0024 0.0307782 10.8683C0.0139756 10.7341 0.00389302 10.5073 0.00839132 10.3642C0.0128896 10.221 0.0102547 10.054 0.0025768 9.99306C-0.0051011 9.93207 0.00514601 9.71136 0.0253819 9.50256C0.0456178 9.29376 0.0508016 9.10992 0.0369515 9.09398C-0.000676873 9.0508 0.257431 7.28476 0.300508 7.29085C0.320838 7.29373 0.365541 7.09911 0.399805 6.8584C0.485097 6.25887 0.624902 5.7557 0.92096 4.98277C1.05212 4.6403 1.48497 3.80811 1.61499 3.6483C1.66068 3.59221 1.70233 3.51655 1.70768 3.48015C1.71298 3.44379 1.74015 3.39863 1.76803 3.37979C1.79596 3.361 1.94178 3.15116 2.09213 2.91355C2.24248 2.67589 2.39853 2.46017 2.43885 2.43417C2.47923 2.40812 2.50353 2.37689 2.49293 2.36467C2.48232 2.3525 2.54303 2.25105 2.62791 2.13922C2.71274 2.02742 2.78488 1.91662 2.78823 1.893C2.79157 1.86939 2.81784 1.85341 2.84655 1.85748C2.87527 1.86154 2.88885 1.84573 2.87666 1.82231C2.86452 1.7989 2.94323 1.6581 3.05163 1.50947C3.16005 1.36081 3.25678 1.22072 3.26657 1.19815C3.2764 1.17558 3.4282 0.961831 3.60387 0.723143C3.77958 0.484461 3.97188 0.222774 4.03119 0.141561C4.13816 -0.00474003 4.22156 -0.0456468 4.20426 0.0566705Z" fill="#597230"/>
</svg>
