<svg width="30" height="34" viewBox="0 0 30 34" fill="none" xmlns="http://www.w3.org/2000/svg">
<path fill-rule="evenodd" clip-rule="evenodd" d="M24.4916 0.0563557C24.5003 0.0694337 24.5672 0.101965 24.6402 0.128616C25.1453 0.312843 25.6257 0.63716 26.0037 1.04914C26.3787 1.45784 26.969 2.36195 27.2956 3.02761C27.4262 3.29395 27.5654 3.60836 27.6249 3.77128C27.7536 4.124 27.7618 4.14626 27.8068 4.25988C27.8997 4.4944 28.1067 5.22569 28.079 5.22109C28.063 5.21849 28.0683 5.23383 28.0908 5.25523C28.1442 5.30591 28.2747 5.86273 28.239 5.88768C28.224 5.89819 28.2307 5.91035 28.2539 5.91468C28.307 5.92458 28.6618 7.58313 28.8021 8.47717C28.8204 8.59431 28.8531 8.78647 28.8745 8.90418C29.0259 9.733 29.1982 10.8665 29.1766 10.8906C29.1623 10.9067 29.1673 10.9228 29.1875 10.9266C29.2079 10.9304 29.2262 10.9757 29.2282 11.0272C29.2313 11.1078 29.2564 11.2949 29.3603 12.0133C29.4266 12.4718 29.5038 13.208 29.5789 14.1008C29.5935 14.2741 29.6141 14.5105 29.6246 14.6262C29.646 14.8616 29.6973 15.9448 29.7007 16.2323C29.7019 16.3349 29.7059 16.6054 29.7096 16.8335C29.7175 17.3206 29.71 18.2779 29.6961 18.5611C29.6907 18.6702 29.6864 18.7996 29.6867 18.8488C29.6882 19.186 29.6815 19.4105 29.669 19.4378C29.661 19.4553 29.6572 19.5743 29.6607 19.7023C29.6641 19.8303 29.6558 20.0334 29.6422 20.1537C29.6286 20.274 29.6204 20.4612 29.624 20.5697C29.6275 20.6782 29.6245 20.78 29.6173 20.7959C29.6101 20.8118 29.6033 20.899 29.6022 20.9898C29.6011 21.0805 29.5902 21.2646 29.5778 21.3987C29.5655 21.5329 29.5533 21.6888 29.5507 21.7451C29.5365 22.0441 29.5099 22.4902 29.4933 22.7061C29.4667 23.052 29.4641 23.0941 29.4588 23.2786C29.4545 23.4279 29.4079 23.869 29.3446 24.3587C29.3313 24.4616 29.3282 24.5663 29.3376 24.5913C29.3962 24.7468 28.8194 27.9847 28.6563 28.4159C28.6011 28.5616 28.5039 28.8691 28.4403 29.0992C28.2277 29.8672 27.8571 30.9017 27.6706 31.2476C27.4762 31.6082 27.2217 31.8432 26.976 31.889C26.8273 31.9168 26.7038 31.8951 26.7136 31.8429C26.7177 31.8209 26.7498 31.8083 26.7849 31.8148C26.9898 31.853 27.3398 31.5679 27.5054 31.228C27.6748 30.8803 27.8385 30.0419 27.8746 29.3374C27.8923 28.9921 27.9011 28.6946 27.8943 28.6765C27.8798 28.638 27.866 28.163 27.8663 27.7162C27.8668 27.1691 27.8815 26.2143 27.8918 26.0669C27.8973 25.9884 27.9011 25.7688 27.9003 25.5791C27.8995 25.3893 27.9108 25.2257 27.9254 25.2155C27.9401 25.2052 27.9399 25.1742 27.9251 25.1466C27.9102 25.119 27.9065 25.0235 27.9169 24.9345C27.9272 24.8455 27.9269 24.7524 27.9162 24.7276C27.9055 24.7029 27.9015 24.5905 27.9073 24.4779C27.9131 24.3653 27.9165 24.1368 27.9149 23.9702C27.9132 23.8037 27.9243 23.6535 27.9395 23.6365C27.9546 23.6196 27.9514 23.5913 27.9324 23.5737C27.9134 23.5561 27.9062 23.5023 27.9165 23.4541C27.9267 23.406 27.9332 23.3384 27.9308 23.3038C27.9174 23.1141 27.9165 22.7695 27.9292 22.7404C27.9373 22.7218 27.9408 22.6596 27.9369 22.602C27.9261 22.4401 27.9293 22.0743 27.9491 21.2191C27.9537 21.0153 27.9565 20.6995 27.9551 20.5173C27.9537 20.3351 27.9534 20.0373 27.9544 19.8555C27.9554 19.6738 27.9529 19.1935 27.9488 18.7883C27.9447 18.383 27.9439 18.0107 27.947 17.961C27.9501 17.9112 27.9458 17.7881 27.9374 17.6875C27.929 17.5869 27.9356 17.4824 27.9521 17.4552C27.9685 17.428 27.9684 17.3974 27.9518 17.3871C27.9352 17.3769 27.9245 17.2946 27.9282 17.2043C27.9319 17.114 27.9247 16.9485 27.9122 16.8364C27.8997 16.7244 27.8944 16.621 27.9005 16.6068C27.9065 16.5926 27.9035 16.4957 27.8939 16.3916C27.8843 16.2875 27.872 16.0991 27.8665 15.973C27.8525 15.6452 27.8163 15.1532 27.7866 14.883C27.7725 14.7553 27.7662 14.6099 27.7726 14.56C27.7789 14.51 27.7709 14.4666 27.7547 14.4636C27.7386 14.4606 27.7298 14.4342 27.7353 14.4049C27.7506 14.3227 27.5856 12.9585 27.4634 12.1581C27.4422 12.019 27.4285 11.8722 27.433 11.832C27.4375 11.7917 27.4272 11.7562 27.4103 11.753C27.3933 11.7498 27.3828 11.7292 27.3869 11.707C27.3911 11.6849 27.3625 11.4888 27.3234 11.2713C27.2844 11.0538 27.2341 10.7702 27.2117 10.6409C27.1894 10.5117 27.1526 10.3244 27.13 10.2248C27.1074 10.1252 27.0936 10.0187 27.0993 9.98821C27.105 9.95768 27.1004 9.91904 27.0892 9.90231C27.0487 9.842 26.973 9.38271 26.9988 9.35382C27.0133 9.33759 27.0103 9.32154 26.9922 9.31816C26.9492 9.31013 26.9052 9.05214 26.9402 9.01294C26.9551 8.99632 26.9485 8.97922 26.9257 8.97496C26.9029 8.97071 26.8903 8.93486 26.8977 8.8953C26.905 8.85574 26.8986 8.80335 26.8833 8.77891C26.868 8.75444 26.7873 8.3964 26.704 7.98325C26.5399 7.16967 26.5051 7.02051 26.2949 6.23166C26.1329 5.62386 26.0339 5.30639 25.866 4.85759C25.7993 4.67917 25.733 4.49846 25.7186 4.45604C25.6898 4.37117 25.3054 3.6064 25.2307 3.48545C24.9936 3.10156 24.7883 2.78752 24.7724 2.78456C24.7618 2.78258 24.7084 2.72147 24.6537 2.64871C24.4959 2.4388 24.0648 2.11061 23.9287 2.09676C23.7908 2.08276 23.5266 2.19115 23.1636 2.41064C22.841 2.6057 22.8821 2.57653 22.5985 2.8114C21.9094 3.38203 21.1159 4.32345 20.3832 5.43946C20.2302 5.67248 20.0945 5.87045 20.0815 5.87941C20.0686 5.88836 20.0477 5.92168 20.035 5.95343C20.0224 5.98519 19.8891 6.22083 19.7388 6.47708C19.5885 6.73333 19.4371 7.00282 19.4023 7.07593C19.3676 7.14905 19.3069 7.25869 19.2676 7.31958C19.2282 7.38046 19.1642 7.49878 19.1253 7.5825C18.9861 7.88265 18.774 8.29792 18.7414 8.33443C18.7232 8.35488 18.7002 8.39836 18.6904 8.43101C18.6806 8.46371 18.6131 8.60962 18.5404 8.75525C18.4677 8.90089 18.2442 9.35231 18.0438 9.75842C17.8434 10.1645 17.6628 10.5216 17.6424 10.5519C17.5972 10.6191 17.6013 10.6104 17.5266 10.7991C17.4931 10.8838 17.4488 10.9686 17.428 10.9874C17.4073 11.0063 17.3689 11.0829 17.3427 11.1576C17.3165 11.2323 17.2631 11.3433 17.224 11.4042C17.185 11.4652 17.1429 11.5411 17.1304 11.5729C17.1073 11.6321 16.9953 11.8582 16.7741 12.2921C16.7053 12.4271 16.6234 12.5886 16.5921 12.6509C16.3505 13.1319 16.1738 13.4751 16.0774 13.6507C16.0151 13.7642 15.7894 14.1873 15.576 14.591C15.3625 14.9946 15.1616 15.3665 15.1296 15.4174C15.0975 15.4683 15.0612 15.5359 15.049 15.5678C14.9743 15.7616 14.2746 16.9494 14.1054 17.1694C14.067 17.2193 13.9378 17.4094 13.8183 17.5918C13.5701 17.9706 13.166 18.5034 12.8565 18.8597C12.7886 18.938 12.7071 19.0395 12.6754 19.0853C12.6078 19.1832 12.2596 19.566 12.218 19.5883C12.2022 19.5967 12.1591 19.6445 12.1222 19.6945C12.0853 19.7445 11.9647 19.8801 11.8543 19.996C11.7437 20.1118 11.6359 20.2313 11.6145 20.2614C11.5643 20.3323 11.1712 20.772 11.1392 20.793C11.1257 20.8019 11.083 20.8476 11.0443 20.8947C11.0055 20.9418 10.9256 21.0385 10.8667 21.1097C10.8078 21.1809 10.7004 21.3118 10.628 21.4007C10.5557 21.4895 10.4548 21.6038 10.4039 21.6547C10.3531 21.7056 10.3093 21.7587 10.3067 21.7727C10.304 21.7868 10.216 21.8917 10.1111 22.0059C10.0062 22.1201 9.81671 22.3292 9.69003 22.4707C9.52354 22.6565 9.45961 22.7061 9.4595 22.6495C9.45938 22.6064 9.49688 22.5216 9.54279 22.4611C9.68144 22.2783 9.83544 22.0307 9.94703 21.8112C10.0051 21.697 10.1087 21.493 10.1772 21.3579C10.2457 21.2229 10.3205 21.0601 10.3435 20.9961C10.3665 20.9322 10.4317 20.7769 10.4884 20.651C10.6295 20.3382 10.7894 19.9355 11.0006 19.3613C11.1826 18.8664 11.3087 18.5444 11.5059 18.0703C11.5673 17.9226 11.6482 17.7237 11.6855 17.6283C11.7229 17.5329 11.7828 17.4067 11.8186 17.3477C11.8544 17.2887 11.9051 17.1772 11.9313 17.1C11.9764 16.9668 12.0712 16.7616 12.1443 16.6388C12.1626 16.6081 12.1861 16.5566 12.1966 16.5245C12.2317 16.4171 12.4372 16.0215 13.0972 14.7903C14.1029 12.9144 14.1877 12.7527 15.0913 10.9859C15.2134 10.7471 15.4933 10.1853 15.7132 9.73733C15.9331 9.28938 16.1341 8.8896 16.1599 8.84893C16.1857 8.80825 16.2744 8.62942 16.3571 8.45153C16.4398 8.27364 16.5474 8.0518 16.5961 7.95855C16.6449 7.86531 16.8449 7.47464 17.0407 7.09041C17.4868 6.21451 17.939 5.38872 17.9949 5.34767C18.0183 5.33045 18.0436 5.28373 18.0511 5.24385C18.0585 5.20401 18.0874 5.14334 18.1154 5.10906C18.1433 5.07478 18.2358 4.92949 18.3209 4.78616C18.8417 3.90941 20.0212 2.33358 20.3323 2.09892C20.3792 2.06351 20.4255 2.01744 20.4352 1.9965C20.4986 1.85943 21.6372 0.845558 21.7188 0.853422C21.7358 0.855055 21.8383 0.789106 21.9465 0.706877C22.148 0.553828 22.67 0.258221 22.6619 0.301777C22.6594 0.315084 22.7012 0.297562 22.7547 0.26284C22.9006 0.168226 23.4289 0.0283276 23.7229 0.0065647C23.9979 -0.0138581 24.465 0.0164202 24.4916 0.0563557ZM0.322045 17.0712C0.440376 17.2017 0.59382 17.3646 0.662974 17.4332C0.73212 17.5018 0.775311 17.5728 0.759014 17.5911C0.742718 17.6093 0.748259 17.6168 0.771336 17.6076C0.811396 17.5917 1.09431 17.8423 1.77514 18.497C1.94531 18.6607 2.11297 18.8132 2.14776 18.836C2.18254 18.8588 2.20751 18.896 2.20328 18.9187C2.19906 18.9414 2.20936 18.9596 2.22616 18.9591C2.28697 18.9574 2.40869 19.0619 2.84645 19.4919C3.09146 19.7325 3.30827 19.9417 3.32824 19.9568C3.44631 20.0461 4.11522 20.7919 4.41623 21.1698C4.67988 21.501 5.33875 22.5019 5.31246 22.5314C5.29515 22.5507 5.30067 22.5588 5.32466 22.5492C5.3487 22.5397 5.44163 22.6679 5.53119 22.8342C5.62076 23.0005 5.73658 23.2028 5.78854 23.2838C5.84053 23.3648 5.9291 23.514 5.98535 23.6155C6.04159 23.7169 6.1396 23.8934 6.20317 24.0076C6.70286 24.9055 6.92283 25.3422 7.18004 25.9471C7.26409 26.1447 7.3409 26.3171 7.35076 26.3304C7.36062 26.3436 7.39847 26.4341 7.43487 26.5315C7.71389 27.2784 8.05749 28.3992 8.03856 28.5008C8.03264 28.5325 8.04027 28.567 8.05551 28.5775C8.16339 28.6512 8.32213 30.2834 8.2883 30.9709C8.28331 31.0723 8.28393 31.3329 8.28962 31.55C8.29694 31.8276 8.27216 32.1012 8.20611 32.4715C8.11601 32.9767 8.10747 33.0018 7.99789 33.0839C7.91856 33.1434 7.84305 33.1621 7.75101 33.1449C7.66548 33.129 7.63063 33.1065 7.65281 33.0817C7.67173 33.0605 7.71889 33.0582 7.75754 33.0767C7.79622 33.0951 7.82182 33.0941 7.81441 33.0745C7.80705 33.0549 7.82819 33.0336 7.86144 33.0273C7.8947 33.0209 7.95732 32.946 8.00063 32.8607C8.13845 32.5895 8.09955 31.9611 7.8925 31.1142C7.86195 30.9891 7.80899 30.7745 7.77487 30.6374C7.71348 30.3907 7.34202 29.4417 7.1309 28.9921C7.07077 28.8641 7.03448 28.7504 7.05021 28.7393C7.06597 28.7283 7.06128 28.716 7.03977 28.712C7.0183 28.708 6.95678 28.6081 6.90309 28.4901C6.66179 27.9597 5.88817 26.4687 5.6264 26.0295C5.58066 25.9527 5.44001 25.7125 5.31382 25.4957C5.18762 25.2789 5.07643 25.0907 5.06669 25.0775C5.0442 25.047 4.10099 23.538 3.91364 23.2328C3.83621 23.1066 3.74798 22.9705 3.71757 22.9304C3.68718 22.8903 3.67401 22.8444 3.68831 22.8283C3.70265 22.8123 3.69721 22.796 3.67633 22.7921C3.65541 22.7882 3.55438 22.6345 3.45182 22.4505C3.34922 22.2665 3.23075 22.0614 3.18856 21.9948C3.14633 21.9282 3.11574 21.8527 3.12051 21.827C3.1253 21.8014 3.11424 21.7776 3.09594 21.7742C3.07764 21.7708 2.90976 21.4747 2.72285 21.1162C2.08173 19.8866 1.36708 18.756 0.283368 17.2567C0.132695 17.0483 0.00604953 16.8631 0.00195685 16.8453C-0.0190145 16.7545 0.130575 16.86 0.322045 17.0712Z" fill="#597230"/>
</svg>
