<svg width="37" height="72" viewBox="0 0 37 72" fill="none" xmlns="http://www.w3.org/2000/svg">
<path fill-rule="evenodd" clip-rule="evenodd" d="M19.7261 0.284485C19.6863 0.408744 19.5348 0.778851 19.3893 1.1069C19.2438 1.43494 18.9734 2.05581 18.7886 2.48657C18.6037 2.91733 18.4036 3.38106 18.3438 3.51709C17.9671 4.37491 17.6753 5.15187 17.7191 5.17995C17.7472 5.19805 17.736 5.20708 17.6941 5.20007C17.6506 5.19281 17.4569 5.67063 17.2432 6.31218C17.0371 6.93086 16.8395 7.51074 16.8041 7.60074C16.5175 8.32967 15.6177 11.5531 15.6898 11.5927C15.7148 11.6065 15.7072 11.632 15.673 11.6493C15.6186 11.677 15.4596 12.2782 15.1685 13.557C15.1229 13.7573 15.0956 13.9616 15.1078 14.0107C15.1201 14.0599 15.1069 14.1119 15.0785 14.1263C15.0197 14.1561 14.8912 14.7936 14.9292 14.8667C14.9429 14.893 14.9307 14.9263 14.9023 14.9408C14.8738 14.9552 14.8274 15.0966 14.7992 15.2549C14.7709 15.4133 14.6849 15.8765 14.6081 16.2843C14.5312 16.6921 14.4734 17.0449 14.4796 17.0683C14.4857 17.0916 14.4686 17.1792 14.4416 17.2629C14.4146 17.3466 14.3657 17.5917 14.333 17.8077C14.3004 18.0236 14.2058 18.624 14.1229 19.1417C14.0399 19.6595 13.9761 20.1269 13.981 20.1804C13.986 20.234 13.976 20.3046 13.9588 20.3372C13.921 20.4092 13.6742 22.2869 13.494 23.8728C13.4219 24.5075 13.3071 25.5202 13.2388 26.1232C13.1705 26.7261 13.1409 27.2452 13.1731 27.2766C13.2079 27.3107 13.1993 27.327 13.1519 27.3168C13.1081 27.3074 13.0824 27.3383 13.0948 27.3853C13.1072 27.4324 13.0766 27.8113 13.0269 28.2273C12.9772 28.6434 12.9437 29.0448 12.9526 29.1194C12.9614 29.194 12.9552 29.2808 12.9388 29.3122C12.8734 29.4375 12.8166 30.5216 12.8723 30.5804C12.905 30.6149 12.9037 30.6298 12.8693 30.6134C12.8002 30.5806 12.6804 32.0202 12.7468 32.0853C12.7696 32.1076 12.7639 32.1382 12.7342 32.1533C12.7044 32.1685 12.6814 32.2436 12.6831 32.3203C12.6848 32.3969 12.6597 32.8709 12.6273 33.3735C12.595 33.8761 12.5786 34.3256 12.5909 34.3723C12.6032 34.4191 12.6009 34.5662 12.5857 34.6993C12.5225 35.2559 12.5193 35.5821 12.5766 35.6425C12.6101 35.6777 12.6096 35.6933 12.5754 35.6771C12.5412 35.6608 12.5086 35.7861 12.503 35.9555C12.4745 36.8213 12.4525 40.7515 12.4753 40.9097C12.4898 41.0103 12.4945 41.1324 12.4857 41.1812C12.4717 41.2589 12.528 42.9124 12.5705 43.6757C12.579 43.8265 12.593 44.1456 12.6018 44.3849C12.6171 44.8025 12.6551 45.4116 12.7603 46.9225C12.7871 47.3077 12.8174 47.7998 12.8277 48.0161C13.0357 52.3972 14.1525 57.744 15.3466 60.0753C15.6474 60.6625 16.3043 61.2946 16.3882 61.0776C16.4113 61.0178 16.3248 60.9147 16.1545 60.799C15.9763 60.6779 15.7886 60.4491 15.6032 60.127C15.3101 59.6176 14.7765 58.2263 14.5472 57.3739C14.1838 56.0231 13.8273 53.4646 13.7348 51.5432C13.7192 51.2188 13.6963 50.741 13.684 50.4814C13.6342 49.431 13.6553 47.12 13.7256 45.9088C13.7667 45.2011 13.81 44.445 13.822 44.2285C13.8338 44.0121 13.8244 43.844 13.801 43.8553C13.7776 43.8664 13.7793 43.8385 13.8047 43.793C13.83 43.7476 13.8689 43.4293 13.891 43.0858C13.9131 42.7423 13.9672 41.9172 14.0114 41.2524C14.0555 40.5875 14.0986 39.895 14.1072 39.7134C14.1158 39.5318 14.1373 39.2309 14.1548 39.0448C14.1724 38.8586 14.241 37.9067 14.3074 36.9296C14.3737 35.9523 14.4561 34.8797 14.4903 34.5458C14.5246 34.2121 14.5327 33.9195 14.5085 33.8958C14.4842 33.8721 14.4886 33.8403 14.5183 33.8253C14.5478 33.8103 14.5783 33.677 14.5859 33.5291C14.5934 33.3813 14.6225 33.0355 14.6505 32.7608C14.6784 32.486 14.6821 32.2425 14.6587 32.2196C14.6353 32.1968 14.6341 32.1569 14.6558 32.131C14.7311 32.0414 14.9071 30.3106 14.8474 30.2477C14.8144 30.2129 14.8134 30.1966 14.8453 30.2116C14.8991 30.2369 15.0788 28.9989 15.0425 28.8528C15.0335 28.8165 15.0522 28.7105 15.0841 28.6172C15.1159 28.5239 15.1359 28.4021 15.1286 28.3466C15.1212 28.2911 15.1226 28.2056 15.1317 28.1567C15.1663 27.9703 15.267 27.2422 15.4191 26.0773C15.5837 24.8173 15.6809 24.1004 15.8359 23.0059C16.0815 21.2718 16.2195 20.1866 16.4543 18.1404C16.7243 15.7876 17.05 12.7377 17.0366 12.6871C17.0137 12.6002 17.2905 10.4434 17.4878 9.16983C17.5389 8.84094 17.5778 8.56121 17.5744 8.54828C17.5709 8.53528 17.6295 8.20136 17.7044 7.80611C17.7794 7.41086 17.833 7.05832 17.8237 7.02279C17.8143 6.98719 17.8349 6.92615 17.8693 6.88715C17.9038 6.84812 17.998 6.51555 18.0785 6.14799C18.2262 5.4742 18.6617 3.84281 18.7224 3.73628C18.7404 3.70467 18.803 3.51101 18.8617 3.30588C18.9928 2.84698 19.5024 1.36683 19.7755 0.651878C19.8867 0.360568 19.9692 0.0895816 19.9587 0.0496468C19.9256 -0.0760555 19.8012 0.0495436 19.7261 0.284485ZM0.000248668 31.5691C-0.00520887 31.5974 0.070333 31.8796 0.168102 32.196C0.437301 33.0672 0.517305 33.3398 0.670156 33.907C0.747221 34.1931 0.835191 34.4971 0.86568 34.5828C0.89617 34.6684 0.919598 34.7722 0.917852 34.8134C0.916106 34.8546 0.943796 34.9643 0.979346 35.0572C1.01495 35.1502 1.04432 35.2393 1.04463 35.2553C1.04697 35.3698 1.18691 35.912 1.23932 36.0095C1.27483 36.0755 1.2946 36.1388 1.28325 36.1501C1.2719 36.1614 1.30114 36.3405 1.34822 36.5481C1.524 37.3231 1.77088 38.6272 1.92634 39.6016C1.97626 39.9143 2.03717 40.2654 2.06178 40.3818C2.08634 40.4982 2.09725 40.6141 2.08597 40.6393C2.07468 40.6645 2.08847 40.7977 2.11666 40.9352C2.14485 41.0728 2.20168 41.4919 2.24296 41.8668C2.28425 42.2416 2.33392 42.6297 2.35334 42.7291C2.37275 42.8286 2.39358 43.0207 2.3997 43.1561C2.40577 43.2915 2.43056 43.4218 2.4548 43.4457C2.47904 43.4695 2.48914 43.5396 2.47725 43.6012C2.45823 43.6998 2.49509 43.9886 2.59012 44.4859C2.60596 44.5687 2.6185 44.6705 2.618 44.7122C2.61586 44.8929 2.74382 45.7063 2.77823 45.7305C2.79907 45.7452 2.80831 45.7977 2.79875 45.8472C2.78113 45.9386 2.89226 46.7093 3.08024 47.7996C3.13713 48.1295 3.20249 48.5206 3.22548 48.6686C3.38474 49.6937 3.81483 52.1274 3.84578 52.1785C3.86654 52.2129 3.8768 52.2801 3.8686 52.3279C3.86039 52.3758 3.87939 52.5243 3.91091 52.658C3.94243 52.7917 3.96485 52.9226 3.9608 52.9489C3.95676 52.9752 3.96976 53.0821 3.98974 53.1865C4.05865 53.5463 4.13415 53.9794 4.26321 54.7561C4.33448 55.1845 4.41407 55.6436 4.44019 55.7762C4.46625 55.9089 4.54243 56.3412 4.60939 56.7369C4.6764 57.1327 4.74181 57.4715 4.75474 57.49C4.76773 57.5084 4.7783 57.5627 4.77818 57.6105C4.77794 57.7278 4.89486 58.4452 4.93923 58.5986C4.95876 58.6662 4.97323 58.7342 4.97141 58.7498C4.95797 58.8639 5.07698 59.6402 5.10889 59.6464C5.13098 59.6507 5.13807 59.7111 5.12463 59.7808C5.11121 59.8504 5.12891 60.0105 5.16397 60.1364C5.19903 60.2623 5.21567 60.363 5.20097 60.3602C5.18621 60.3574 5.1933 60.4566 5.21675 60.5807C5.24018 60.7049 5.25771 60.8714 5.25577 60.9508C5.25378 61.0302 5.26644 61.2545 5.28385 61.4492C5.31261 61.7714 5.34232 62.2349 5.38559 63.0349C5.40066 63.314 5.40963 63.7401 5.40697 64.0541C5.40633 64.1337 5.40762 64.4342 5.4099 64.7217C5.41468 65.3227 5.3928 66.1782 5.3642 66.511C5.32332 66.9868 5.31951 67.7995 5.35543 68.3654C5.39687 69.0176 5.38865 70.0155 5.33682 70.6193C5.30221 71.0232 5.33222 71.1029 5.48954 71.0251C5.55682 70.9918 5.56424 70.9707 5.51944 70.9399C5.43944 70.8849 5.52877 70.4424 5.71821 69.9555C5.8014 69.7416 5.90418 69.4689 5.94661 69.3495C5.989 69.23 6.12285 68.9343 6.24401 68.6924C6.36518 68.4504 6.45865 68.2156 6.45174 68.1706C6.44489 68.1257 6.46143 68.085 6.4886 68.0802C6.51573 68.0754 6.64761 67.7141 6.78165 67.2774C7.06059 66.3686 7.32383 64.8544 7.35735 63.9662C7.36153 63.8554 7.38353 63.6236 7.40623 63.4512C7.42898 63.2787 7.4441 63.0206 7.43982 62.8776C7.43554 62.7346 7.44109 62.5149 7.45214 62.3894C7.46313 62.264 7.46852 61.9909 7.4641 61.7827C7.45968 61.5745 7.45108 61.1683 7.44501 60.88C7.42789 60.0654 7.21117 57.791 7.11849 57.4529C7.10001 57.3855 7.08666 57.283 7.08881 57.2252C7.09091 57.1674 7.07524 57.06 7.05399 56.9865C7.03269 56.913 7.01695 56.8069 7.01902 56.7506C7.02108 56.6943 7.00225 56.5471 6.9772 56.4235C6.95215 56.2999 6.93181 56.1607 6.93204 56.1143C6.93228 56.0677 6.9158 55.9341 6.89554 55.8172C6.85635 55.5916 6.83795 55.4735 6.6948 54.529C6.64498 54.2004 6.58792 53.9196 6.56803 53.9051C6.54809 53.8905 6.5474 53.8606 6.56643 53.8385C6.59684 53.8033 6.56568 53.5713 6.4622 53.0631C6.44533 52.9801 6.43211 52.8742 6.43286 52.8278C6.43362 52.7814 6.4164 52.6476 6.39458 52.5304C6.37276 52.4132 6.28395 51.8469 6.19713 51.2718C5.97497 49.7998 5.5346 47.1296 5.4474 46.7254C5.40709 46.5386 5.3741 46.3519 5.37408 46.3103C5.37406 46.2688 5.3488 46.1669 5.31795 46.084C5.28705 46.0011 5.26673 45.9077 5.27276 45.8764C5.2868 45.8036 4.81235 43.8359 4.66321 43.3486C4.601 43.1452 4.50232 42.8046 4.44397 42.5918C4.38557 42.3789 4.30696 42.1512 4.26919 42.0857C4.23141 42.0202 4.21363 41.9571 4.22964 41.9454C4.24569 41.9337 4.22924 41.8854 4.19319 41.8381C4.15714 41.7907 4.13268 41.7259 4.13886 41.6938C4.1492 41.6402 3.07856 38.8065 2.6318 37.705C2.36303 37.0422 1.98726 36.1235 1.83427 35.7552C1.76342 35.5845 1.64837 35.3006 1.57863 35.1242C1.50888 34.9478 1.3627 34.605 1.25385 34.3625C1.14498 34.1201 1.05843 33.9084 1.06155 33.8922C1.06468 33.876 1.04946 33.8278 1.02768 33.785C1.00589 33.7423 0.937936 33.5933 0.876586 33.4538C0.815236 33.3144 0.752089 33.1717 0.736256 33.1367C0.720411 33.1017 0.635544 32.8896 0.547706 32.6653C0.176444 31.7173 0.0973471 31.5344 0.0549378 31.5263C0.0303029 31.5215 0.005717 31.5408 0.000248668 31.5691ZM36.1218 31.2318C35.9101 31.4394 35.4775 31.8577 35.1606 32.1613C34.6266 32.673 32.6642 34.8674 32.6641 34.9531C32.664 34.9739 32.3587 35.3685 31.9856 35.8301C31.6124 36.2916 31.3077 36.688 31.3083 36.7109C31.309 36.7338 31.2198 36.866 31.1099 37.0047C30.7596 37.4471 30.0938 38.5031 29.5159 39.5328C28.8621 40.6979 28.8466 40.7266 28.7654 40.9213C28.7314 41.0028 28.6734 41.0938 28.6363 41.1235C28.5993 41.1532 28.5697 41.1989 28.5705 41.2251C28.5713 41.2512 28.4681 41.4704 28.3412 41.7122C28.2143 41.954 28.1111 42.1741 28.1119 42.2014C28.1127 42.2286 28.0703 42.3236 28.0177 42.4125C27.8496 42.6962 27.3397 43.8552 27.3854 43.8497C27.4096 43.8469 27.4017 43.8669 27.3678 43.8944C27.2869 43.96 26.9409 44.7259 26.9441 44.8322C26.9455 44.8777 26.9265 44.9177 26.9018 44.9211C26.8526 44.928 26.6015 45.5241 26.6318 45.562C26.6423 45.5749 26.6278 45.6041 26.5997 45.6268C26.5716 45.6495 26.3862 46.0675 26.1877 46.5557C25.9893 47.0439 25.8037 47.4915 25.7756 47.5505C25.7474 47.6094 25.7419 47.6831 25.7634 47.7143C25.787 47.7487 25.7774 47.7588 25.7389 47.74C25.7039 47.723 25.676 47.7332 25.6769 47.7628C25.6778 47.7923 25.5806 48.0648 25.461 48.3684C25.3413 48.6719 25.2141 49.0122 25.1783 49.1246C25.1424 49.2371 25.0384 49.519 24.947 49.7511C24.8557 49.9832 24.7747 50.2206 24.7669 50.2786C24.7592 50.3366 24.7385 50.3986 24.7209 50.4164C24.6896 50.4482 24.0263 52.3736 24.0053 52.4938C23.995 52.5525 23.9624 52.6554 23.8095 53.1112C23.5839 53.7837 23.5321 53.9532 23.534 54.0137C23.5351 54.0508 23.5023 54.1602 23.4612 54.2568C23.4201 54.3534 23.3795 54.4823 23.371 54.5431C23.3624 54.6039 23.3223 54.7463 23.2816 54.8594C23.241 54.9725 23.1565 55.2606 23.0939 55.4996C23.0312 55.7386 22.9483 56.0275 22.9095 56.1417C22.8708 56.2557 22.8331 56.3866 22.8259 56.4324C22.8187 56.4782 22.785 56.5948 22.751 56.6917C22.7171 56.7885 22.6845 56.9187 22.6786 56.9809C22.6728 57.0431 22.6343 57.1866 22.593 57.2998C22.4925 57.5755 22.364 58.0506 22.3393 58.2373C22.3284 58.3206 22.2968 58.4382 22.2692 58.4988C22.2415 58.5593 22.1863 58.7513 22.1465 58.9254C22.1067 59.0996 22.0272 59.437 21.9698 59.6753C21.8194 60.2998 21.5118 61.7625 21.4257 62.263C21.248 63.2947 21.1345 64.0298 21.1043 64.3452C21.0863 64.5319 21.0689 64.6976 21.0656 64.7134C21.0158 64.9494 20.9436 65.9335 20.8918 67.082C20.873 67.4991 20.8284 68.4221 20.7928 69.1332C20.6313 72.3533 20.7995 70.9555 20.9658 71.7262C21.1425 72.5454 20.39 71.2709 20.8662 71.1951C20.5443 71.1554 20.9658 71.7262 20.9658 71.7262C20.8304 71.5271 20.8218 70.2186 20.7928 69.1332C20.7711 68.3226 20.9451 72.2163 21.0019 71.8512C21.0447 71.5755 21.0645 71.3278 21.0459 71.3008C21.0273 71.2737 21.0378 71.248 21.0692 71.2436C21.1006 71.2392 21.1243 71.1677 21.1218 71.0846C21.1149 70.8544 21.338 69.5025 21.5866 68.2689C21.6661 67.874 21.7463 67.459 21.7647 67.3466C21.7831 67.2343 21.8129 67.114 21.8311 67.0794C21.8493 67.0449 21.8953 66.8771 21.9332 66.7067C22.2137 65.4471 22.7161 63.3741 22.9395 62.5541C23.0222 62.251 23.0916 61.9645 23.0937 61.9176C23.0959 61.8708 23.1153 61.799 23.1368 61.7581C23.1583 61.7173 23.1617 61.6859 23.1443 61.6883C23.1269 61.6907 23.1512 61.6057 23.1982 61.4994C23.2452 61.3931 23.3005 61.2283 23.3211 61.1334C23.3416 61.0384 23.4277 60.7375 23.5126 60.4648C23.5974 60.192 23.6686 59.956 23.6709 59.9403C23.6732 59.9246 23.7054 59.8267 23.7424 59.7225C23.7794 59.6184 23.8151 59.4878 23.8216 59.4324C23.8282 59.3769 23.8489 59.3028 23.8675 59.2677C23.9456 59.121 24.1917 58.2543 24.1625 58.2291C24.145 58.214 24.1552 58.1982 24.1851 58.194C24.215 58.1899 24.2674 58.0758 24.3014 57.9406C24.3355 57.8053 24.3947 57.615 24.4331 57.5175C24.4951 57.3596 25.0209 55.8327 25.2506 55.1428C25.4388 54.5778 25.8214 53.5087 25.9821 53.099C26.0748 52.8623 26.1498 52.6371 26.1487 52.5985C26.1475 52.56 26.1666 52.5017 26.1912 52.4691C26.2158 52.4366 26.309 52.1987 26.3983 51.9407C26.4876 51.6826 26.581 51.4416 26.6057 51.405C26.6305 51.3684 26.6564 51.2892 26.6634 51.2289C26.6704 51.1687 26.7161 51.052 26.7651 50.9695C26.8141 50.887 26.8535 50.7986 26.8527 50.773C26.8519 50.7473 26.9112 50.5751 26.9844 50.3902C27.3998 49.3414 27.6109 48.8254 28.0171 47.8662C28.2651 47.2805 28.4671 46.7688 28.4659 46.7291C28.4647 46.6893 28.4853 46.6538 28.5118 46.6501C28.5383 46.6464 28.5955 46.5442 28.639 46.423C28.6824 46.3019 28.8061 46.0146 28.9138 45.7846C29.0215 45.5547 29.2079 45.1519 29.328 44.8896C29.4481 44.6272 29.958 43.5839 30.4611 42.5711C30.9641 41.5583 31.3748 40.7 31.3737 40.6638C31.3726 40.6275 31.4054 40.5653 31.4466 40.5254C31.4878 40.4856 31.5889 40.3055 31.6713 40.1251C31.7537 39.9448 31.8781 39.6762 31.9477 39.5284C32.3296 38.7174 32.5239 38.2821 33.143 36.8498C33.5173 35.984 33.845 35.2488 33.8712 35.216C33.8974 35.1832 33.9175 35.1113 33.9158 35.0563C33.9141 35.0012 33.9334 34.9533 33.9586 34.9498C33.9838 34.9463 34.0474 34.8313 34.1 34.6942C34.1526 34.5571 34.2875 34.2808 34.3997 34.0802C34.5119 33.8797 34.6276 33.6709 34.6568 33.6163C34.9993 32.9759 35.6226 32.0945 36.2911 31.305C36.4671 31.0972 36.6105 30.9077 36.6098 30.8838C36.6069 30.7878 36.4893 30.8717 36.1218 31.2318Z" fill="#597230"/>
</svg>
